<?xml version="1.0" encoding="UTF-8"?>
<svg id="Calque_1" xmlns="http://www.w3.org/2000/svg" xmlns:xlink="http://www.w3.org/1999/xlink" viewBox="0 0 242.18 238.66">
  <defs>
    <style>
      .cls-1 {
        fill: url(#Dégradé_sans_nom_723-7);
      }

      .cls-2 {
        fill: url(#Dégradé_sans_nom_723-5);
      }

      .cls-3 {
        fill: url(#Dégradé_sans_nom_723-12);
      }

      .cls-4 {
        fill: url(#Dégradé_sans_nom_723-2);
      }

      .cls-5 {
        fill: url(#Dégradé_sans_nom_723);
      }

      .cls-6 {
        fill: url(#Dégradé_sans_nom_723-9);
      }

      .cls-7 {
        fill: url(#Dégradé_sans_nom_723-4);
      }

      .cls-8 {
        fill: url(#Dégradé_sans_nom_723-11);
      }

      .cls-9 {
        fill: url(#Dégradé_sans_nom_723-14);
      }

      .cls-10 {
        fill: url(#Dégradé_sans_nom_723-13);
      }

      .cls-11 {
        fill: url(#Dégradé_sans_nom_723-8);
      }

      .cls-12 {
        fill: #603b41;
      }

      .cls-13 {
        fill: url(#Dégradé_sans_nom_723-6);
      }

      .cls-14 {
        fill: url(#Dégradé_sans_nom_723-10);
      }

      .cls-15 {
        fill: url(#Dégradé_sans_nom_723-15);
      }

      .cls-16 {
        fill: url(#Dégradé_sans_nom_723-3);
      }
    </style>
    <linearGradient id="Dégradé_sans_nom_723" data-name="Dégradé sans nom 723" x1="81.62" y1="232.5" x2="93.6" y2="232.5" gradientUnits="userSpaceOnUse">
      <stop offset="0" stop-color="#8a555e"/>
      <stop offset="1" stop-color="#f3c290"/>
    </linearGradient>
    <linearGradient id="Dégradé_sans_nom_723-2" data-name="Dégradé sans nom 723" x1="223.87" y1="60.22" x2="235.27" y2="60.22" xlink:href="#Dégradé_sans_nom_723"/>
    <linearGradient id="Dégradé_sans_nom_723-3" data-name="Dégradé sans nom 723" x1="234.43" y1="87.83" x2="242.06" y2="87.83" xlink:href="#Dégradé_sans_nom_723"/>
    <linearGradient id="Dégradé_sans_nom_723-4" data-name="Dégradé sans nom 723" x1="183.75" y1="24.87" x2="190.58" y2="24.87" xlink:href="#Dégradé_sans_nom_723"/>
    <linearGradient id="Dégradé_sans_nom_723-5" data-name="Dégradé sans nom 723" x1="116.09" y1="227.97" x2="122.5" y2="227.97" xlink:href="#Dégradé_sans_nom_723"/>
    <linearGradient id="Dégradé_sans_nom_723-6" data-name="Dégradé sans nom 723" x1="170.39" y1="4.03" x2="176.22" y2="4.03" xlink:href="#Dégradé_sans_nom_723"/>
    <linearGradient id="Dégradé_sans_nom_723-7" data-name="Dégradé sans nom 723" x1="2.72" y1="154.67" x2="8.06" y2="154.67" xlink:href="#Dégradé_sans_nom_723"/>
    <linearGradient id="Dégradé_sans_nom_723-8" data-name="Dégradé sans nom 723" x1=".12" y1="138.36" x2="5.37" y2="138.36" xlink:href="#Dégradé_sans_nom_723"/>
    <linearGradient id="Dégradé_sans_nom_723-9" data-name="Dégradé sans nom 723" x1="109.08" y1="2.72" x2="114.31" y2="2.72" xlink:href="#Dégradé_sans_nom_723"/>
    <linearGradient id="Dégradé_sans_nom_723-10" data-name="Dégradé sans nom 723" x1="144.92" y1="7.48" x2="148.51" y2="7.48" xlink:href="#Dégradé_sans_nom_723"/>
    <linearGradient id="Dégradé_sans_nom_723-11" data-name="Dégradé sans nom 723" x1="66.53" y1="220.6" x2="71.77" y2="220.6" xlink:href="#Dégradé_sans_nom_723"/>
    <linearGradient id="Dégradé_sans_nom_723-12" data-name="Dégradé sans nom 723" x1="36.94" y1="210.51" x2="39.29" y2="210.51" xlink:href="#Dégradé_sans_nom_723"/>
    <linearGradient id="Dégradé_sans_nom_723-13" data-name="Dégradé sans nom 723" x1="49.5" y1="209.34" x2="51.85" y2="209.34" xlink:href="#Dégradé_sans_nom_723"/>
    <linearGradient id="Dégradé_sans_nom_723-14" data-name="Dégradé sans nom 723" x1="19.48" y1="183.12" x2="22.72" y2="183.12" xlink:href="#Dégradé_sans_nom_723"/>
    <linearGradient id="Dégradé_sans_nom_723-15" data-name="Dégradé sans nom 723" x1="3.65" y1="108.77" x2="7.13" y2="108.77" xlink:href="#Dégradé_sans_nom_723"/>
  </defs>
  <g>
    <path class="cls-5" d="M81.62,232.44c.02-3.42,2.71-6.05,6.14-5.99,3.2.06,5.83,2.71,5.84,5.88,0,3.52-2.54,6.18-5.93,6.21-3.38.03-6.07-2.67-6.05-6.1Z"/>
    <path class="cls-12" d="M87.61,238.66c-1.63,0-3.15-.62-4.3-1.76-1.18-1.17-1.82-2.75-1.81-4.45,0-1.68.65-3.24,1.82-4.38,1.17-1.14,2.75-1.76,4.45-1.73,3.28.06,5.95,2.75,5.96,5.99,0,3.57-2.59,6.29-6.05,6.33-.02,0-.04,0-.06,0ZM87.64,226.57c-1.59,0-3.06.59-4.16,1.66-1.12,1.09-1.74,2.59-1.75,4.21h0c0,1.64.61,3.16,1.74,4.28,1.1,1.09,2.56,1.69,4.13,1.69.02,0,.04,0,.06,0,3.32-.03,5.82-2.65,5.82-6.09,0-3.12-2.57-5.7-5.72-5.76-.04,0-.08,0-.12,0Z"/>
  </g>
  <g>
    <path class="cls-4" d="M229.46,65.9c-3.2-.02-5.65-2.53-5.6-5.74.05-3.19,2.59-5.66,5.77-5.61,3.13.04,5.66,2.64,5.63,5.79-.02,3.16-2.55,5.58-5.81,5.56Z"/>
    <path class="cls-12" d="M229.5,66.01h-.03c-1.58,0-3.03-.61-4.1-1.7-1.07-1.09-1.64-2.57-1.62-4.16.06-3.23,2.6-5.73,5.81-5.73.03,0,.05,0,.08,0,3.19.04,5.77,2.69,5.75,5.91-.02,3.19-2.61,5.68-5.89,5.68ZM229.46,65.78h.03c3.15,0,5.63-2.39,5.65-5.44.02-3.09-2.45-5.63-5.51-5.67-.03,0-.05,0-.08,0-3.08,0-5.52,2.4-5.57,5.5-.03,1.52.52,2.94,1.55,3.99,1.02,1.04,2.42,1.62,3.93,1.63h0Z"/>
  </g>
  <g>
    <path class="cls-16" d="M242.06,87.91c-.05,2.19-1.73,3.83-3.89,3.79-2.16-.04-3.79-1.76-3.74-3.94.05-2.15,1.79-3.86,3.89-3.81,2.12.05,3.78,1.81,3.74,3.96Z"/>
    <path class="cls-12" d="M238.25,91.82s-.05,0-.08,0c-1.07-.02-2.05-.44-2.77-1.19-.73-.76-1.11-1.78-1.09-2.87.05-2.18,1.8-3.93,3.93-3.93.03,0,.06,0,.09,0,2.17.05,3.9,1.88,3.85,4.08h0c-.05,2.24-1.73,3.91-3.93,3.91ZM238.24,84.07c-2,0-3.64,1.64-3.69,3.7-.02,1.03.34,1.99,1.02,2.7.67.7,1.6,1.1,2.6,1.12.03,0,.05,0,.08,0,2.07,0,3.65-1.57,3.69-3.67.04-2.07-1.58-3.79-3.62-3.84-.03,0-.05,0-.08,0Z"/>
  </g>
  <g>
    <path class="cls-7" d="M187.03,28.31c-1.94-.06-3.3-1.54-3.28-3.56.02-1.98,1.48-3.36,3.49-3.31,1.96.05,3.4,1.58,3.33,3.52-.07,1.93-1.64,3.41-3.54,3.35Z"/>
    <path class="cls-12" d="M187.14,28.43s-.07,0-.11,0c-1.99-.06-3.42-1.61-3.4-3.68.01-.98.37-1.86,1.02-2.48.66-.63,1.57-.97,2.6-.94.99.03,1.88.42,2.52,1.1.63.67.96,1.57.92,2.54-.07,1.97-1.62,3.47-3.56,3.47ZM187.13,21.55c-.91,0-1.73.31-2.31.87-.6.58-.94,1.4-.94,2.32-.02,1.97,1.28,3.39,3.17,3.45h0s.07,0,.1,0c1.8,0,3.25-1.41,3.32-3.24.03-.9-.27-1.74-.86-2.37-.6-.64-1.43-1-2.36-1.03-.04,0-.08,0-.11,0Z"/>
  </g>
  <g>
    <path class="cls-2" d="M119.38,231.17c-1.89.01-3.32-1.4-3.29-3.24.02-1.77,1.38-3.12,3.17-3.15,1.92-.04,3.25,1.29,3.24,3.24,0,1.83-1.31,3.14-3.12,3.15Z"/>
    <path class="cls-12" d="M119.36,231.29c-.95,0-1.82-.35-2.45-.99-.62-.62-.95-1.46-.94-2.37.02-1.83,1.43-3.23,3.29-3.27.98-.02,1.8.29,2.42.89.61.61.95,1.48.95,2.47,0,1.88-1.37,3.26-3.24,3.27h-.02ZM119.34,224.9s-.05,0-.08,0c-1.72.03-3.03,1.34-3.05,3.03-.01.85.3,1.63.87,2.2.59.59,1.4.92,2.28.92h.02c1.76,0,2.99-1.26,3-3.03,0-.93-.3-1.73-.88-2.3-.55-.54-1.3-.83-2.17-.83Z"/>
  </g>
  <g>
    <path class="cls-13" d="M176.22,4.06c-.03,1.65-1.29,2.89-2.96,2.88-1.69,0-2.89-1.22-2.87-2.91.02-1.65,1.29-2.93,2.91-2.91,1.62.02,2.95,1.35,2.92,2.93Z"/>
    <path class="cls-12" d="M173.27,7.06h0c-.85,0-1.62-.31-2.16-.86-.54-.55-.84-1.32-.83-2.17,0-.84.33-1.62.91-2.19.55-.54,1.29-.84,2.08-.84.01,0,.02,0,.04,0,.83,0,1.61.34,2.19.94.56.58.86,1.33.85,2.11-.03,1.71-1.35,3-3.07,3ZM173.26,1.24c-.73,0-1.4.27-1.91.77-.53.52-.83,1.24-.84,2.02,0,.78.26,1.49.76,2,.5.51,1.21.79,2,.79h0c1.59,0,2.8-1.19,2.83-2.77h0c.01-.72-.27-1.41-.78-1.94-.54-.55-1.26-.86-2.02-.87-.01,0-.02,0-.03,0Z"/>
  </g>
  <g>
    <path class="cls-1" d="M5.33,151.99c1.62.13,2.68.96,2.73,2.58.05,1.59-.82,2.63-2.48,2.76-1.56.12-2.92-1.14-2.85-2.64.08-1.61,1.01-2.51,2.6-2.7Z"/>
    <path class="cls-12" d="M5.37,157.46c-.73,0-1.44-.29-1.97-.8-.54-.53-.83-1.25-.79-1.97.09-1.64,1.02-2.61,2.71-2.81h.01s.01,0,.01,0c1.78.14,2.79,1.1,2.84,2.7.05,1.7-.89,2.75-2.59,2.88-.07,0-.14,0-.21,0ZM5.33,152.11c-1.57.19-2.41,1.06-2.49,2.59-.03.65.23,1.31.72,1.79.53.52,1.26.79,2,.73,1.56-.12,2.42-1.08,2.37-2.64-.06-1.87-1.45-2.37-2.61-2.47Z"/>
  </g>
  <g>
    <path class="cls-11" d="M2.66,135.68c1.56.16,2.65.88,2.7,2.57.05,1.66-.92,2.59-2.52,2.76-1.44.15-2.72-1.07-2.73-2.54-.01-1.67.94-2.52,2.55-2.79Z"/>
    <path class="cls-12" d="M2.61,141.15c-.62,0-1.21-.23-1.7-.67-.57-.51-.91-1.25-.91-2.01-.01-1.63.88-2.61,2.64-2.91h.02s.02,0,.02,0c1.82.19,2.76,1.1,2.81,2.69.05,1.68-.88,2.7-2.62,2.88-.09,0-.17.01-.26.01ZM2.67,135.8c-1.65.28-2.44,1.15-2.43,2.67,0,.69.31,1.36.83,1.83.5.45,1.13.66,1.77.59,1.6-.17,2.46-1.1,2.41-2.64-.04-1.47-.89-2.28-2.58-2.46Z"/>
  </g>
  <g>
    <path class="cls-6" d="M111.79,5.33c-1.64-.05-2.65-.9-2.71-2.51-.06-1.62.9-2.63,2.52-2.7,1.62-.06,2.65.87,2.71,2.5.05,1.61-.86,2.56-2.52,2.71Z"/>
    <path class="cls-12" d="M111.8,5.45h0c-1.74-.05-2.77-1.01-2.83-2.63-.06-1.67.95-2.75,2.64-2.82.83-.03,1.54.2,2.03.66.49.46.77,1.13.79,1.96.06,1.67-.88,2.67-2.62,2.83h0ZM111.75.24s-.1,0-.14,0c-1.57.06-2.47,1.02-2.41,2.57.06,1.5.98,2.35,2.59,2.4,1.6-.15,2.45-1.07,2.4-2.59-.02-.76-.27-1.38-.72-1.79-.42-.39-1.01-.6-1.72-.6Z"/>
  </g>
  <g>
    <path class="cls-14" d="M148.51,7.44c-.11,1.21-.71,1.85-1.87,1.82-1.08-.03-1.7-.65-1.72-1.73-.02-1.15.62-1.83,1.77-1.84,1.15-.01,1.73.69,1.82,1.75Z"/>
    <path class="cls-12" d="M146.72,9.38s-.06,0-.09,0c-1.15-.03-1.81-.7-1.83-1.84,0-.6.16-1.1.49-1.44.33-.33.81-.51,1.39-.52h.03c1.13,0,1.81.66,1.91,1.85h0s0,.02,0,.02c-.12,1.28-.76,1.93-1.91,1.93ZM146.72,5.81h-.02c-.53,0-.94.15-1.23.45-.29.29-.43.73-.42,1.27.02,1.01.58,1.58,1.6,1.61,1.05.03,1.64-.53,1.75-1.7-.07-.75-.42-1.63-1.68-1.63Z"/>
  </g>
  <g>
    <path class="cls-8" d="M69.25,223.2c-1.64-.05-2.65-.9-2.71-2.51-.06-1.62.9-2.63,2.52-2.7,1.62-.06,2.65.87,2.71,2.5.05,1.61-.86,2.56-2.52,2.71Z"/>
    <path class="cls-12" d="M69.25,223.32h0c-1.74-.05-2.77-1.01-2.83-2.63-.06-1.67.95-2.75,2.64-2.82.84-.03,1.54.2,2.03.66.49.46.77,1.14.79,1.96.06,1.67-.88,2.67-2.62,2.83h0ZM69.21,218.11s-.1,0-.14,0c-1.57.06-2.47,1.02-2.41,2.57.06,1.5.98,2.35,2.59,2.4,1.6-.15,2.45-1.07,2.4-2.59-.03-.76-.27-1.38-.72-1.79-.42-.39-1.01-.6-1.72-.6Z"/>
  </g>
  <g>
    <path class="cls-3" d="M39.29,210.48c-.07.79-.46,1.21-1.22,1.19-.71-.02-1.11-.43-1.12-1.13-.01-.75.41-1.2,1.16-1.2.75,0,1.13.45,1.19,1.14Z"/>
    <path class="cls-12" d="M38.12,211.79s-.04,0-.06,0c-.77-.02-1.23-.48-1.24-1.25,0-.41.11-.74.33-.97.22-.23.55-.35.94-.35h.02c.75,0,1.22.45,1.29,1.25h0s0,.02,0,.02c-.08.85-.52,1.3-1.29,1.3ZM38.11,209.46h-.02c-.34,0-.6.1-.77.28-.18.19-.27.46-.27.8.01.64.37,1,1.01,1.02.67.01,1.03-.33,1.1-1.07-.04-.47-.26-1.02-1.06-1.02Z"/>
  </g>
  <g>
    <path class="cls-10" d="M51.85,209.31c-.07.79-.46,1.21-1.22,1.19-.71-.02-1.11-.43-1.12-1.13-.01-.75.41-1.2,1.16-1.2.75,0,1.13.45,1.19,1.14Z"/>
    <path class="cls-12" d="M50.67,210.62s-.04,0-.06,0c-.77-.02-1.23-.48-1.24-1.25,0-.41.11-.74.33-.97.22-.23.55-.35.94-.35h.02c.75,0,1.22.45,1.29,1.25h0s0,.02,0,.02c-.08.85-.52,1.3-1.29,1.3ZM50.67,208.29h-.01c-.33,0-.6.1-.77.28-.18.19-.27.46-.27.8.01.64.37,1,1.01,1.02.67.02,1.03-.33,1.1-1.07-.04-.47-.26-1.02-1.06-1.02Z"/>
  </g>
  <g>
    <path class="cls-9" d="M22.72,183.08c-.1,1.09-.64,1.67-1.69,1.64-.98-.03-1.53-.59-1.55-1.56-.02-1.04.56-1.65,1.59-1.66,1.04,0,1.56.62,1.64,1.58Z"/>
    <path class="cls-12" d="M21.1,184.85s-.05,0-.08,0c-1.04-.03-1.65-.64-1.66-1.68,0-.55.15-1,.45-1.31.3-.3.73-.47,1.27-.47h.02c1.02,0,1.64.6,1.74,1.68h0s0,.02,0,.02c-.11,1.16-.69,1.75-1.73,1.75ZM21.1,181.62h-.02c-.47,0-.84.14-1.1.4-.26.27-.39.65-.38,1.14.01.91.52,1.42,1.43,1.44.95.02,1.47-.47,1.57-1.53-.06-.67-.37-1.46-1.5-1.46Z"/>
  </g>
  <g>
    <path class="cls-15" d="M5.34,107c1.03.11,1.76.58,1.79,1.7.03,1.1-.61,1.72-1.67,1.83-.95.1-1.8-.71-1.81-1.68,0-1.1.62-1.67,1.69-1.85Z"/>
    <path class="cls-12" d="M5.3,110.65c-.42,0-.83-.16-1.15-.45-.39-.35-.61-.84-.62-1.36,0-1.1.59-1.76,1.78-1.96h.02s.02,0,.02,0c1.23.13,1.86.74,1.9,1.82.03,1.12-.61,1.83-1.77,1.95-.06,0-.11,0-.17,0ZM5.34,107.12c-1.06.18-1.58.75-1.57,1.73,0,.45.2.88.54,1.18.32.29.73.43,1.14.38,1.04-.11,1.59-.71,1.56-1.7-.03-.95-.57-1.47-1.67-1.59Z"/>
  </g>
</svg>