<?xml version="1.0" encoding="UTF-8"?>
<svg id="Calque_1" xmlns="http://www.w3.org/2000/svg" xmlns:xlink="http://www.w3.org/1999/xlink" viewBox="0 0 240.04 164.89">
  <defs>
    <style>
      .cls-1 {
        fill: none;
      }

      .cls-2 {
        fill: #8b565f;
      }

      .cls-3 {
        fill: #603b41;
      }

      .cls-4 {
        clip-path: url(#clippath);
      }
    </style>
    <clipPath id="clippath">
      <rect class="cls-1" width="240.04" height="164.89"/>
    </clipPath>
  </defs>
  <g class="cls-4">
    <g>
      <path class="cls-2" d="M99.14,33.56c-2.21,1.3-3.91,3.12-5.38,5.21-3.99,5.67-6.77,11.94-9.14,18.42-4.03,11.05-6.79,22.42-8.79,33.98-1.32,7.64-1.67,15.4-2.14,23.13-.52,8.53-1.05,17.06-1.55,25.59-.67,11.56-.68,23.15-1.65,34.7-1,12-1.92,24.01-4.29,35.84-1.68,8.39-3.94,16.63-7.11,24.62-1.34,3.38-2.59,6.77-4.23,10.02-.74,1.47-1.71,2.77-2.72,4.07-.96-.92-.34-1.69-.22-2.4.86-5.35,2.48-10.54,3.43-15.88,5.99-33.8,9.7-67.87,12.31-102.07.21-2.69.34-5.38.5-8.08,1.56-1.41,1.69-3.34,1.86-5.24.36-4.03.7-8.05.98-12.09.44-6.4.95-12.81.36-19.23.26-3.95.8-7.86,1.64-11.72,1.22-5.61,2.07-11.31,3.88-16.79,1-3.03,1.78-6.17,3.23-8.99,1.67-3.25,2.91-6.73,5.39-9.61,1.46-1.7,2.66-3.64,4.36-5.16,2.91-2.6,6.4-3.82,10.19-4.32-.04,2.04-.26,4.06-.91,6.01Z"/>
      <path class="cls-3" d="M152.55,16.64c.36.15.32.49.37.79.01.45.12.88.41,1.24.1.51.19,1.03.29,1.54.09.54.19,1.08.28,1.63.07.42.14.83.21,1.25-.15.51-.08,1.02.04,1.53.11.53.54.99.39,1.59-.07.38-.22.76-.18,1.13.33,3.25.7,6.49,1.06,9.73.26,4.67.58,9.33.77,14,.13,3.21.3,6.44.03,9.66-.04.55-.08,1.1-.19,1.64-.63,3.11-2.03,4.04-5.24,3.62-3.43-.44-6.87-.8-10.31-1.2-.62-.07-1.25-.13-1.87-.25-4.18-.82-5.61-2.34-6.43-6.5-.78-3.95-.69-7.94-.74-11.92-.03-2.82,0-5.64.02-8.46.02-1.86.85-3.66.38-5.55.41-2.9.25-5.82.42-8.72.03-.47-.32-.68-.51-1,.81-1.16.35-2.52.49-3.77.1-.92.25-1.83.46-2.71.33-1.4,1.12-2.17,2.77-2.35,4.45-.47,8.88-.29,13.32-.1.93.04,1.91.28,2.48,1.15.33.51.83.7,1.3.99-.21.36-.23.71,0,1.07Z"/>
      <path class="cls-2" d="M53.88,91.86c-2.44,1.17-4.19,3.1-5.71,5.27-2.58,3.68-4.3,7.77-5.78,11.98-3.58,10.22-5.77,20.79-7.58,31.44-2.63,15.49-4.58,31.08-7.32,46.55-2.53,14.31-5.31,28.56-9.51,42.49-2.35,7.76-5.56,15.19-8.76,22.62-2.55,5.94-5.16,11.87-7.83,17.76-1.53,3.37-3.22,6.67-5.02,10.37-.26-1.97.57-3.3,1.04-4.64,3.09-8.88,6.37-17.7,9.39-26.6,1.93-5.67,3.52-11.45,5.27-17.18,1.49-4.89,2.61-9.89,4-14.81,1.43-5.04,2.12-10.23,2.9-15.36,1-6.6,1.78-13.25,2.66-19.88.54-4.1.78-8.26,1.42-12.35.91-5.77,1.6-11.57,2.5-17.34,1.33-8.46,2.93-16.85,4.8-25.19,1.45-6.48,3.23-12.89,5.72-19.06.78-1.92,2.02-3.67,2.65-5.63.95-2.93,2.69-5.33,4.42-7.77,1.45-2.04,3.19-3.8,5.34-5.04,1.19-.69,2.65-.94,3.99-1.34.76-.23,1.54-.36,2.31-.54.27,1.54-.42,2.88-.92,4.25Z"/>
      <path class="cls-2" d="M111.13,217.2c.5-3.57,1.12-7.14,1.48-10.73.37-3.74.51-7.5.73-11.26.3-4.95.64-9.89.88-14.84.28-5.8.6-11.6.65-17.4.07-8.41.38-16.84-.61-25.2-.36-3.02.52-6.11-.62-9.05.77-3.44-.02-6.91.19-10.37.2-3.37.45-6.74.59-10.12.2-4.75,1.38-9.4,1.83-14.11.36-3.77.79-7.55.96-11.35.17-3.65.66-7.28,1.03-10.92.05-.46.31-.89.42-1.34.22-.89.57-1.77,1.64-1.69,1.03.08,1.27,1.06,1.46,1.88.62,2.64.68,5.35.77,8.05.41,11.52.74,23.05.83,34.58.05,6.61.06,13.22.13,19.83.1,9.08.34,18.17.33,27.25,0,8.54-.57,17.04-1.88,25.5-1.03,6.7-2.56,13.25-4.79,19.64-1.46,4.18-3.14,8.27-5.4,12.09-.17-.2-.13-.7-.62-.44Z"/>
      <path class="cls-3" d="M194.81,62.3c.22,2.45.13,4.93.76,7.34-.31,2.69.22,5.35.22,8.04,0,2.14.12,4.27.15,6.4.02,1.19-.07,2.37-.35,3.54-.62,2.57-1.78,3.44-4.4,3.27-3.24-.21-6.47-.44-9.71-.69-.79-.06-1.57-.19-2.35-.35-2.32-.47-3.74-1.9-4.41-4.16-.53-1.77-.68-3.58-.71-5.4-.09-4.59-.11-9.18-.17-13.77-.01-.87-.07-1.74-.11-2.6.26-2.39.32-4.77.11-7.17-.02-.24-.03-.47-.05-.71.33-.49.14-.99.05-1.5.15-1.16.3-2.31.06-3.48.3-.51.16-1.03.04-1.55.13-2,.27-3.99.4-5.99.07-.23.14-.46.2-.69.41-.53.45-1.28,1.02-1.71.35-.16.7-.32,1.05-.47.41-.08.82-.16,1.23-.24,1.11.03,2.22.13,3.3-.24.58-.02,1.16-.04,1.74-.06.98.23,1.96.14,2.94,0,1.13-.28,2.25-.01,3.34.15,2.06.31,2.72,2.09,3.5,3.7.18.84.12,1.74.64,2.49-.29.74.12,1.42.19,2.12l.13,1.88c.13.82.26,1.64.39,2.46-.38.62.04,1.2.1,1.79.05.76.11,1.52.16,2.28.1.76.2,1.52.3,2.27.07,1.01.13,2.01.2,3.02Z"/>
      <path class="cls-3" d="M99.14,33.56c.66-1.95.88-3.97.91-6.01.05-2.72,1.44-4.29,4.06-5.02,2.51-.69,5.05-.7,7.61-.67,1.29.01,2.57.16,3.86.19,1.9.04,2.99,1.06,3.64,2.78,1.04,2.75.79,5.6.74,8.42-.21,10.22-1.11,20.38-2.44,30.52-.28,2.14-1.4,3.46-3.31,4.22-3.18,1.26-6.54,1.27-9.79.71-3.5-.6-5.9-2.85-7.02-6.32-.46-1.44-.67-2.92-.89-4.42-.6-3.98.25-7.87.65-11.78.32-3.15.87-6.27,1.35-9.4.16-1.08.42-2.14.64-3.21Z"/>
      <path class="cls-3" d="M53.88,91.86c.49-1.38,1.18-2.71.92-4.25.77-1.02.72-2.32,1.14-3.46.88-2.41,2.51-3.82,5.02-4.42,2.76-.65,5.38-.44,7.97.67,1.68.72,2.11,2.19,2.43,3.75.59,6.42.08,12.83-.36,19.23-.28,4.03-.62,8.06-.98,12.09-.17,1.89-.3,3.83-1.86,5.24-4.48,1.38-8.77.64-12.86-1.33-2.4-1.15-3.43-3.4-3.78-5.95-.53-3.88-.07-7.72.41-11.57.42-3.38,1.32-6.66,1.95-9.99Z"/>
      <path class="cls-2" d="M131.73,22.36c.2.32.54.53.51,1-.17,2.91-.01,5.83-.42,8.72-2.38,2.66-3.5,5.93-4.52,9.25-1.75,5.72-2.75,11.59-3.49,17.5-.04.34.18.8-.29,1.07-.65-.13-.47-.68-.51-1.08-.5-4.26-1.08-8.51-.75-12.82.36-4.79.7-9.61,2.73-14.02,1.65-3.58,3.38-7.2,6.74-9.64Z"/>
      <g>
        <path class="cls-1" d="M203.01,93.63c.07.82.13,1.67.2,2.56.28.76.81,1.46,1.74,2.04.57.36.94,1.05,1.37,1.61,2.71,3.6,6.41,6.21,9.49,9.91,0-.74,0-1.05,0-1.36,1.55.57,1.15,2.68,3.05,3.61-1.21-2.91-2.33-5.32-4.42-7.17-.68-.79-1.36-1.58-2.05-2.37-.58-.83-1.17-1.64-2.22-1.94-1.54-1.7-2.91-3.54-4.62-5.08-.37-.33-1.16-.69-.52-1.46.37-.16.59.1.81.3,1.65,1.49,3.28,3,4.94,4.48,3.39,3.01,6.09,6.66,9.18,9.94l-.08.09.07.11c.44.41.88.83,1.31,1.24-1.01.77.02,1.45.29,1.88,1.9,3.05,3.53,6.21,4.65,9.63.86,2.59,1.73,5.18,2.59,7.76-.14,1.83.35,3.43,1.74,4.69-.13-1.89-.05-3.8-.71-5.62-.61-1.67-.59-3.59-1.92-4.98l-.59-1.99c-.47-2.38-1.62-4.49-2.56-6.69-.5-.97-1-1.95-1.51-2.92-3.53-6.71-8.35-12.45-13.64-17.8-2.15-2.18-4.49-4.18-7.03-6.53,0,.23,0,.44-.01.66.09,1.05.19,2.16.29,3.34.06.66.11,1.33.17,2.04Z"/>
        <path class="cls-1" d="M238.15,147.36c1.15-.96-.18-1.47-.05-2.16-.07.68-.52,1.35.05,2.16Z"/>
        <path class="cls-1" d="M228.94,101.37c-.22.52,0,.83.42,1.04.09-.42,0-.78-.42-1.04Z"/>
        <path class="cls-1" d="M229.41,102.47c.1.51.35.94.7,1.32.11-.63.34-1.32-.7-1.32Z"/>
        <path class="cls-1" d="M229.36,102.4s0,.04,0,.07c.02,0,.04,0,.06,0,0-.02-.02-.03-.02-.05-.01,0-.02-.01-.03-.02Z"/>
        <path class="cls-1" d="M230.14,103.82c.4.27.36.9.86,1.09-.08-.53.29-1.42-.86-1.09Z"/>
        <path class="cls-1" d="M238.67,126.08c.27.42.36.97.84,1.25l.16.07-.14-.11c-.22-.46-.2-1.07-.84-1.25-.21-.28-.09-.73-.5-.93-.18.5.26.68.47.96Z"/>
        <path class="cls-1" d="M236.47,122.85c.08.13.16.25.23.38,0-.15.03-.31,0-.45-.03-.15-.12-.29-.18-.43-.25.15-.03.34-.05.5Z"/>
        <path class="cls-1" d="M230.57,134.22s0-.04-.02-.05c0,0-.01-.02-.02-.03,0,.02,0,.05,0,.07.01,0,.03,0,.04.01Z"/>
        <path class="cls-1" d="M230.11,103.79s0,.03,0,.04c.02,0,.02,0,.04,0,0,0,0-.01-.02-.02,0,0,0-.01-.01-.02Z"/>
        <path class="cls-1" d="M230.99,137.56c.07.24.14.48.21.72.41,1.47.83,2.94,1.24,4.41,0,.27,0,.53,0,.8.24,0,.61.04.64-.04.34-1.01,1.01-2.05-.05-3.04-.3-1.11-.44-2.27-1-3.29l-.05-.1-.11.04c-.13-.81-.3-1.61-.38-2.42-.07-.77-.6-.3-.92-.41.51,1.07.32,2.23.42,3.34Z"/>
        <path class="cls-1" d="M160.14,34.15h0s0,0,0,0Z"/>
        <path class="cls-1" d="M160.88,36.06c-.07.02-.13.03-.2.06.18.69.42,1.28.49,1.9.13,1.14.45,2.15.93,3.07-.27-1.62-.64-3.29-1.23-5.03Z"/>
        <path class="cls-1" d="M165.69,68.57c.2-.56.43-1.09.65-1.64-.32.73-.61,1.42-.84,2.05.24-.03.21-.23.19-.41Z"/>
        <path class="cls-1" d="M170.76,59.91c-.26.31-.53.63-.79.96.3-.32.58-.64.79-.96Z"/>
        <path class="cls-1" d="M165.33,68.66c.06.11.13.32.17.32-.22-2.15-.45-4.24-.68-6.3.18,1.99.34,3.99.5,5.98Z"/>
        <path class="cls-1" d="M232.41,143.52s.02,0,.03,0c0,0,0-.02,0-.03-.01,0-.02,0-.03,0,0,.01,0,.03,0,.04Z"/>
        <path class="cls-1" d="M231.36,142.73c.82,1.98.55,4.18,1.18,6.56.68-2.22-.05-3.98-.13-5.78-.77.32-.43-.84-1.05-.78Z"/>
        <path class="cls-1" d="M239.86,145.17s0-.07.01-.1c-.01,0-.03-.02-.03-.02l.02.13Z"/>
        <path class="cls-1" d="M240.02,143.94c-.43.26-.22.62-.13.95.05-.37.21-.65.67-.68-.2-.12-.45-.33-.54-.27Z"/>
        <path class="cls-1" d="M239.93,145.12c0-.07-.02-.14-.04-.22,0,.05-.01.11-.02.17.03.02.06.05.06.05Z"/>
        <path class="cls-1" d="M234.78,150.24c.51.65-.32,1.33.02,1.98,1.34-.43,1.66-1.52,1.77-2.76.24-2.72-.1-5.47.44-8.18.12-.59-.08-1.26-.16-1.88-.24-2.08-.87-4.07-1.32-5.78.18,2.52.35,5.38-.48,8.18-.18.59-.41,1.39-.15,1.84.89,1.6.23,3.03-.22,4.5-.1.32-.22.58.22.69-.6-.29-.47.18-.5.48-.29.36-.77.72-.1,1.12,0,0,0-.01,0-.02.16-.06.33-.11.49-.17Z"/>
        <path class="cls-1" d="M234.29,150.42s0,0,0,0c.02.01.03,0,.05.03-.02-.01-.03-.02-.05-.03Z"/>
        <path class="cls-1" d="M228.51,137.54c.33,2.75.67,5.49.99,8.24.33,2.83.84,5.64.9,8.5.02.97.4,1.18,1.22.74-.03.27-.06.55-.09.82-.09.24-.35.55.01.7.43.17.32-.26.39-.48.52-.36.62-.94.8-1.49.57-1.12,1.2-2.22,1.33-3.51.28-.14.31-.36.22-.63-.41-.31-.5.08-.65.35-.58.61-.43,1.63-1.19,2.15-.4-.1-.43-.34-.31-.69.36-1.02.15-2.03-.13-3.03-.57-2.06-.96-4.16-1.36-6.27-.4-2.11-.86-4.22-1.59-6.25-.7.23-.59.57-.56.86Z"/>
        <path class="cls-1" d="M234.11,152.7s0-.01,0-.02c.02-.02.05-.03.08-.05-.06,0-.12,0-.16.03.03.01.06.03.09.04Z"/>
        <path class="cls-1" d="M223.28,119.14c.17-.7-.12-1.22-.54-1.94,0,.85.1,1.43.54,1.94Z"/>
        <path class="cls-1" d="M234.77,152.29s.03-.02.05-.03c0-.02,0-.03-.02-.05-.01,0-.02.01-.03.02,0,.02,0,.04,0,.06Z"/>
        <path class="cls-1" d="M223.84,128.19c.48,2.15,2.26,4.77,3.91,5.74-1.73-4.09-1.8-4.2-3.91-5.74Z"/>
        <path class="cls-1" d="M218.35,119.48c-.87-.59-.8-1.45-.95-2.29-.22-1.24-.53-2.47-.8-3.71-.12-.54-.22-1.07-.67-1.47-1.1-.99-2.17-2.02-3.25-3.03-.23-.22-.49-.44-.81-.2-.29.22-.24.54-.09.83,1.52,2.91,2.84,5.93,5.05,8.44l-.06-.03c.56.99.79,2.17,1.71,3.03.23-.59.35-1.23-.14-1.56Z"/>
        <path class="cls-1" d="M228.61,149.25c.51,2.92.14,5.91.3,8.96.78-.47.6-1.05.56-1.59-.55-6.46-1.1-12.91-1.67-19.37-.05-.62-.02-1.27-.6-1.74-1.02-.83-2.03-1.7-3.28-2.75.82,2.58,1.74,4.76,1.94,7.15.37,4.33,1.08,8.63,1.28,12.97.01.28-.07.71.43.85.14-4.47-.36-8.85-1.2-13.21,1.61,2.71,1.71,5.77,2.22,8.72Z"/>
        <path class="cls-1" d="M231,104.91s0,.06.01.08c.02,0,.04.02.07.03,0-.03-.02-.06-.03-.09-.02,0-.03-.02-.05-.03Z"/>
        <path class="cls-1" d="M226.17,127.39c-.23-.19-.7-.49-.2-.91-.15-.22.05-.35.11-.54.08-.23.09-.63-.39-.33-.01-.6.09-1.27-.82-1.29-.08-.55.29-1.4-.83-1.24.02-.57-.11-1.08-.68-1.7.12.78.2,1.29.28,1.81-.83.06-.76-.69-.91-1.12-.77-2.28-1.48-4.58-2.21-6.87-1.55.23-1.97-1.54-3.72-2.12,2.67,6.24,6.06,11.46,10.25,16.69.08-1.28-.27-1.86-.9-2.38Z"/>
        <path class="cls-1" d="M219.88,112.52c-.36.88.63,1.43.72,2.2.2-.84.5-1.7-.72-2.2Z"/>
        <path class="cls-1" d="M220.6,114.72c-.03.14-.06.29-.08.43,0,.02,0,.03.01.05,0,0,0,0,.01,0,.07-.17.07-.32.06-.47Z"/>
        <path class="cls-1" d="M234.77,152.29c-.2.11-.4.23-.59.35.27.02.67.24.59-.35Z"/>
        <path class="cls-1" d="M228.51,113.04c0-.11-.02-.23-.03-.34-.02.06-.04.12-.07.18.03.06.06.11.1.17Z"/>
        <path class="cls-1" d="M231.16,123.22c-.82-1.71-2.09-3.29-2.48-5.08-.57-2.64-1.87-4.8-3.23-7.01-.37-.6-1.17-1.14-.75-2.06.49-.17.67.17.9.5.6.84,1.22,1.67,2.55,2.46-2.33-4.65-5.23-8.35-8-12.12-.37-.2-.38-.83-.95-.78.06-.51-.23-.9-.52-1.24-4.47-5.25-9.06-10.39-14.62-14.53-.47-.35-.88-.84-1.66-.92-.25,1.98-.06,3.45,1.71,4.78,3.94,2.95,7.36,6.52,10.65,10.17,1.07,1.25,2.12,2.53,3.23,3.75.33.36.53,1.06,1.28.78.21.42.25.99.92.94.01.22-.03.47.08.63,2.15,3.48,3.51,7.39,5.9,10.75.44.61,1.02,1.27.93,2.12-.1.95.35,1.73.79,2.44,1.15,1.86,1.32,4.08,2.38,6,.52.95,1.18,1.9,1.53,2.97.36,1.09.6,2.25,1.45,3.34-.12-2.91-.93-5.45-2.1-7.89Z"/>
        <path class="cls-1" d="M222.27,98.24c-5.53-8.35-12.18-15.58-20.63-21.44-.13,2.3.81,3.6,2.38,4.82,5.6,4.32,10.64,9.25,15.16,14.7.83,1,2.07,1.26,3.09,1.93Z"/>
        <path class="cls-1" d="M232.97,107.91c-.58-1-.63-2.35-1.89-2.89,1.32,4.31,3.73,8.08,6.01,11.91-1.44-2.98-2.45-6.15-4.12-9.02Z"/>
        <path class="cls-1" d="M234.06,121.26c1.55,3.73,3.34,7.32,5.46,10.74.46.74.73,1.45.73,2.33.01-.14.02-.28.08-.38.83-1.43,1.79-2.85-.67-3.69-.12-.04-.16-.42-.17-.65-.04-.95-.69-1.63-1.2-2.27-1.85-2.32-3.21-4.89-4.37-7.59-1.38-3.2-3.3-6.2-4.04-9.64-.49-2.27-1.84-3.7-3.78-5.5.76,2.9,1.99,5,3.15,7.12,1.7,3.13,3.45,6.24,4.81,9.52Z"/>
        <path class="cls-1" d="M237.99,121.56c-.83-1.64-1.31-3.1-2.55-4.33.59,1.92,1,2.63,2.55,4.33Z"/>
        <path class="cls-1" d="M237.89,138.81c.16,1.78.09,3.58.42,5.36.33-1.24.6-2.46.57-3.73,0-.31-.26-.85.37-.9,1.05-.08.82-.81.67-1.38-.37-1.38-.61-2.84-1.29-4.07-1.48-2.69-2.59-5.53-3.85-8.32-.96-2.13-1.66-4.38-3.06-6.34.86,3.96,2.73,7.56,4.11,11.34.95,2.6,1.79,5.22,2.04,8.03Z"/>
        <path class="cls-1" d="M234.1,153.68s-.08-.05-.13-.08c-.05.1-.03.14.13.08Z"/>
        <path class="cls-1" d="M233.97,153.6s0-.04.04-.09c.03-.04.03-.15,0-.19-.03-.05-.11-.06-.17-.09,0,0-.01,0-.02,0-.1.22.02.3.15.37Z"/>
        <path class="cls-1" d="M233.82,153.23s0,0,.01,0c.17,0,.35.21.5-.03.21-.33-.03-.41-.23-.5.12.28.17.53-.28.52Z"/>
        <path class="cls-1" d="M203.68,102.36c.12,2.02.26,4.03.43,6.04-.15-2.19-.29-4.17-.43-6.04Z"/>
        <path class="cls-1" d="M200.17,73.45c.29.2.58.42.87.63-.03-.25-.06-.51-.09-.76-.21-.03-.45-.01-.78.14Z"/>
        <path class="cls-1" d="M200.8,72.1c-.09-.76-.22-1.59-.44-2.47-.34-.24-.68-.48-1-.75-.03,1.49.6,2.45,1.44,3.22Z"/>
        <path class="cls-1" d="M203.22,96.19c-.07-.89-.14-1.74-.2-2.56-.11.91-.09,1.77.2,2.56Z"/>
        <path class="cls-1" d="M202.55,88.26c-.03,1.25,0,2.34.29,3.34-.1-1.18-.2-2.29-.29-3.34Z"/>
        <path class="cls-1" d="M158.77,31.49c.04.07.09.1.13.16-.04-.06-.07-.11-.1-.17-.01,0-.02,0-.03,0Z"/>
        <path class="cls-2" d="M203.01,93.63c-.06-.71-.11-1.38-.17-2.04-.28-1-.32-2.09-.29-3.34-.49-5.38-.93-9.29-1.51-14.18-.29-.21-.27.72-.56.52.32-.15.37-.37.58-.34-.04-.32-.19-1.58-.23-1.92,0-.08-.02-.16-.03-.24-.84-.78-1.05,1.59-.12.2.32.28-.65-2.91-.32-2.67-.2-.82-.49-1.68-.94-2.6-.04-.09-.1-.17-.14-.25-1.31-.89-2.48-1.94-3.21-3.51-.21-.45-.67-.86-1.26-.96.22,2.45.13,4.93.76,7.34,1.45,2.19,1.86,4.72,2.25,7.22,1,6.35,1.62,12.75,2.12,19.16,1.43,18.51,2.22,37.06,3.79,55.56.26,3.1.53,6.19.79,9.29.87-10.14.95-20.27.94-30.4,0-6.85-.65-13.65-1.22-20.47-.05-.49-.09-.98-.12-1.47,0-.05,0-.09,0-.13-.16-2.01-.31-4.02-.43-6.04-.16-2.25-.32-4.3-.46-6.16-.29-.79-.32-1.65-.2-2.56Z"/>
        <path class="cls-2" d="M170.48,170.15c1.09-17.7-.04-35.35-1.24-53.01-.58-8.55-1.67-17.06-1.84-25.63-.14-6.94.55-13.79,2.69-20.43.83-2.57,1.82-5.09,3.66-7.15.26-2.39.32-4.77.11-7.17-.97.85-2.04,1.9-3.1,3.15-.22.33-.49.65-.79.96,0,0,0,0-.01.01-1.65,2.13-2.8,4.22-3.62,6.05-.22.55-.45,1.08-.65,1.64.02.18.06.38-.19.41-.04,0-.11-.21-.17-.32-.16-1.99-.32-3.99-.5-5.98-.76-6.84-1.56-13.16-2.33-18.94-.12-.87-.24-1.76-.39-2.67-.48-.92-.81-1.93-.93-3.07-.07-.62-.31-1.22-.49-1.9.07-.03.13-.03.2-.06-.21-.62-.46-1.26-.74-1.9,0,0,0,0,0,0-.33-.77-.7-1.55-1.15-2.34-.03-.06-.06-.1-.09-.15-.04-.06-.09-.09-.13-.16.01,0,.02,0,.03,0-1.81-3.1-3.06-3.67-4.06-5.51-.07.07-.14.16-.21.23-.07.38-.22.76-.18,1.13.33,3.25.7,6.49,1.06,9.73.9.14,1,.94,1.23,1.57.9,2.47,1.51,5.02,1.96,7.6,2.04,11.59,3.06,23.29,3.76,35.01,1.02,16.94,2.12,33.88,3.3,50.82.6,8.55,1.24,17.09.82,25.69-.2,4.08.37,8.19.52,12.29.17,4.89,1.01,9.76.6,14.67.81,1.06-.74,2.51.6,3.46.09-.32.22-.69.3-1.06,1.11-5.61,1.62-11.28,1.98-16.97Z"/>
        <path class="cls-2" d="M164.83,62.68c-.57-6.32-1.28-12.63-2.33-18.94.78,5.78,1.57,12.1,2.33,18.94Z"/>
        <path class="cls-2" d="M166.34,66.93c.82-1.83,1.96-3.92,3.62-6.05,0,0,0,0,.01-.01-.57.6-1.22,1.2-1.62,1.87-.81,1.34-1.43,2.75-2.01,4.19Z"/>
      </g>
    </g>
  </g>
</svg>