<?xml version="1.0" encoding="UTF-8"?>
<svg id="Calque_1" xmlns="http://www.w3.org/2000/svg" xmlns:xlink="http://www.w3.org/1999/xlink" viewBox="0 0 255.78 114.42">
  <defs>
    <style>
      .cls-1 {
        fill: url(#Dégradé_sans_nom_723);
      }

      .cls-2 {
        fill: none;
      }

      .cls-3 {
        fill: #8b565f;
      }

      .cls-4 {
        fill: #603b41;
      }
    </style>
    <linearGradient id="Dégradé_sans_nom_723" data-name="Dégradé sans nom 723" x1="-393.38" y1="-748.13" x2="-175.02" y2="-748.13" gradientTransform="translate(420.77 1012.73) rotate(-1.17) scale(1.18 1.29) skewX(-4.08)" gradientUnits="userSpaceOnUse">
      <stop offset="0" stop-color="#8a555e"/>
      <stop offset="1" stop-color="#f3c290"/>
    </linearGradient>
  </defs>
  <g>
    <path class="cls-1" d="M76.01,6.54c2.58.55,5.2,1.16,7.74,1.65,1.61.3,3.56.23,1.92,1.93,6.79.02,12.31.21,17.24-.03,2.34-.12,3.42-1.16,5.33-1.63,1-.24,2.56-.16,3.32-.69-1.63-.25-3.27-.51-6.03-.93,1.16-.27,1.59-.36,2.28-.52-1.49-.56-2.7-1.01-4.67-1.75,6.24.66,11.85,1.25,17.47,1.84.14.15.29.3.43.44-1.12.01-2.23.02-4.12.04,6.25,1.98,11.55,5.06,17.54,5.09-4.31.28-8.62.56-12.93.84.11.13.22.27.33.4,2.55.24,5.1.46,7.66.71.65.06,1.65.11,1.97.3,4.14,2.36,7.28,2.01,10.43,2.2,8.5.52,16.81.83,25.33,1.36,2.6.16,5.57.62,8.48,1.21.86.17,2.24,1.26,3.14,1.93,1.29.97,2.36,1.95,3.82,3.18-.88.41-2.28,1.14-3.91,1.75-.57.21-1.62.36-2.6.15-4.9-1.05-4.99.54-5.6,1.98,4.41-.27,8.82-.53,12.82-.78,1.48,1.31,2.72,2.4,4.62,4.08l-.98,3.01c2.29.23,3.97.4,5.81.58,1.5,2.63-4.08,1.18-5.74,2.09,1.83.22,3.78.56,5.46.63,6.49.28,12.59.15,19.41.82,6.13.6,10.53.09,15.1-.43,3.27-.37,8.58.69,11.63,2.31-1.27.18-2.51.35-4.43.62,1.86.36,2.75.54,4.59.89-1.93.37-3.34.64-4.75.9.22.18.45.37.67.55,2.93.05,5.87.09,9.24.15,1.14,1.91-2.93.89-4.25,1.29-1.47.45-3.52.58-5.31.85.29.24.58.49.88.73,1.57.16,3.13.32,4.7.48.1.09.19.19.29.28-2.66,0-5.31,0-7.97,0,.32.28.65.57.97.85,3.77.02,7.55.04,11.32.06.32.2.63.39.95.59-.87.43-1.74.86-3.11,1.53,4.18.78,7.65,1.43,12.16,2.27-1.54.59-2.8,1.07-4.1,1.57.37.11,1.12.33,1.88.55.17.16.35.33.52.49-2.96-.18-5.9-.35-8.87-.55-1.93-.13-4.21-.52-5.79-.4-5.13.38-10.02.95-15.52,1.49,4.82.32,9.16.6,14.09.92.14,1.19.2,1.79.29,2.51,2.26.31,4.35.6,6.44.89.16.15.33.29.49.44-.95.15-1.9.31-2.85.46l.44.35c1.55.03,3.1.07,4.57.1,1.25,1.65.02,2.12-4.59,1.29-1.47-.26-3.17-.92-4.56-1.11-1.32-.18-2.36.02-3.53.05.27.23.55.47.82.7,1.55.22,3.1.44,5.97.85-.93.98-1.57,1.65-2.41,2.53.72.22,2.16.83,3.07.89,2.5.17,4.7.04,7.15.16,1.72.08,3.67.38,5.52.81-5.07.18-10.14.36-15.22.54l.81.68c2.47.04,5.66,1.02,7.69.3,1.25-.44,4.45.15,7.06.56-2.2,2.52-4.61,4.78-13.31,3.85,2.42,1.19,4,1.96,5.93,2.91-1.42.35-2.67.65-3.91.95l.58.47c1.56.07,3.1.12,4.69.21,1.13.06,2.31.16,3.52.32.07,0,1.03.88.85.92-.73.17-1.71.2-2.68.21-.55.01-1.24-.09-2.41-.19,1.38.72,2.3,1.2,3.47,1.8-.19.17-.39.38-.66.56-1.09.74-1.88,1.29,2.36,2.84,1.32.48,1.84,2.33,2.53,3.52.39.66.38,1.25.53,1.78-2.88-1.71-5.21,1.43-8.88-2.09,1.94-.19,3.77-.38,5.6-.56-.33-.25-.67-.49-1-.74-1-.08-2.24-.32-2.96-.22-5.01.71-11.52.23-16.96.54-3.16.18-7.58.22-7.59,2.33,0,.21.96.69,1.78,1.26-.18.04-1.31.03-1.32.33-.02.72.18,1.57.99,2.41.28.3,2.77.95,3.97,1.09,3.02.35,5.87.51,9.21,1.06-2.34.51-4.69,1.03-7.33,1.61,1.99.19,3.86.37,6.14.59.44,1.24-.3,1.79-1.09,2.57-2.65,2.62-10.67.92-16.3,1.04-18.13.38-36.8-.13-55.04.6-3.08.12-5.88.36-8.4.81-1.67.3-2.62.25-4.44-1.11-.67-.5-2.17-.95-3.46-1.5-1.84,1.6-3.58,3.17-10.52,1.01q-.82-1.83,2.8-.75c-.26-.9-.52-1.78-.79-2.68-5.94-1.47.09-1.16-1.33-2.29-1.84.05-3.74.1-6.21.17.03-1.26.06-2.16.08-3.13-.75.2-1.49.41-2.24.61-.33-.14-.66-.27-.99-.41,1.24-.82,2.48-1.64,3.96-2.62-5.03-1.12-8.3-1.26-11.32-.84-1.85.25-4.17.42-6.12.4-4.07-.05-9-.76-13.28-.86-.68-.02-2.14-.73-3.33-1.15.84-.53,1.65-1.05,2.46-1.56-.37-.21-.74-.41-1.11-.62-2.99.34-5.98.69-8.96,1.03-.28-.17-.56-.35-.84-.52,2.04-.63,4.07-1.26,6.12-1.9-.51-.47-1.12-1.02-1.88-1.72-2.81.2-5.75.42-8.7.63l-1.43-1.09c1.82.18,3.63.36,4.65.46.07-.93.12-1.51.18-2.3-3.61-.35-7.3-.7-11.29-1.09.43-.52.93-1.14,1.64-2.01-1.54,0-2.46,0-3.37,0-.33-.2-.67-.41-1-.61,2-.39,4.01-.78,6.01-1.16-.2-.14-.39-.27-.59-.41-1.03.1-2.07.21-3.6.36-.19-1.22-.35-2.21-.6-3.78-5.32-.15-10.1-.28-14.89-.41-.35-.28-.71-.55-1.06-.83,1.17-.21,2.33-.42,3.73-.68-.59-.41-1.2-.83-2.13-1.47,9.28-.88-26.8-1.08-17.67-1.94-.17-.13,18.87-2.06,18.69-2.19-7.54-.36,10.81.32,3.4.09-6.76-.21-13.26-.19-19.87-.27-1.98-.02-3.84.08-5.96-.08-.82-.06-2.4-.66-3.26-1.13-.62-.34-.92-.95-.85-1.29.23-1.17.68-2.27.19-3.85-2.04.22-4.09.43-6.2.65-.88-.36-2.03-.83-3.35-1.36,1.8-.41,3.84-.87,6.58-1.49-2.04-.1-3.16-.16-4.28-.21-.21-.15-.43-.3-.64-.44,1.02-.24,2.05-.48,3.08-.72-1.22-.54-2.67-1.17-4.18-1.84-1.77.1-3.55.2-6.02.33.28-.48.37-.64.57-.99-2.4-.33-4.54-.63-6.24-.86,1.11-.85,2.37-1.82,3.78-2.9-3.6-.43-6.31-.75-9.01-1.07-.27-.21-.54-.43-.8-.64,1.28-.35,2.57-.71,4.4-1.21-2.61-.37-4.33-.62-6.45-.92-.31-.85-.57-1.56-.91-2.5-2.29.2-4.2.36-6.1.52-.35-.25-.71-.5-1.06-.75,12.7-1.2,25.39-2.41,36.71-3.48,1.18-1.36,1.98-2.28,2.77-3.2.21.17.42.33.64.5,2.46.08,4.92.16,8.01.27-3.27-1.07-5.31-1.85-7.29-2.34-2.11-.52-4.17-.75-6.53-1.16-.31-1.68,4.2-.23,5.53-1.13-2.72-.39-5.44-.79-8.15-1.18-1.38-3.18-.85-3.52,3.23-2.46.35-.45.61-.88,1-1.25.39-.38.91-.71,1.67-1.3-4.09-.19-7.53-.35-10.96-.5-.44-.35-.88-.71-1.32-1.06,1.93-.25,3.85-.5,6.51-.85-2.9-.81-5.05-1.41-7.39-2.06,0-.93,0-2.07.01-3.48-4.87.03-9.23.05-13.59.07l-1.17-.81c1.55-.22,3.24-.35,4.62-.67,1.53-.35,6.07.79,3.7-1.63-.29-.29,2.03-.5,3.37-.58,7.95-.47,15.96-.9,23.95-1.34.32-.02.56-.1,1.33-.25-5.15-1.68-9.84-3.16-14.48-4.75-1.11-.38-2.56-1.2-2.93-1.7-.37-.5.25-.92.71-1.25.82-.58,1.77-1.11,2.82-1.59,1.17-.53,2.51-.97,4.81-1.01.04.25.08.51.15,1.02,9.22-.16,18.14-.32,27.06-.48.14.09.28.18.41.27-.82.31-1.64.62-2.92,1.1,5.2.3,9.48.54,13.99.8.44.57.85,1.1,1.53,1.96-4.04-.03-8.44-.07-12.83-.1.12.12.23.25.35.37,2.73.25,5.46.5,8.19.75.7.24,1.39.48,2.09.73Z"/>
    <path class="cls-4" d="M155.01,102.54c-.97,0-1.85-.31-3.16-1.29-.44-.33-1.27-.64-2.15-.98-.4-.15-.81-.31-1.2-.47-1.86,1.62-3.65,3.13-10.59.98l-.06-.02-.03-.06c-.39-.87-.59-1.3-.37-1.55.26-.3.99-.1,3.09.52l-.69-2.34c-2.47-.62-2.69-.89-2.7-1.13-.01-.27.34-.39.79-.54.28-.1.75-.26.77-.4,0-.04-.04-.11-.13-.19l-6.3.17.08-3.09-2.1.57-1.28-.53,3.9-2.58c-4.47-.97-7.76-1.2-10.93-.77-1.95.27-4.31.42-6.14.4-2.09-.03-4.46-.23-6.76-.43-2.19-.19-4.45-.39-6.53-.43-.49-.01-1.31-.34-2.18-.7-.4-.16-.81-.33-1.19-.46l-.28-.1,2.51-1.59-.86-.48-8.97,1.03-1.15-.72,6.18-1.92-1.64-1.51-8.69.63-1.88-1.43,5.01.5.15-2.01-11.41-1.1,1.62-1.98h-3.11s-1.35-.82-1.35-.82l6.04-1.17-.26-.18-3.69.37-.6-3.8-14.82-.41-1.35-1.06,3.7-.67-2.17-1.49.4-.04c.56-.05.9-.1,1.11-.14-1.32-.21-6.06-.4-9.96-.56-9.47-.38-10.43-.5-10.44-.83,0-.17.07-.27,1.63-.42h0c.39-.11,2.02-.29,9.34-1.09,2.74-.3,5.72-.62,7.55-.84-3.02-.05-5.99-.07-8.91-.09-1.91-.01-3.82-.03-5.74-.05-.63,0-1.26,0-1.88,0-1.3.01-2.65.03-4.09-.09-.83-.07-2.42-.66-3.32-1.15-.65-.35-1-1.03-.92-1.45.04-.22.09-.43.14-.64.21-.9.43-1.82.09-3.02l-6.12.65-3.81-1.55,6.01-1.36-3.27-.16-.95-.65,2.98-.7-3.75-1.65-6.25.35.6-1.04-6.37-.88,3.77-2.9-8.7-1.03-1.06-.84,4-1.1-5.85-.83-.9-2.48-6.04.51-1.43-1,.39-.04,36.65-3.48,2.83-3.26.71.56,6.96.23c-.71-.24-1.36-.46-1.97-.66-1.7-.58-3.05-1.04-4.35-1.36-1.45-.36-2.87-.58-4.39-.81-.69-.11-1.4-.22-2.13-.35l-.1-.02-.02-.1c-.05-.26,0-.47.14-.63.4-.47,1.46-.42,2.68-.37.85.03,1.73.07,2.32-.08l-7.72-1.12-.03-.07c-.62-1.42-.92-2.4-.5-2.88.46-.54,1.69-.34,3.81.2.09-.11.17-.22.24-.33.22-.3.43-.59.71-.86.27-.26.59-.5,1-.8.12-.09.24-.18.37-.27l-10.61-.49-1.62-1.3,6.15-.8-6.81-1.9v-3.44s-13.47.07-13.47.07l-1.51-1.05.37-.05c.48-.07.96-.13,1.45-.18,1.08-.13,2.2-.27,3.16-.49.47-.11,1.18-.08,1.93-.06.96.04,2.16.08,2.32-.28.05-.11.03-.39-.61-1.05-.06-.06-.08-.15-.05-.22.04-.1.16-.4,3.51-.6,5.44-.32,11.01-.63,16.39-.93,2.52-.14,5.04-.28,7.56-.42.19-.01.35-.05.62-.1.05,0,.09-.02.15-.03-1.23-.4-2.43-.79-3.61-1.17-3.59-1.16-6.98-2.25-10.35-3.41-1.07-.37-2.58-1.2-3-1.75-.12-.16-.16-.32-.14-.49.06-.38.48-.68.84-.94l.04-.03c.81-.58,1.77-1.12,2.85-1.6C34.25.52,35.61.05,38,0h.13s.15,1.02.15,1.02l26.97-.48.69.45-2.55.96,13.37.76,1.75,2.24-12.79-.1.08.08,8.14.74,2.12.73c.77.16,1.54.33,2.31.5,1.79.39,3.64.8,5.42,1.14.25.05.51.09.76.12.91.13,1.7.25,1.86.74.1.28-.03.62-.41,1.06,1.96,0,3.79.03,5.57.05,4.25.05,7.92.09,11.34-.08,1.4-.07,2.33-.47,3.31-.9.61-.27,1.24-.54,2-.73.36-.09.79-.13,1.24-.18.59-.06,1.19-.13,1.65-.3l-6.34-.98,2.55-.58-5.28-1.97,18.65,1.96.71.72-3.58.04c1.62.54,3.19,1.15,4.71,1.75,4.03,1.57,7.83,3.05,11.95,3.07v.29s-12.64.82-12.64.82l.11.13,2.05.19c1.85.17,3.7.34,5.55.52.12.01.25.02.39.03.63.05,1.35.11,1.64.28,3.41,1.95,6.13,2.03,8.76,2.11.54.02,1.07.03,1.61.07,4.15.25,8.31.46,12.34.66,4.24.21,8.62.43,12.98.7,2.39.15,5.25.56,8.5,1.21.83.17,2.08,1.11,3,1.81l.21.15c.89.67,1.66,1.33,2.56,2.1.4.34.82.7,1.27,1.08l.17.15-.21.1c-.22.1-.47.22-.75.36-.86.42-1.94.94-3.17,1.4-.6.23-1.69.37-2.68.16-4.33-.93-4.77.19-5.28,1.49-.02.06-.05.12-.07.19l12.64-.77.05.04,4.69,4.14-.96,2.93,5.71.57.04.06c.3.51.35.92.17,1.23-.38.67-1.73.69-3.17.71-.81.01-1.63.03-2.24.16.38.05.76.1,1.14.15,1.25.17,2.55.35,3.69.4,2.22.1,4.44.15,6.58.19,4.1.09,8.35.18,12.83.62,6.02.59,10.31.11,14.86-.4l.21-.02c3.29-.37,8.65.7,11.72,2.32l.39.21-4.02.56,4.48.87-5.19.99.39.32,9.27.15.04.07c.24.4.28.71.14.95-.31.53-1.44.5-2.63.47-.7-.02-1.43-.04-1.84.08-1.04.31-2.37.48-3.66.63-.46.06-.91.11-1.36.17l.59.5,4.71.48.57.57h-7.94s.64.56.64.56l11.31.06,1.2.75-2.96,1.45,12.24,2.28-4.18,1.6,1.53.46.81.77-3.08-.19c-2.06-.12-4.12-.25-6.19-.39-.66-.04-1.38-.12-2.07-.19-1.31-.14-2.67-.28-3.69-.21-3.68.27-7.23.64-10.98,1.03-.92.1-1.86.19-2.81.29l12.47.82.29,2.52,6.37.88.75.67-2.83.46.15.12,4.59.1.04.06c.47.62.6,1.09.39,1.42-.39.64-1.97.67-5.13.1-.69-.12-1.43-.33-2.15-.54-.82-.23-1.67-.47-2.41-.57-.9-.12-1.69-.07-2.45-.01-.23.02-.45.03-.68.04l.51.43,6.2.88-2.45,2.57c.16.05.34.12.53.18.74.26,1.66.59,2.29.63,1.36.09,2.65.1,3.9.1,1.05,0,2.13,0,3.25.06,1.68.08,3.6.36,5.55.82l1.06.25-15.93.57.49.4c.87.02,1.84.15,2.77.28,1.74.24,3.53.48,4.82.03,1.14-.4,3.73.01,6.24.41l1.15.18-.17.2c-2.33,2.68-4.77,4.67-12.63,3.98l5.57,2.73-4.02.98.32.26c.46.02.91.04,1.37.06,1.07.04,2.17.09,3.27.15,1.23.07,2.38.17,3.53.32.14.02.99.79,1,1.03,0,.09-.05.16-.13.18-.73.17-1.7.2-2.71.22-.37,0-.78-.03-1.36-.09-.11-.01-.22-.02-.34-.03l3.01,1.56-.16.14c-.06.05-.12.1-.18.16-.14.13-.3.28-.5.41-.41.28-.83.56-.8.83.05.43,1.07,1,3.13,1.75,1.04.38,1.6,1.56,2.1,2.6.17.36.33.69.51.99.28.48.37.94.44,1.33.03.17.06.32.1.48l.09.35-.31-.18c-1.16-.69-2.24-.56-3.38-.42-1.65.2-3.34.41-5.53-1.69l-.23-.22,5.54-.55-.67-.49c-.31-.03-.63-.07-.96-.11-.71-.09-1.45-.18-1.93-.11-3.02.43-6.63.43-10.14.42-2.29,0-4.67,0-6.83.12-.26.01-.53.03-.8.04-2.96.15-6.64.34-6.65,2.15.04.08.49.36.85.58.27.17.58.36.87.56l.28.19-.33.07s-.14.02-.26.03c-.58.04-.89.1-.94.18-.02.86.29,1.61.95,2.3.24.25,2.67.91,3.88,1.05,1.04.12,2.07.22,3.08.32,1.94.19,3.95.38,6.14.74l.74.12-7.17,1.57,5.32.52.03.09c.43,1.22-.19,1.82-.91,2.51l-.21.21c-1.91,1.89-6.54,1.59-11.01,1.29-1.83-.12-3.73-.25-5.38-.21-7.55.16-15.33.16-22.86.16-10.59,0-21.53,0-32.17.43-3.38.14-6.05.39-8.38.81-.51.09-.96.15-1.39.15ZM148.44,99.47l.08.03c.41.17.85.34,1.27.5.9.34,1.75.66,2.22,1.01,1.82,1.36,2.72,1.37,4.33,1.09,2.35-.42,5.03-.68,8.42-.81,10.65-.43,21.6-.43,32.19-.43,7.53,0,15.31,0,22.85-.16,1.66-.03,3.57.09,5.41.21,4.41.29,8.97.59,10.79-1.21l.21-.21c.68-.66,1.18-1.14.87-2.12l-6.96-.67,7.48-1.64c-1.89-.29-3.65-.46-5.36-.62-1-.1-2.04-.2-3.08-.32-1.16-.14-3.72-.79-4.05-1.14-.71-.74-1.05-1.57-1.03-2.52,0-.31.46-.39,1.04-.44-.18-.11-.35-.22-.52-.32-.7-.43-.99-.62-.99-.83,0-2.08,3.84-2.28,6.92-2.44.27-.01.54-.03.8-.04,2.17-.12,4.55-.12,6.85-.12,3.48,0,7.09,0,10.09-.42.51-.07,1.27.02,2,.11.34.04.68.08.99.11h.04s1.33.99,1.33.99l-5.66.57c1.97,1.77,3.54,1.58,5.06,1.39,1.05-.13,2.13-.26,3.27.3-.01-.06-.02-.12-.03-.18-.07-.39-.15-.8-.41-1.24-.18-.31-.34-.65-.52-1.01-.5-1.04-1.02-2.11-1.94-2.45-2.83-1.04-3.26-1.59-3.31-1.99-.05-.45.42-.77.93-1.11.18-.12.32-.25.46-.38l.03-.02-3.92-2.04.72.06c.41.03.76.07,1.07.1.57.06.98.1,1.33.09.92-.02,1.8-.05,2.49-.18-.17-.21-.58-.59-.71-.67-1.13-.14-2.27-.24-3.48-.31-1.1-.06-2.2-.11-3.27-.15-.47-.02-.95-.04-1.42-.06h-.05s-.84-.69-.84-.69l3.81-.93-6.31-3.09.81.09c8.16.87,10.7-1.01,13.01-3.61l-.63-.1c-2.35-.38-5.02-.8-6.09-.43-1.35.47-3.18.22-4.95-.02-.95-.13-1.92-.26-2.79-.28h-.05s-1.15-.95-1.15-.95l14.44-.51c-1.54-.31-3.03-.5-4.37-.56-1.11-.05-2.19-.06-3.24-.06-1.25,0-2.55,0-3.92-.1-.67-.05-1.61-.38-2.37-.64-.28-.1-.54-.19-.74-.25l-.23-.07,2.38-2.5-5.73-.81-1.14-.97h.38c.35-.02.7-.04,1.04-.07.78-.06,1.58-.11,2.51.01.76.1,1.61.35,2.44.58.71.2,1.45.41,2.12.53,2.9.52,4.52.53,4.83.03.13-.21.02-.56-.34-1.04l-4.55-.1-.73-.59,2.87-.47-.23-.21-6.51-.9-.28-2.5-13.97-.91v-.29c1.55-.15,3.06-.31,4.53-.46,3.76-.39,7.3-.76,10.99-1.03,1.05-.08,2.42.07,3.75.21.69.07,1.4.15,2.06.19,2.07.14,4.13.26,6.19.39l2.28.14-.21-.2-2.26-.66,4.02-1.54-12.09-2.26,3.27-1.61-.69-.43-11.33-.06-1.3-1.14h8s0,0,0,0l-4.69-.48-1.16-.97.32-.05c.55-.08,1.11-.15,1.68-.22,1.27-.16,2.59-.32,3.61-.62.45-.14,1.17-.12,1.93-.09,1.01.03,2.15.06,2.37-.33.08-.13.04-.33-.1-.59l-9.21-.15-.95-.78,4.32-.82-4.7-.92,4.83-.68c-3.07-1.49-8.04-2.43-11.14-2.09l-.21.02c-4.56.51-8.87,1-14.92.4-4.47-.44-8.71-.53-12.81-.62-2.14-.05-4.36-.1-6.59-.19-1.15-.05-2.46-.23-3.72-.4-.59-.08-1.18-.16-1.75-.23l-.45-.05.39-.22c.64-.35,1.81-.37,2.93-.39,1.29-.02,2.62-.04,2.92-.56.12-.2.07-.5-.14-.88l-5.92-.59,1.01-3.09-4.5-3.98-12.99.79.09-.22c.06-.13.11-.26.16-.39.53-1.37,1.04-2.65,5.61-1.67.93.2,1.96.06,2.52-.15,1.21-.46,2.28-.97,3.14-1.39.2-.1.38-.18.55-.26-.39-.33-.75-.64-1.1-.94-.89-.76-1.66-1.42-2.54-2.09l-.21-.16c-.89-.67-2.12-1.6-2.88-1.75-3.23-.66-6.08-1.06-8.46-1.21-4.36-.27-8.74-.49-12.98-.7-4.03-.2-8.2-.41-12.35-.66-.53-.03-1.06-.05-1.6-.07-2.67-.08-5.42-.17-8.89-2.15-.24-.14-.98-.2-1.52-.24-.14-.01-.27-.02-.39-.03-1.86-.18-3.7-.35-5.55-.52l-2.17-.2-.55-.66,11-.72c-3.34-.41-6.51-1.65-9.83-2.94-1.78-.69-3.61-1.41-5.53-2.01l-.86-.27,4.69-.05-.16-.17-16.29-1.71,4.05,1.52-2.02.46,5.64.87-.29.21c-.52.36-1.36.45-2.17.54-.44.05-.86.09-1.2.18-.73.18-1.35.45-1.95.71-.96.42-1.95.85-3.41.92-3.43.17-7.1.13-11.36.08-1.88-.02-3.82-.04-5.89-.05h-.34s.24-.24.24-.24c.55-.57.61-.87.56-1.01-.11-.32-.88-.44-1.63-.55-.26-.04-.52-.08-.77-.12-1.79-.34-3.64-.75-5.43-1.14-.77-.17-1.55-.34-2.32-.51h-.02s-2.09-.73-2.09-.73l-8.21-.74-.62-.65,12.87.1-1.3-1.67-14.61-.83,3.29-1.23-.13-.09-27.14.49-.15-1.02c-2.25.06-3.56.51-4.63,1-1.06.48-2,1.01-2.8,1.57l-.04.03c-.3.22-.68.48-.72.75-.01.09.01.18.08.27.35.46,1.74,1.27,2.86,1.66,3.37,1.16,6.76,2.25,10.34,3.41,1.35.44,2.72.88,4.13,1.34l.54.17-.55.1c-.29.06-.51.1-.68.14-.29.06-.46.1-.67.11-2.52.14-5.04.28-7.56.42-5.38.3-10.95.6-16.39.93-1.79.11-2.91.28-3.21.4.55.58.75.99.61,1.31-.24.53-1.38.49-2.59.45-.7-.03-1.42-.05-1.85.05-.97.22-2.09.36-3.19.49-.36.04-.72.09-1.08.13l.83.57,13.69-.07v3.51s7.96,2.22,7.96,2.22l-6.88.9,1.02.82,11.31.52-.31.24c-.26.2-.49.37-.69.52-.4.29-.71.53-.97.77-.26.25-.46.53-.67.83-.1.14-.2.27-.31.41l-.06.08-.09-.02c-1.9-.5-3.25-.74-3.61-.32-.26.31-.12,1.04.52,2.51l8.44,1.22-.31.21c-.61.42-1.8.37-2.95.32-1.05-.04-2.14-.09-2.45.27-.07.08-.1.17-.09.29.7.12,1.37.22,2.02.33,1.52.24,2.95.46,4.41.82,1.32.32,2.67.78,4.38,1.37.86.29,1.82.62,2.92.98l.97.32-9.07-.3-.57-.44-2.72,3.14h-.06S.81,40.47.81,40.47l.7.49,6.16-.52.92,2.53,7.05,1.01-4.79,1.32.55.44,9.32,1.1-3.79,2.91,6.12.85-.55.95,5.78-.32,4.6,2.03-3.19.75.34.23,5.29.26-7.16,1.62,2.89,1.17,6.28-.66.03.11c.41,1.33.18,2.32-.05,3.28-.05.21-.1.42-.14.63-.05.27.22.83.78,1.14.87.48,2.43,1.05,3.2,1.11,1.43.11,2.77.1,4.07.09.62,0,1.25-.01,1.88,0,1.92.02,3.83.04,5.74.05,2.86.02,5.79.04,8.75.09.02-.02.06-.03.15-.04v-.02s.04,0,.1,0c.5-.03,1.89.02,5.87.18.49.02.78.03.96.05.06,0,.08,0,.09,0h0c.16.04.16.07.15.15,0,.07,0,.1-.16.12v.02s-.08,0-.16-.01c-.26,0-.74,0-1.62-.04-1.14-.04-2.28-.07-3.42-.09-.43.12-2.16.31-9.32,1.09-3.72.41-7.88.86-9.02,1.02l.04.03-.38.04c-.52.05-.85.09-1.06.13,1.3.21,5.82.39,9.86.55,9.49.38,10.53.51,10.54.84,0,.16-.06.26-1.28.39l2.09,1.44-3.76.68.77.6,14.96.41.59,3.77,3.52-.35.91.63-5.98,1.16.65.4h3.64s-1.66,2.03-1.66,2.03l11.16,1.08-.2,2.59-4.29-.43.98.75,8.71-.63,2.11,1.93-6.06,1.88.53.33,8.96-1.03,1.37.76-2.42,1.53c.3.11.62.24.92.37.81.33,1.65.67,2.08.68,2.09.05,4.35.24,6.55.43,2.29.2,4.65.4,6.73.43,1.83.02,4.17-.13,6.1-.4,3.29-.45,6.69-.2,11.37.84l.33.07-4.01,2.66.69.29,2.38-.65-.08,3.17,6.11-.17.04.03c.21.17.3.33.27.5-.05.31-.49.46-.96.62-.21.07-.56.19-.6.27.03.06.34.32,2.56.87l.08.02.88,3.01-.25-.08c-1.74-.52-2.89-.86-3.05-.69-.09.1.14.62.39,1.18,6.77,2.1,8.48.61,10.29-.97l.1-.08Z"/>
  </g>
  <path class="cls-3" d="M138.27,59.3c.23.84.68,1.55,1.24,2.21,1.51,1.8,3.32,3.26,5.24,4.59,3.27,2.28,6.75,4.17,10.37,5.83,2.39,1.1,4.9,1.89,7.39,2.71,2.75.91,5.5,1.83,8.25,2.73,3.73,1.23,7.53,2.24,11.22,3.56,3.84,1.37,7.7,2.72,11.37,4.52,2.6,1.28,5.11,2.74,7.45,4.47.99.73,1.99,1.44,2.92,2.26.42.37.76.8,1.1,1.25-.38.24-.58-.04-.81-.14-1.68-.75-3.24-1.73-4.91-2.5-10.55-4.9-21.39-9.08-32.37-12.91-.86-.3-1.73-.58-2.6-.87-.33-.63-.95-.84-1.55-1.06-1.29-.47-2.58-.93-3.87-1.37-2.06-.7-4.11-1.42-6.27-1.79-1.27-.43-2.51-.95-3.7-1.56-1.73-.89-3.52-1.66-5.16-2.73-.91-.59-1.87-1.12-2.67-1.84-.92-.83-1.95-1.54-2.68-2.6-.43-.62-.96-1.19-1.31-1.88-.6-1.18-.69-2.43-.53-3.72.67.19,1.31.44,1.89.82Z"/>
  <path class="cls-4" d="M137.37,40.33c.08-.1.19-.06.29-.05.15.04.3.04.44-.03.18.01.35.03.53.04.19.02.37.03.56.05.14.01.28.03.43.04.16.09.33.11.5.12.18,0,.37-.09.56.01.12.05.23.14.35.16,1.09.17,2.19.34,3.28.5,1.55.32,3.11.62,4.65.97,1.06.24,2.13.46,3.17.83.18.06.35.12.52.2.96.48,1.15,1.02.73,2.03-.44,1.09-.86,2.18-1.29,3.27-.08.2-.15.4-.25.59-.63,1.3-1.26,1.63-2.69,1.54-1.36-.09-2.66-.46-3.97-.79-.93-.23-1.85-.49-2.77-.74-.61-.17-1.13-.6-1.79-.61-.91-.39-1.88-.59-2.82-.9-.15-.05-.25.04-.37.08-.31-.37-.8-.34-1.19-.49-.29-.11-.58-.24-.85-.39-.43-.23-.61-.56-.53-1.11.23-1.5.68-2.93,1.12-4.37.09-.3.26-.6.59-.71.19-.06.3-.21.44-.34.1.1.21.14.35.09Z"/>
  <path class="cls-3" d="M153.44,79.19c.17.9.65,1.64,1.23,2.33.98,1.16,2.17,2.09,3.42,2.93,3.04,2.06,6.31,3.7,9.64,5.22,4.84,2.21,9.78,4.2,14.61,6.44,4.47,2.07,8.89,4.22,13.09,6.81,2.34,1.44,4.49,3.14,6.65,4.84,1.73,1.35,3.44,2.72,5.14,4.11.97.79,1.9,1.63,2.96,2.55-.67-.08-1.03-.47-1.43-.74-2.64-1.78-5.24-3.62-7.9-5.39-1.69-1.12-3.44-2.15-5.17-3.22-1.47-.91-3.01-1.71-4.5-2.6-1.53-.91-3.17-1.58-4.78-2.28-2.08-.9-4.19-1.73-6.28-2.6-1.3-.53-2.64-.97-3.92-1.54-1.81-.8-3.65-1.53-5.46-2.33-2.65-1.17-5.26-2.43-7.83-3.76-2-1.04-3.94-2.18-5.75-3.53-.56-.42-1.03-.98-1.61-1.36-.88-.57-1.51-1.34-2.16-2.13-.54-.65-.97-1.38-1.19-2.19-.12-.45-.08-.95-.09-1.43,0-.27.01-.54.02-.8.53.05.91.39,1.31.67Z"/>
  <path class="cls-3" d="M199.47,71.34c-1.13-.48-2.24-.99-3.39-1.42-1.19-.45-2.41-.82-3.62-1.22-1.59-.53-3.18-1.07-4.79-1.58-1.88-.59-3.75-1.21-5.64-1.73-2.75-.75-5.48-1.59-8.31-1.99-1.02-.15-1.96-.7-3.02-.58-1.06-.55-2.26-.6-3.38-.96-1.09-.36-2.17-.73-3.26-1.07-1.54-.48-2.96-1.27-4.46-1.83-1.2-.45-2.4-.91-3.63-1.3-1.18-.37-2.33-.85-3.49-1.29-.15-.06-.26-.18-.4-.25-.27-.15-.53-.34-.41-.68.11-.33.46-.32.74-.31.92.03,1.81.24,2.7.45,3.81.87,7.62,1.76,11.4,2.74,2.17.56,4.34,1.13,6.51,1.68,2.98.76,5.98,1.47,8.96,2.26,2.8.74,5.53,1.67,8.19,2.83,2.1.92,4.12,1.99,6.02,3.28,1.24.84,2.44,1.75,3.49,2.82-.08.04-.24-.02-.2.16Z"/>
  <path class="cls-4" d="M156,30.46c.82.14,1.63.39,2.47.39.85.34,1.77.39,2.65.63.7.18,1.41.33,2.11.51.39.1.77.23,1.13.42.79.43.97.88.69,1.72-.35,1.04-.71,2.08-1.07,3.12-.09.25-.2.5-.32.74-.36.72-.95,1.06-1.75,1.08-.62.02-1.23-.09-1.83-.24-1.51-.37-3.02-.76-4.52-1.14-.29-.07-.57-.13-.86-.19-.76-.29-1.54-.52-2.34-.66-.08-.02-.16-.03-.24-.05-.13-.15-.31-.13-.49-.15-.37-.15-.73-.3-1.13-.32-.14-.14-.32-.14-.5-.15-.64-.22-1.29-.43-1.93-.65-.07-.04-.14-.08-.21-.13-.14-.18-.38-.26-.47-.48-.02-.13-.04-.26-.06-.39,0-.14.02-.28.03-.43.11-.36.24-.72.21-1.1.04-.19.09-.38.13-.57.16-.3.22-.63.26-.96,0-.39.19-.74.34-1.08.28-.65.92-.71,1.52-.83.29.01.58.11.87,0,.22.16.47.08.71.12l.63.12c.28.03.56.06.84.09.17.18.4.09.6.12.25.05.51.1.76.14.26.03.51.07.77.1.34.07.67.13,1.01.2Z"/>
  <path class="cls-4" d="M138.27,59.3c-.58-.39-1.22-.63-1.89-.82-.89-.25-1.28-.84-1.29-1.76,0-.88.21-1.72.44-2.55.12-.42.27-.83.4-1.25.18-.62.61-.89,1.23-.95.99-.1,1.9.23,2.82.49,3.33.96,6.58,2.14,9.79,3.45.68.28,1.01.76,1.09,1.45.14,1.15-.15,2.25-.62,3.27-.5,1.1-1.45,1.69-2.68,1.75-.51.03-1.02-.04-1.52-.09-1.36-.15-2.56-.76-3.8-1.24-1-.38-1.98-.83-2.96-1.26-.34-.15-.66-.32-1-.49Z"/>
  <path class="cls-4" d="M153.44,79.19c-.41-.28-.79-.62-1.31-.67-.27-.34-.7-.44-1.03-.68-.71-.5-1.03-1.15-1.01-2.03.03-.96.32-1.8.91-2.55.38-.49.9-.5,1.44-.47,2.15.37,4.21,1.09,6.27,1.79,1.3.44,2.59.9,3.87,1.37.61.22,1.23.43,1.55,1.06.06,1.59-.55,2.93-1.55,4.1-.58.69-1.41.83-2.28.72-1.32-.16-2.54-.65-3.75-1.14-1.07-.43-2.07-1.01-3.1-1.51Z"/>
  <path class="cls-3" d="M137.43,47.65c.12-.04.22-.13.37-.08.94.31,1.91.51,2.82.9.66,1.01,1.64,1.66,2.64,2.29,1.72,1.07,3.56,1.91,5.43,2.67.11.04.28.01.32.19-.1.2-.26.09-.4.07-1.44-.21-2.88-.39-4.26-.87-1.54-.54-3.09-1.07-4.36-2.11-1.03-.85-2.07-1.73-2.57-3.05Z"/>
  <path class="cls-3" d="M191.35,59.32c-.17-.03-.31-.08-.43-.27-.33-.5-.59-1.03-.65-1.63-.04-.42-.05-.85-.26-1.25-.02-.05-.07-.11-.06-.14.3-.67.21-1.46.64-2.09.32-.47.74-.8,1.25-1.04.21-.1.41-.11.61-.02.27.13.32.46.12.67-.05.06-.13.1-.2.14-1.25.61-1.46,1.68-1.3,2.91.09.72.36,1.38.66,2.04.17.38,0,.67-.38.68Z"/>
  <path class="cls-3" d="M194.43,72.52c.26-.03.42.11.48.33.07.24-.07.41-.29.5-.32.13-.64.26-.92.47-.91.68-1.01,1.65-.95,2.66.03.53.17,1.06.24,1.59.06.49-.05.67-.39.71-.3.03-.52-.22-.56-.61-.11-1.04-.25-2.07-.16-3.12.09-1.11,1.46-2.52,2.55-2.52Z"/>
  <path class="cls-3" d="M198.43,94.7c-.19,1.22-.73,2.19-1.88,2.75-.48.24-.83.17-1.04-.22-.19-.34-.1-.69.36-.93.68-.36,1.06-.88,1.18-1.63.02-.13.07-.26.13-.38.17-.33.5-.47.8-.35.34.13.49.39.44.75Z"/>
  <path class="cls-3" d="M191.75,95.37c0,.4-.19.65-.54.73-.33.07-.61-.09-.71-.39-.35-1.04-.66-2.1-.81-3.19-.05-.36.17-.62.53-.7.33-.07.62.08.71.39.3,1.06.56,2.13.83,3.16Z"/>
  <path class="cls-4" d="M153.46,30.01c-.2-.03-.43.05-.6-.12.63-.66,1.33-1.24,2.03-1.84.86-.73,1.72-1.45,2.59-2.15.54-.44,1.11-.83,1.65-1.26.46-.37.94-.71,1.28-1.21.16-.23.38-.37.71-.26-.57.9-1.33,1.62-2.14,2.28-1.74,1.44-3.5,2.85-5.25,4.27-.1.08-.18.2-.27.29Z"/>
  <path class="cls-4" d="M155,30.26c-.26-.03-.51-.07-.77-.1.24-.54.71-.88,1.15-1.19,1.35-.97,2.54-2.15,3.9-3.1.56-.39,2.98-2.04,3.55-2.41.17.27-1.83,1.66-1.95,1.75-.92.76-1.84,1.53-2.77,2.28-1.08.87-2.13,1.8-3.12,2.77Z"/>
  <path class="cls-4" d="M150.69,29.56c-.29.11-.58,0-.87,0,2.01-1.54,4.01-3.08,6.45-3.9-.62.77-1.57,1.12-2.26,1.79,0,0,.02-.01.02-.01-1.17.62-2.27,1.36-3.35,2.13Z"/>
  <path class="cls-4" d="M174.41,20.79c-1.7.47-3.44.82-5.13,1.35-1.23.38-3.76,1.86-4.9,2.45-.04-.05.11-.17.07-.22.8-.7,2.84-2.15,3.74-2.72.05.07.1.15.15.22.09.03-.19.23.03.14,1.15-.47,2.39-.7,3.52-1.22,0,.16.11.16.23.14.41-.11.81-.22,1.22-.33.35.11.76-.09,1.08.19Z"/>
  <g>
    <path class="cls-3" d="M71.67,57.75c1.88,2.95,4.58,4.88,7.76,6.19,2.31.95,4.72,1.45,7.21,1.65,4.13.34,8.17-.14,12.14-1.3,1.75-.51,3.45-.73,5.19-.01.61.25,1.28.34,2.01.52-.73.12-1.36-.06-2-.07-.29,0-.63-.21-.97-.29-1.2-.27-2.35.01-3.45.42-1.21.45-2.44.83-3.68,1.15-3.07.78-6.2,1.05-9.36.88-1.1-.06-2.19-.24-3.28-.41-.94-.15-1.89-.29-2.8-.59-1.81-.6-3.54-1.39-5.04-2.6-.84-.68-1.62-1.45-2.29-2.3-.61-.78-1.1-1.65-1.49-2.56-.1-.24-.05-.45.05-.67h0Z"/>
    <g>
      <path class="cls-4" d="M67.66,69.56c-.97-1.13-1.12-2.43-.84-3.81.03-.17.12-.38.25-.47.48-.35.48-.86.49-1.36.03-1.17.57-2.04,1.53-2.68.41-.27.89-.33,1.35-.45.3-.08.4.14.33.39-.1.34-.33.61-.7.68-.19.04-.34.16-.52.21-.98.28-1.29.99-1.25,1.98,1.09-.82,2.16-1.61,3.69-1.69-.41.78-1.03,1.14-1.65,1.42-.56.25-1.04.65-1.67.77-.14.03-.29.15-.39.26-.36.42-.46.99-.83,1.44-.25.29-.19.82-.13,1.26.1.69.15,1.38.33,2.06Z"/>
      <path class="cls-4" d="M61.94,62.06c-.28-.56-.11-.9.26-1.31.45-.49,1.03-.7,1.56-1.06-.33-.17-.63.15-.97.02.16-.34.52-.45.79-.52,1.32-.34,2.66-.63,4.01-.09.12.05.27.05.3.21.04.23.19.22.36.18.34-.08.63.08.93.17.1.03.19.13.16.24-.02.12-.13.15-.24.16-.29.03-.59.04-.88.12-1.88.48-3.41,1.44-4.3,3.24-.04.08-.05.22-.19.23-.18-1.7.51-2.48,3.52-3.95-1.2-.48-4.21.83-5.32,2.36Z"/>
      <path class="cls-4" d="M74.14,64.16c-.05.35-.38.44-.5.76.65-.09,1.13-.61,1.83-.58.01.45-.17.79-.52.99-.48.27-.98.52-1.49.72-.33.13-.61.3-.87.53-.99.9-1.62,2.04-2.21,3.21-.22.45-.25.97-.25,1.48-.27-.04-.29-.17-.29-.36.04-1.95.76-3.62,2.02-5.09.12-.14.2-.31.3-.47.43-.7,1.1-1.1,1.98-1.2ZM73.31,65.06c.05.07.11.09.18.04.02-.01.03-.06.02-.07-.07-.05-.13-.01-.17.04-.04.04-.1.08-.04.15,0,0,.06,0,.07,0,.05-.07.02-.12-.05-.16Z"/>
      <path class="cls-4" d="M99.14,69.2c.14-1.18-.66-1.97-.95-3.03.8.3,1.02.88,1.2,1.47.33,1.13.29,2.28.14,3.43-.04.29-.04.6-.14.87-.13.37-.35.7-.59,1.18,0-.56.04-.95.21-1.36.31-.77,0-1.5-.43-2.15-.54-.82-1.35-1.32-2.17-1.8-.11-.07-.23-.13-.35-.18-.23-.1-.47-.24-.39-.51.09-.3.36-.44.7-.38.6.11,1.09.42,1.52.82.49.46.91.97,1.26,1.64Z"/>
      <path class="cls-4" d="M66.45,67.63c-.38-.37-.56-.86-.65-1.36-.17-.98-.26-1.96-.14-2.96.11-.96.6-1.68,1.27-2.28.33-.29.79-.43,1.17-.67.2-.12.4-.16.61-.09.12.04.26.12.31.23.08.15-.09.21-.18.3-.39.37-.75.77-1.15,1.13-1.29,1.15-1.61,2.61-1.36,4.24.05.34.08.69.23,1.02.06.13.12.31-.11.45Z"/>
      <path class="cls-4" d="M96.84,74.19c-.05-.53-.13-1.04-.12-1.54.01-.79-.38-1.47-.58-2.2-.1-.38-.42-.73-.72-1.03-.53-.53-.9-1.2-1.49-1.68-.12-.1-.18-.27-.09-.44,2.03.55,4.54,4.25,3,6.88Z"/>
      <path class="cls-4" d="M75.81,74.14c-.46-1.43-.46-2.82-.26-4.17.13-.92.65-1.8,1.29-2.53.26-.3.58-.55.86-.83.07-.07.1-.19.23-.19.15,0,.31-.17.44,0,.08.12.04.26-.03.38-.14.22-.29.45-.45.66-.16.21-.31.44-.51.62-.99.88-1.31,2.03-1.4,3.29-.05.7-.1,1.39-.05,2.09.01.2.07.41-.11.69Z"/>
      <path class="cls-4" d="M85.37,67.59c-1.65,1.84-2.05,4-1.63,6.53-.46-.47-.6-.93-.63-1.29-.07-.9-.25-1.79-.24-2.71.01-.99.63-1.52,1.26-2.05.3-.25.71-.49,1.23-.49Z"/>
      <path class="cls-4" d="M82.34,74.07c-1.06-1.62-1.69-3.33-1.32-5.28.12-.64.62-1.16,1.36-1.27-.73,2.19-.83,4.37-.03,6.55Z"/>
      <path class="cls-4" d="M87.28,74.05c-.72-.6-1.01-1.45-1.47-2.21-.21-.35-.11-.73-.17-1.08-.1-.69.02-1.36.21-2.03.08-.3.28-.49.47-.7.09-.11.18-.2.34-.13.14.07.16.22.15.35-.05.45-.11.91-.19,1.36-.23,1.28-.13,2.5.47,3.67.08.16.13.35.18.53.02.07.01.16.02.25Z"/>
      <path class="cls-4" d="M76.47,72.71c-.01-.67.39-1.14.67-1.6.77-1.26,1.64-2.47,2.47-3.7.06-.09.09-.22.17-.26.14-.07.31-.15.46-.07.13.07.13.22.13.36,0,.28-.13.51-.27.74-.44.71-1.01,1.31-1.54,1.95-.63.77-1.26,1.52-1.83,2.33-.06.08-.15.15-.27.25Z"/>
      <path class="cls-4" d="M93.19,73.78c-.15-.24-.12-.51-.16-.77-.17-1.36-.74-2.61-1.13-3.9-.13-.42-.2-.85-.29-1.28-.03-.13-.05-.28.14-.32.12-.03.19.07.25.16.58.8,1.02,1.69,1.21,2.65.18.94.27,1.91.2,2.88-.02.2.03.44-.22.57Z"/>
      <path class="cls-4" d="M73.63,70.99c-.12-1.13-.08-2.24.45-3.25.63-1.2,1.99-2,3.29-1.93-.47.67-1.15,1.07-1.78,1.48-1.06.69-1.58,1.67-1.78,2.86-.05.28-.12.56-.18.85Z"/>
      <path class="cls-4" d="M89.48,68.24c.57,1.89,1.78,3.5,2.19,5.43.05.25.18.49.07.78-.2-.19-.4-.37-.46-.63-.3-1.39-1.11-2.56-1.62-3.86-.22-.56-.31-1.13-.18-1.73Z"/>
      <path class="cls-4" d="M90.41,72.52c-.72-.62-1.18-1.4-1.8-2.04-.53-.55-.72-1.25-.68-2.02.01-.24.14-.4.27-.55.09-.09.35-.16.36.09.07,1.57.96,2.79,1.76,4.04.07.11.11.24.16.36,0,.01-.02.04-.07.12Z"/>
      <path class="cls-4" d="M68.91,66.8c-.06-.34-.04-.61.12-.87.92-1.46,2.22-2.38,3.89-2.78.07-.02.15,0,.28.02-.26.39-.54.72-.97.84-1.54.4-2.53,1.45-3.32,2.79Z"/>
      <path class="cls-4" d="M102.16,68.52c-.31-.88-.96-1.41-1.72-1.84-.18-.1-.3-.27-.49-.36-.14-.07-.34-.29-.22-.54.12-.25.37-.17.55-.12.38.11.75.26,1.04.56.5.54.81,1.18.98,1.88.03.12.05.26-.14.42Z"/>
    </g>
  </g>
  <path class="cls-4" d="M140.48,39.64c-.37-3.08-.38-5.55.49-6.75.03.04.1.09.09.11-.6,1.59-.43,3.23-.38,4.87.02.6,0,1.19-.19,1.77Z"/>
  <path class="cls-4" d="M139.19,40.34c-.19-.02-.37-.03-.56-.05-.39-1.4-.68-2.82-.46-4.28.08-.56.12-1.16.5-1.69.22.33.07.63.02.89-.32,1.66-.15,3.26.43,4.83.04.1.04.21.06.31Z"/>
  <path class="cls-4" d="M138.1,40.25c-.14.06-.29.06-.44.03-.96-1.96-.64-3.96-.15-5.97.25.04.16.24.14.37-.07.51-.17,1.01-.24,1.51-.18,1.42.04,2.78.69,4.07Z"/>
  <path class="cls-4" d="M140.12,40.5c-.18,0-.35-.03-.5-.12-.11-.98-.34-1.96-.31-2.96.01-.46-.03-.92.03-1.37.1-.71.16-1.44.45-2.13,0,.26.04.52,0,.78-.23,1.31-.13,2.63-.11,3.94.01.65.34,1.23.45,1.86Z"/>
  <path class="cls-4" d="M152.03,29.8c-.21-.04-.42-.08-.63-.12.56-.58,1.24-1,1.89-1.47.29-.21.68-.35.74-.78,0,0-.02.01-.02.01.26.17.42-.06.61-.15.33-.16.6-.45.96-.55.06.06.12.12.18.17-.69.5-1.39.99-2.08,1.5-.58.43-1.14.88-1.66,1.39Z"/>
  <path class="cls-4" d="M137.37,40.33c-.14.05-.25,0-.35-.09-.4-.44-.37-1-.44-1.54-.06-.45-.15-.9-.18-1.35-.03-.48,0-.96,0-1.63.25.49.25.85.26,1.18.03,1.06.3,2.06.67,3.05.05.13.1.25.05.39Z"/>
  <path class="cls-3" d="M163.86,25.8c.16-.24.37-.4.64-.5.05.05.09.1.14.14-.17.23-.4.37-.65.48-.04-.04-.08-.09-.13-.13Z"/>
  <path class="cls-3" d="M163.32,26.22c.16-.17.31-.35.55-.42.04.04.08.09.13.13-.15.19-.33.34-.56.42-.04-.04-.08-.08-.11-.13Z"/>
  <path class="cls-4" d="M155.59,26.74s.03-.05.05-.06c.19-.09.42-.41.56-.16.14.24-.23.31-.43.39-.06-.06-.12-.12-.18-.17Z"/>
  <path class="cls-3" d="M162.38,27.06c.08-.15.18-.26.35-.29.03.03.07.06.11.09-.09.14-.19.26-.36.3-.03-.03-.06-.06-.09-.1Z"/>
  <path class="cls-3" d="M160.59,28.67c.08-.14.18-.25.35-.29.03.03.07.06.1.09-.07.15-.18.27-.35.3-.03-.03-.06-.07-.1-.1Z"/>
  <path class="cls-4" d="M161.57,24.64s-.03.04-.05.06c-.13.09-.28.36-.42.12-.11-.19.16-.27.32-.33.05.05.1.1.15.15Z"/>
  <path class="cls-3" d="M149.54,53.68s-.07.07-.1.08c-.08.02-.16.02-.21-.06,0,0,.04-.04.06-.04.07,0,.15.01.25.02Z"/>
  <path class="cls-3" d="M161.62,27.76c.02-.14.14-.19.24-.26.03.04.06.08.1.11-.02.14-.14.2-.24.26-.03-.04-.06-.08-.1-.12Z"/>
  <path class="cls-3" d="M163.07,26.46c.03-.14.15-.18.25-.25.04.04.08.08.11.13-.03.14-.15.19-.26.24-.03-.04-.07-.08-.1-.12Z"/>
  <path class="cls-4" d="M165.17,23.87c.02-.15.15-.18.26-.24.04.04.08.09.12.13-.03.15-.16.17-.28.2-.03-.03-.07-.07-.1-.1Z"/>
  <path class="cls-4" d="M162.55,23.69c.07-.02.14-.05.21-.07,0,.02.02.04.01.04-.08.12-.16.06-.25.01,0,0,.02.02.02.02Z"/>
  <path class="cls-4" d="M161.82,24.41c-.04.13-.15.17-.25.23-.05-.05-.1-.1-.15-.15.05-.12.17-.16.29-.22.04.04.08.09.12.13Z"/>
  <path class="cls-4" d="M165.05,24.08c-.02.07-.05.14-.13.14-.03,0-.06-.06-.09-.09.05-.04.11-.08.16-.12.02.02.04.04.06.06Z"/>
  <path class="cls-4" d="M162.01,24.27c-.03.09-.09.13-.18.14-.04-.04-.08-.09-.12-.13.05-.07.11-.11.2-.1.03.03.06.06.1.1Z"/>
  <path class="cls-3" d="M162.9,26.61c.02-.1.07-.15.17-.15.03.04.07.08.1.12-.05.05-.11.09-.16.14-.04-.04-.08-.08-.11-.11Z"/>
  <path class="cls-3" d="M162.73,26.77c.01-.1.07-.15.17-.16.04.04.08.08.11.11l-.18.13s-.07-.06-.11-.09Z"/>
  <path class="cls-3" d="M162.02,27.36c.06-.05.12-.1.18-.15.03.03.07.07.1.1,0,.1-.07.15-.17.15-.03-.03-.07-.07-.1-.1Z"/>
  <path class="cls-3" d="M161.86,27.5c.05-.05.11-.1.16-.14.04.03.07.07.1.1,0,.11-.07.15-.17.16-.03-.04-.07-.07-.1-.11Z"/>
  <path class="cls-3" d="M100.72,38.08c.09,0,.15.06.17.15-.05.04-.1.08-.14.12-.05-.04-.09-.08-.14-.13.04-.05.07-.1.11-.15Z"/>
  <polygon class="cls-3" points="88.38 42.08 88.38 42.12 88.35 42.1 88.38 42.08"/>
  <path class="cls-3" d="M161.46,27.92c.01-.1.07-.15.17-.16.03.04.06.08.1.12-.05.05-.1.1-.16.14-.04-.03-.07-.07-.11-.1Z"/>
  <path class="cls-4" d="M192.05,27.73c.09.02.15.07.17.16-.05.05-.1.1-.15.15-.05-.05-.1-.1-.16-.15.05-.05.09-.11.14-.16Z"/>
  <path class="cls-3" d="M161.29,28.07c.01-.1.07-.15.17-.15.04.03.07.07.11.1-.06.05-.11.1-.17.15-.04-.03-.07-.07-.11-.1Z"/>
  <path class="cls-4" d="M192.21,27.89c.09.02.15.07.17.16-.05.05-.1.09-.15.14-.05-.05-.11-.1-.16-.15.05-.05.1-.1.15-.15Z"/>
  <path class="cls-3" d="M161.12,28.23c.01-.1.07-.15.17-.15.04.03.07.07.11.1-.06.05-.12.1-.18.15-.03-.03-.07-.07-.1-.1Z"/>
  <path class="cls-4" d="M168.18,21.65c.05-.03.1-.06.15-.1.08.07.15.14.23.22-.08.03-.15.07-.23.1-.05-.07-.1-.15-.15-.22Z"/>
  <path class="cls-3" d="M162.2,27.21c.06-.05.12-.1.18-.15.03.03.06.06.09.1-.01.1-.07.15-.17.15-.03-.03-.07-.07-.1-.1Z"/>
  <path class="cls-3" d="M160.94,28.38c.02-.1.08-.15.17-.15.03.03.07.07.1.1-.03.08-.08.13-.17.15-.03-.03-.07-.06-.1-.09Z"/>
  <path class="cls-3" d="M160.41,28.82c.06-.05.12-.1.19-.15.03.03.06.07.1.1-.01.1-.07.15-.17.15-.04-.04-.08-.07-.11-.11Z"/>
  <path class="cls-3" d="M160.25,28.95c.05-.05.11-.09.16-.14.04.03.08.07.11.11-.01.1-.07.15-.17.15-.04-.04-.07-.08-.1-.12Z"/>
  <path class="cls-3" d="M71.67,57.75s-.1.04-.15.06c-.02-.09,0-.1.07-.04.01,0,.05-.01.08-.02,0,0,0,0,0,0Z"/>
  <path class="cls-4" d="M164.83,23.05c.02-.08.09-.14.15-.1.14.09,0,.15-.04.22-.04-.04-.07-.08-.11-.12Z"/>
  <path class="cls-4" d="M164.94,23.17c-.06.05-.12.1-.17.15-.04-.04-.08-.08-.11-.11.02-.1.08-.15.18-.15.04.04.07.08.11.12Z"/>
  <path class="cls-4" d="M165.75,23.68c-.05.08-.12.11-.2.1-.04-.04-.08-.09-.12-.13.05-.08.11-.11.2-.11.04.05.08.1.12.15Z"/>
  <path class="cls-4" d="M162.45,23.9c-.07-.12.05-.15.1-.21,0,0-.02-.02-.03-.02.17.15.05.19-.09.21v.02Z"/>
  <path class="cls-4" d="M162.43,23.88c0,.08-.03.14-.12.14-.02,0-.05-.05-.04-.06.03-.08.1-.09.18-.06,0,0-.01-.02-.01-.02Z"/>
  <path class="cls-4" d="M164.99,24.02c0-.12.08-.15.18-.15.03.03.07.07.1.1-.04.1-.11.13-.22.11-.02-.02-.04-.04-.06-.06Z"/>
  <path class="cls-4" d="M161.91,24.17c.06-.09.14-.19.23-.06.04.05-.06.13-.13.15-.03-.03-.06-.06-.1-.1Z"/>
  <path class="cls-4" d="M146.2,36.74c-.22.63-.44,1.25-.47,1.92-.17,0-.22-.06-.23-.19-.09-1.78.41-3.38,1.44-4.82.06-.09.03.22-.11.15,0,0,.31-.45.31-.45.29-.21-.09.12-.01.05.14-.14.29-.27.44-.41.03.39-.1.74-.21,1.1-.21.23-.25.45-.46.79,0,0,.02-.02.02-.02-.33.02-.07-.3,0,0,0,0-.32.49-.32.49-.07.13-.07.07-.19.35,0,0,.01-.03.01-.03-.13.17-.29.41-.32.67v-.02c.23-.45-.06.17-.04.27.05.05.09.09.14.14Z"/>
  <path class="cls-4" d="M152.13,36.79c-.75.6-1.54,1.08-2.55.97.75-.26,1.49-.54,2.07-1.11.17.02.35,0,.49.15Z"/>
  <path class="cls-4" d="M149.34,37.31s-.12-.08-.11-.08c.21-.39.45-.76.78-1.06.18,0,.36,0,.5.15-.37.36-.68.77-1.17.99Z"/>
  <path class="cls-4" d="M146.78,37.14c.13-.23.96-1.52,1.09-1.75.07.04.14.08.21.13-.15.23-1.61,2.71-1.85,2.88-.04-.04.59-1.23.55-1.26Z"/>
  <path class="cls-4" d="M147.34,34.53c.24-.01-.11.15,0,0,.02.13.04.26.06.39-.13.13-.25.26-.38.38-.04-.04-.08-.08-.12-.11.07-.09.12-.18.18-.26l.26-.4Z"/>
  <path class="cls-4" d="M173.33,20.6c.36-.13,3.04-.52,3.41-.5.01.07.02.13.03.21-.27.02-.53.14-.8.16-.1-.06-1.8.63-2.64.14Z"/>
  <path class="cls-3" d="M80.81,58.17c-.12-.23.05-.19.18-.18.08.2-.1.14-.18.18Z"/>
  <path class="cls-3" d="M82.03,59.4c-.06.03-.13.06-.19.09-.02-.02-.05-.05-.07-.07,0-.11.06-.15.15-.17.04.05.07.1.11.14Z"/>
  <path class="cls-3" d="M81.84,59.5c-.06.08-.14.18-.22.05-.03-.05.07-.11.15-.12.02.02.05.05.07.07Z"/>
  <path class="cls-3" d="M92.22,60.16s-.12-.1-.05-.16c.06-.06.12-.01.17.05-.04.04-.07.07-.11.11Z"/>
  <path class="cls-3" d="M167.13,30.03c-.01.27-.16.27-.35.17.06-.17.13-.32.35-.17Z"/>
  <path class="cls-3" d="M167.29,29.86c.13.24-.02.21-.18.18-.1-.22.05-.18.18-.18Z"/>
  <path class="cls-3" d="M166.81,30.18c.07.19-.04.2-.18.18-.06-.18.07-.17.18-.18Z"/>
  <path class="cls-3" d="M172.76,25.01c.38-.16.72-.47,1.18-.3.15.21-.02.3-.17.31-.34.01-.67.08-1.01,0Z"/>
  <path class="cls-3" d="M189.4,26.19c.07.1.14.19.21.29-.32.11-.49,0-.51-.34.1.02.2.03.3.05Z"/>
  <path class="cls-3" d="M188.94,25.98c.12,0,.19.06.18.18-.15.03-.31.07-.18-.18Z"/>
  <path class="cls-3" d="M178.92,25.98c.17,0,.33,0,.5,0,.02.06.09.13-.03.18-.31.13-.61.26-.96.15,0-.06,0-.12,0-.18.17-.02.39.08.49-.16Z"/>
  <path class="cls-3" d="M179.4,25.82c.11,0,.23-.09.34,0,.04.09.07.17-.05.24-.12.07-.22.08-.29-.07,0-.06,0-.12,0-.17Z"/>
  <g>
    <path class="cls-4" d="M90.01,30.34c-.18.34.18.39.32.51,1.34,1.21,2.74,2.34,4.17,3.44.87.67,1.75,1.35,2.56,2.1.7.64,1.5,1.11,2.62,1.32-.55.19-.89.08-1.24-.04-.75-.26-1.38-.72-1.99-1.21-1.55-1.25-3.11-2.5-4.64-3.77-2.22-1.83-4.45-3.65-6.83-5.26-1.12-.76-2.32-1.35-3.56-1.89-.71-.31-1.44-.6-2.16-.89-.19-.08-.38-.23-.6-.08.07-.04.08-.1.02-.15-.01-.01-.06,0-.07,0-.04.08.01.11.07.13.49.73,1.31.95,2.03,1.31,3.5,1.74,6.55,4.11,9.38,6.78.47.44.96.87,1.43,1.3.09.08.24.14.15.35-.27-.03-.46-.22-.67-.36-1.15-.76-2.2-1.64-3.19-2.59-2.79-2.69-6.02-4.69-9.61-6.05-1.14-.43-2.26-.97-3.47-1.21-.16-.03-.34-.07-.28-.29.05-.16.21-.12.34-.1.48.08.95.21,1.52.18-.38-.43-.85-.69-1.32-.72-.74-.05-1.48-.09-2.25,0,.47.13.94.26,1.42.39.12.03.3.03.28.21-.03.23-.25.13-.43.18.3.34.85.28,1.08.68-.19.29-.41.12-.59.08-.39-.09-.77-.23-1.16-.34-.13-.04-.28-.13-.39-.09-.91.28-1.71-.23-2.57-.34-.13-.03-.27-.05-.4-.08-.28-.03-.55-.06-.83-.09-.51-.29-1.07-.25-1.63-.25.17.01.28.12.41.21-.12.04-.27,0-.37.12.03.18.19.16.31.16.78.01,1.52.46,2.27.39.83-.09,1.57.36,2.4.23.5-.08.96.29,1.47.37,1.05.18,2.06.53,3.11.7.43.07.77.37,1.15.56,1.89.95,3.74,1.97,5.5,3.14.48.32.92.69,1.4,1,.1.06.16.17.11.27-.07.16-.22.13-.34.05-.67-.43-1.35-.87-2.02-1.31-2.43-1.6-5-2.9-7.79-3.72-1.35-.42-2.74-.63-4.14-.71-.35-.01-.69-.02-1.04-.03-.06-.05-.12-.13-.19-.13-1.05,0-2.13-.3-3.15.23-.06.03-.15-.02-.23-.03-.08-.09.01-.29-.25-.28-.77.02-1.55-.04-2.32.08-.16.02-.32.08-.48.12.35.24.69.2,1.03.22.69.04,1.35-.17,2.03-.15.54.36,1.11.37,1.7.17.98.06,1.95.12,2.93.17.58.15,1.17.11,1.76.14.23.01.42,0,.63.22.25.26.71.36,1.04.31.39-.05.65.16.98.2.79.38,1.59.75,2.38,1.13,1.32.62,2.49,1.49,3.73,2.25.1.06.15.15.14.27-.19.18-.34.02-.49-.07-1-.63-2.11-1.03-3.1-1.68-.76-.51-1.62-.81-2.51-1.03-.34-.08-.64-.19-.91-.42-.31-.25-.33-.23-.96-.14.9.08,1.44.97,2.29.87.17.31-.48.16-.08.39,1.21.68,2.33,1.55,3.62,2.07.56.22,1,.6,1.52.86,1.22.61,2.46,1.2,3.68,1.81.84.42,1.71.75,2.6,1.02.14.04.29.17.44,0-.09.06-.07.11,0,.15.04.02.09,0,.14,0-.06-.05-.11-.09-.17-.14-1.05-.63-2.16-1.18-3.06-2.05-.09-.09-.18-.19-.26-.29.04-.06.09-.12.13-.18.57.32,1.14.63,1.72.94.1.06.21.17.33,0l-.03-.02c-.11.39.27.39.45.5,1.46.85,2.94,1.66,4.39,2.52,1.18.7,2.42,1.29,3.64,1.89,1.4.68,2.86,1.22,4.39,1.55.31.07.62.13.93.33-.28-.02-.57-.02-.85-.07-2.14-.36-4.13-1.17-6.05-2.16-1.32-.67-2.62-1.37-3.93-2.06-.26-.14-.52-.26-.83-.3-1.67-.21-3.23-.79-4.74-1.5-.9-.42-1.8-.84-2.69-1.28-.52-.26-1.14-.29-1.61-.65-.96-.73-2.08-1.19-3.09-1.84-.51-.33-1.08-.55-1.54-.95-.19-.16-.42-.22-.67-.19-.46.04-.91.03-1.37.08-.27.03-.51.09-.76-.12-.16-.13-.35-.04-.52.09.35.25.77.18,1.14.3l-.02-.02c.81.42,1.71.58,2.58.79.3.07.6.14,1.07.25-.36.16-.56.11-.75.08-2.55-.39-5.11-.74-7.5-1.81-.07-.03-.16-.11-.22-.09-.88.28-1.75-.19-2.65.06,1.17.32,2.39.28,3.54.7-.77-.06-1.53-.12-2.3-.18-.48-.04-.96-.08-1.44-.14-1.03-.13-2.03-.08-3,.37-.25.12-.53.28-.81,0-.06-.06-.26-.02-.38.01-1.49.41-3.04.61-4.48,1.23-.14.06-.29.11-.42.19-.35.2-.64.41-1.12.44-.59.03-1.08.53-1.57.9-.18-.18-.06-.29.04-.42.18-.24.44-.38.68-.52.93-.51,1.58-1.38,2.52-1.89.05.05.1.09.16.14-.11.16-.22.33-.34.5.88-.25,1.49-.62,1.79-1.11-.43-.02-.77.19-1.14.31-.05-.05-.1-.11-.14-.16,1.25-1.25,2.2-2.76,3.51-3.96,1.25-1.14,2.54-2.23,3.97-3.16.08-.05.14-.05.22-.05.33-.02-.02.17.07.22-.08.02-.16.03-.22.07-.07.06-.19.14-.1.25.09.12.19,0,.27-.04.07-.04.12-.11.18-.16,1.56-1.43,3.51-1.92,5.51-2.31.1-.02.21,0,.32.01.04,0,.08.06.1.11.06.09-.01.17-.08.19-.15.06-.3.1-.46.14-1.02.25-2.03.53-2.98.98-.26.12-.55.2-.74.45-.08,0-.19.05-.16.11.07.14.17.04.25,0,1.25-.56,2.51-1.08,3.89-1.29,1.35-.21,2.68-.05,4.01.11.56.07,1.11.2,1.66.33.43.1.8-.23,1.24-.09-.89-.44-1.87-.47-2.8-.69.15-.11.04-.15-.05-.19,2.47.19,4.77,1,7.04,1.93,1.42.58,2.8,1.25,4.2,1.89.09.04.22.05.24.24-.45.08-.78-.21-1.15-.35-.06-.06-.13-.1-.22-.07-.08-.13-.21-.2-.31-.07-.04.06.12.13.22.15.02.11.1.14.2.13.01.07.05.09.12.07h.02c-.32.18-.59.02-.82-.16-1.27-.95-2.79-1.33-4.22-1.92-.38-.16-.83-.09-1.21-.33-.02.05-.03.11-.05.16.43.21.86.43,1.28.64.25.12.72.21.6.5-.15.34-.49-.01-.73-.1-.9-.34-1.77-.79-2.7-1.04-1.96-.54-3.97-.97-6.01-.68-1.2.17-2.45.32-3.53,1.02,1.91-.44,3.82-.79,5.78-.59-.34.27-.72.3-1.14.3.07-.17.16-.21.28-.18.51.15,1.02.32,1.53.46.27.07.52.1.52.48,0,.21.21.2.37.2,1.96-.07,3.73.66,5.47,1.43,1.5.66,2.94,1.45,4.25,2.44.11.08.2.17.3.26-.05.05-.09.09-.14.14-.44-.15-.77-.47-1.14-.73-.84-.58-1.79-.93-2.68-1.42-.1-.05-.2-.05-.3.03h.02c-.04-.17-.2-.22-.3-.19-1.05.23-2.02-.18-3.03-.34.33-.35.23-.84-.22-.98-.39-.13-.77-.09-1.14.1-1.34-.33-2.69-.58-4.06-.75-.15-.09-.31-.16-.5-.04.19.08.36.07.52.02,0,.19.16.16.28.2,1.22.34,2.46.58,3.71.75.22.12.53.1.64.39-.63.09-1.19-.28-1.83-.29.06.16.2.15.29.18,1.96.54,3.81,1.35,5.68,2.12,2.85,1.16,5.49,2.7,7.88,4.65.11.09.2.35.43.16l-.02-.03c0,.06-.11.1-.02.19.09.08.13,0,.2-.01l-.02-.02c-.12.24.01.22.18.18l-.02-.02c.16.41.31.53.66.5l-.03-.02ZM63.6,21.88c.09-.07.23-.15.08-.26-.09-.07-.16.05-.21.12-.08.02-.17.09-.14.15.07.13.18.05.27,0ZM61.12,25.05c.09-.03.26-.02.13-.2.51-.06.87-.55,1.41-.52l.06.05c.22.1.42-.02.59-.12.92-.51,1.91-.82,3.08-.99-.21.04-.29.07-.36.07-1.18-.05-2.36-.11-3.42.56-.14.09-.3.09-.46.1-1.07.09-1.94.55-2.49,1.52.26.07.36-.39.65-.2.02.16-.18.18-.19.32-.24.05-.4.23-.56.4-.23.18-.47.35-.71.53.2.15.35.01.49.05.04.12-.04.4.21.29.4-.17.81-.24,1.23-.3,1.54-.22,3.08-.44,4.62-.65.14-.02.35.04.32-.26-.8-.05-1.6-.01-2.4.04-.54.03-1.08.12-1.61.07-.56-.05-1.05.21-1.59.19.04-.08.07-.15.11-.23.21-.05.34-.21.48-.35.06-.05.12-.11.17-.16.08-.07.17-.15.25-.22ZM69.64,25.84c-.09-.38-.21.12-.31-.01-.16.24-.36.06-.46-.03-.19-.16-.36-.16-.69-.04,2.04.92,4.05,1.56,6.19,1.79-.61-.53-1.17-1.12-2.1-1.02-.42.05-.86-.01-1.28-.04-.14,0-.34.04-.38-.19.16-.11.38.06.55-.11-.19-.09-.37-.08-.54-.03-.05-.37-.29-.19-.48-.17-.09-.28-.3-.2-.49-.16ZM65.72,20.93c.26.11.41-.03.62-.23-.31-.04-.43.15-.59.25-.03.04-.05.07-.08.11.01,0,.03.02.04.02.08-.04.06-.1.01-.15ZM63.86,27.05s-.11.08-.11.11c.02.1.11.04.17.05.3-.05.59-.1.89-.15.78-.23,1.6,0,2.51-.11-.34-.24-.57-.36-.76-.54-.34-.32-.72-.31-1.12-.21-1.32.33-2.68.44-4.01.72.33,0,.66-.04.99-.06.8-.04,1.6-.22,2.39.04-.32.05-.64.11-.95.16ZM66.01,21.36c-.22.17-.44.34-.68.52.22.06.38-.02.53-.12l.46.08c.02.12.1.17.21.2,1.84.5,3.74.68,5.6,1.03.12.02.26.07.46-.14-.81-.16-1.56-.32-2.31-.44-.32-.05-.64-.08-.94-.2-.19-.08-.11-.2,0-.3.14.09.29.1.45.05-.14-.1-.3-.04-.45-.06-.24-.32-.6-.33-.95-.35l-.02-.02c-.17-.18-.43-.34-.62-.17-.3.28-.65.14-.97.23-.09-.5-.43-.42-.77-.33ZM71.14,23.33c-.54-.25-1.11-.22-1.65-.34-.99-.22-2.01-.22-2.99-.48-.67-.18-1.36-.3-2.07-.24-.25.02-.52-.01-.68.25.03.19.33,0,.31.27-.6.01-1.13.23-1.67.58.12.01.18.04.22.02,1.56-.51,3.15-.57,4.78-.37,1.25.16,2.49.44,3.75.32ZM69.03,26.76c-.7-.53-1.34-1.23-2.5-.77.9.36,1.64.76,2.5.77ZM60.27,27.72c1-.23,2.06-.19,3.03-.58-1.05,0-2.04.27-3.03.58ZM61.4,25.6c.69.05,1.35-.2,2.14-.13-.82-.33-1.49-.2-2.14.13ZM58.63,27.47c.02.06.05.11.07.17.75-.2,1.51-.41,2.26-.61-.8.05-1.58.2-2.34.45ZM72.2,22.07c-.77-.19-1.49-.56-2.44-.56.89.32,1.65.54,2.44.56ZM71.47,25.86c.31.26.72.34,1.26.21-.48-.08-.87-.15-1.26-.21ZM62.13,23.49c-.21.08-.57-.35-.66.17.26.13.45-.09.66-.17ZM63.76,21.57q.39-.07.6-.51c-.29.14-.52.23-.6.51ZM62.42,22.73c0-.07-.04-.09-.1-.05-.04.03-.06.08-.1.11-.04.04-.03.09.04.07.06-.02.11-.09.16-.13ZM73.54,23.81h0s.07,0,.07,0h-.07ZM71.6,23.51s-.03-.02-.05-.04c.02,0,.04-.02.05-.02.02,0,.03.02.05.03-.02,0-.04.01-.05.02ZM78.31,24.33l.03-.03h-.05s.02.03.02.03Z"/>
    <path class="cls-4" d="M84.59,23.35c.68.56,1.42,1.04,2,1.72.28.32.61.59.99.81.54.31.84.87,1.27,1.3,1.33,1.32,2.77,2.52,4.13,3.82.71.68,1.38,1.42,2.22,1.96,0,0,0-.01,0-.01.01.09.08.14.16.15.07.17.18.27.43.39-.15-.24-.22-.39-.41-.4-.01-.1-.07-.15-.16-.16v.02c0-.15-.17-.32-.04-.44.16-.15.3.03.4.14,1.13,1.29,2.39,2.46,3.58,3.69.07.08.15.16.2.25.07.1.19.23.04.34-.13.1-.24-.02-.34-.1-.08-.07-.18-.12-.25-.2-1.09-1.31-2.57-2.13-3.85-3.21-1.28-1.07-2.57-2.12-3.84-3.19-1.01-.86-1.91-1.86-2.86-2.79-1.31-1.27-2.64-2.52-3.81-3.93.05-.04.1-.09.14-.13Z"/>
    <path class="cls-4" d="M95.05,27.44c-.71-.65-1.62-1.04-2.31-1.71.16-.26.3-.06.42,0,2.06,1.03,4.07,2.16,5.86,3.61,2.65,2.15,4.78,4.71,5.79,8.06.28.93.36,1.9.48,2.85.01.09-.02.22-.22.24-.21-.25-.24-.61-.33-.93-.22-.72-.41-1.45-.61-2.17-.57-2.1-1.65-3.89-3.16-5.45-1.75-1.81-3.73-3.32-5.93-4.52,0,0,.02.02.02.02Z"/>
    <path class="cls-4" d="M88.02,24.73c1.27.8,2.53,1.62,3.65,2.64.5.45,1.01.88,1.58,1.24.63.41,1.11,1,1.67,1.5,1.68,1.51,3.14,3.23,4.58,4.96.18.22.35.46.61.79-.38-.06-.51-.26-.67-.41-1.17-1.11-2.32-2.24-3.49-3.35-.43-.41-.9-.77-1.35-1.16-.08-.07-.17-.14-.23-.22-.39-.62-.99-1.02-1.5-1.52-1.52-1.49-3.25-2.71-4.85-4.11-.06-.05-.11-.12-.16-.18.05-.06.1-.12.15-.19Z"/>
    <path class="cls-4" d="M101.57,34.68c-.65-.73-1.35-1.41-1.9-2.23-.3-.44-.69-.82-1.07-1.19-1.54-1.52-3.17-2.93-5-4.09-.11-.07-.2-.17-.3-.25.06-.06.12-.11.18-.17.37.11.63.4.97.56.19.09.35.34.61.15,0,0-.02-.02-.02-.02.02.42.39.56.66.74,1.79,1.24,3.49,2.58,5.09,4.05.88.81,1.58,1.74,2.11,2.81.43.86.71,1.74.57,2.7-.05.32.25.66-.11,1.08-.09-.79-.27-1.44-.51-2.07.05-.05.09-.09.14-.14.04-.1.16-.22-.05-.28,0,0,.01.02.01.02-.05-.26.06-.59-.34-.67,0,0,.01.02.01.02.13-.07.08-.16.03-.25-.25-.46-.53-.91-.9-1.29-.07-.1-.1-.24-.26-.25-.07-.17-.09-.4-.37-.27,0-.06.09-.12-.02-.18-.1-.06-.12.04-.17.06-.03-.05,0-.07.03-.04.06.09.04-.05-.02.03.1-.03.14.07.2.11.12.11.11.38.38.28-.17.19,0,.26.13.34.02.09.04.18.06.27-.05.05-.09.11-.14.16Z"/>
    <path class="cls-4" d="M91.96,26c.42-.08.65.17.89.43-.18.23-.33-.05-.47.08.02.04.03.13.08.17,1.81,1.36,3.44,2.93,5.16,4.4.04.03.09.06.13.1,1.05,1.18,2.2,2.27,3.06,3.61.05.08.15.17.05.29-.16.07-.24-.04-.31-.15-1.69-2.31-3.89-4.09-6.05-5.91-1.48-1.25-3.03-2.42-4.52-3.66-.76-.63-1.48-1.32-1.97-2.23,1.32.89,2.42,2.08,3.82,2.86l-.02-.02c-.02.12.08.14.15.18.05,0,.04.17.13.03h-.15c.02-.08.03-.15.05-.21l-.02.02Z"/>
    <path class="cls-4" d="M108.71,40.67c.48-.66.68-1.43.69-2.23.02-1.26.1-2.53-.13-3.78-.04-.21-.03-.42.01-.64.32.74.39,1.54.47,2.32.13,1.29-.11,2.57-.27,3.84-.02.18-.13.35-.19.53-.1.33-.27.65-.6.69-.36.05-.38-.38-.56-.6-.58-.68-.73-1.51-.8-2.37-.08-1.03-.41-2-.61-2.99-.18-.89-.37-1.78-.33-2.76.39.25.47.63.59.96.45,1.19.63,2.44.83,3.69.16,1.03.28,2.07.68,3.05.04.1.05.21.21.27Z"/>
    <path class="cls-4" d="M106.63,39.93c-.4-.41-.4-1.02-.71-1.48-.15.39.06.84-.31,1.37-.02-3.67-1.9-6.39-3.78-9.13.51.18.73.64,1.03,1,.35.41.63.87.93,1.31.28.42.54.85.91,1.42.03-.46-.02-.75-.07-1.05-.07-.37-.1-.75-.04-1.12.02-.1.11-.09.19-.09.07,0,.1.03.1.1.04,1.06.46,2.04.73,3.04.27,1.04.59,2.06.78,3.12.08.47.26.93.39,1.39-.05.04-.09.08-.14.12Z"/>
    <path class="cls-4" d="M111.51,34.58c.62,1.55.65,3.13.27,4.73-.05.21-.09.42-.13.62l.02-.02c-.55.71-.9,1.57-1.67,2.12-.09.06-.07.28-.27.19-.21-.09-.12-.23-.12-.39,0-.59.1-1.18.31-1.72.67-1.79.78-3.61.34-5.46-.03-.11,0-.21.07-.3.24-.03.23.17.27.31.48,1.58.5,3.17.05,4.77-.11.39-.29.79-.06,1.32.73-1.01,1.05-2.06,1.12-3.2.06-1.03-.19-2.03-.29-3.04.04,0,0,.15.1.07Z"/>
    <path class="cls-4" d="M80.86,21.73c.36-.02.61.14.7.5-.03.05-.02.08.04.09.08,0,.12-.03.12-.11.2.23.5.34.65.61-.07.08-.13.16-.19.24-2.35-1.1-4.9-1.56-7.53-2.29.56-.16.95-.22,1.19-.15.48.15.97.21,1.47.26.5.06,1,.32,1.51.47.67.19,1.31.47,1.96.71.09,0,.12-.05.05-.12-.06-.08-.12-.15.01-.21Z"/>
    <path class="cls-4" d="M111.64,39.94c.48-.73.61-1.57.71-2.41.07-.55.11-1.11.18-1.83.36,2.01-.38,5.04-1.64,6.83.07-.61.24-1.09.41-1.57.12-.35.38-.65.36-1.04,0,0-.02.02-.02.02Z"/>
    <path class="cls-4" d="M108.12,33.27c.91.86.86,4.99.42,6.37-.15-.51-.2-.99-.16-1.45.06-.83.03-1.66.07-2.49.04-.81-.12-1.59-.32-2.43Z"/>
    <path class="cls-4" d="M100.89,38.24c.78.53,1.52,1.15,2.69,1.23-.88.3-1.75-.08-2.83-1.11.05-.04.1-.08.14-.12Z"/>
    <path class="cls-4" d="M72.91,28.1s-.04-.14-.03-.14c.43-.15.97-.07,1.49.21-.52.24-.99-.07-1.48-.08,0,0,.02.02.02.02Z"/>
    <path class="cls-4" d="M90.71,30.48c.19.1.37.21.56.31.12.06.15.14.07.25-.09.11-.2.07-.28,0-.17-.13-.32-.29-.47-.43.04-.04.09-.09.13-.13Z"/>
    <path class="cls-4" d="M90.58,30.61c-.21-.05-.32-.3-.56-.27,0,0,.03.02.03.02,0-.24-.31-.25-.36-.46.04-.05.08-.09.13-.14.31.23.72.33.91.72-.04.04-.09.09-.13.13Z"/>
    <path class="cls-4" d="M87.78,28.08c.29.13.5.36.69.6-.03.03-.06.07-.1.1-.29-.13-.49-.37-.7-.6.04-.03.07-.07.11-.1Z"/>
    <path class="cls-4" d="M75.3,20.25c-.13.23-.38.1-.48.33-.08.17-.28.07-.41-.02-.09-.06-.15-.16-.14-.27.02-.12.13-.15.24-.14.26,0,.53-.05.79.1Z"/>
    <path class="cls-4" d="M89.07,29.56c-.06-.11-.13-.22-.19-.33.04-.04.07-.08.1-.12.27.22.54.44.82.66-.04.05-.08.09-.13.14-.1,0-.19-.11-.3-.04,0,0,.02.02.02.02.04-.16-.05-.19-.18-.18l.02.02c.01-.13-.07-.18-.18-.18l.02.03Z"/>
    <path class="cls-4" d="M86.59,27.16c-.24-.08-.39-.27-.55-.44.04-.03.08-.07.12-.1.23.09.39.25.52.45-.03.03-.06.06-.09.09Z"/>
    <path class="cls-4" d="M85.2,25.8c.24.07.39.26.56.43-.04.04-.09.08-.13.12-.23-.08-.41-.22-.55-.41.04-.04.08-.09.13-.13Z"/>
    <path class="cls-4" d="M101.84,36.65c.22.09.26.29.32.5-.32,0-.33-.24-.37-.45l.05-.05Z"/>
    <path class="cls-4" d="M84.24,24.19c.26-.03.31.19.42.35-.23,0-.4-.09-.45-.33,0,0,.03-.03.03-.03Z"/>
    <path class="cls-4" d="M102.62,36.19c-.18-.16-.3-.37-.36-.61.04-.04.07-.07.11-.11.09.08.18.15.27.23,0,0-.01-.02-.01-.02.04.13.09.26.13.39-.05.04-.09.08-.14.11Z"/>
    <path class="cls-4" d="M93.3,26.91c-.2-.09-.58-.17-.42-.39.18-.26.41.09.6.22-.06.06-.12.11-.18.17Z"/>
    <path class="cls-4" d="M83.31,23.68c-.21-.07-.4-.18-.57-.33.06-.04.13-.09.19-.13.21.03.38.12.5.31-.04.05-.08.1-.12.15Z"/>
    <path class="cls-4" d="M101.47,36.2c-.18-.12-.29-.29-.33-.57.32.02.35.28.45.46-.04.03-.08.07-.12.11Z"/>
    <path class="cls-4" d="M85.59,31.08c-.05,0-.11,0-.15-.03-.13-.08-.3-.18-.19-.35.11-.18.26-.05.38.04.06.05.11.11.16.17-.07.06-.13.12-.2.18Z"/>
    <path class="cls-4" d="M101.2,35.47s-.08.1-.11.09c-.14-.04-.22-.15-.25-.28,0-.04.02-.16.14-.11.14.06.19.17.22.3Z"/>
    <path class="cls-4" d="M87.87,24.92c-.17-.04-.28-.16-.38-.28.05-.05.1-.09.16-.14.16.02.27.12.38.24-.05.06-.1.12-.15.19Z"/>
    <path class="cls-4" d="M86.65,31.99c-.07-.11-.14-.21-.21-.32.04-.04.07-.08.11-.12.08.06.18.12.25.19.06.06.21.12.11.24-.08.1-.19-.04-.29-.01,0,0,.03.02.03.02Z"/>
    <path class="cls-4" d="M76.6,22.75c.26-.01.54-.1.66.25-.21-.12-.5,0-.66-.25Z"/>
    <path class="cls-4" d="M82.49,23.02c.17.03.42-.13.44.2-.06.04-.13.09-.19.13-.13-.05-.31-.04-.37-.21.04-.04.08-.08.12-.12Z"/>
    <path class="cls-4" d="M75.69,24.8c-.05.18-.14.18-.25.16-.13-.02-.3-.08-.3-.19,0-.15.15-.15.29-.14.14.02.22.08.26.16Z"/>
    <path class="cls-4" d="M76.11,24.97c-.08.02-.14.05-.21.05-.02,0-.05-.06-.07-.1.06-.02.13-.05.19-.06.02,0,.05.06.09.11Z"/>
    <path class="cls-4" d="M101.92,35.09c-.14-.05-.22-.16-.26-.3l.17-.09c.14.04.18.16.21.29-.04.03-.08.07-.12.1Z"/>
    <path class="cls-4" d="M87.37,27.66c.1.07.22.12.24.26-.04.03-.07.07-.1.11-.1-.07-.22-.11-.24-.26.04-.03.07-.07.1-.11Z"/>
    <path class="cls-4" d="M102.13,35.38c-.15-.04-.18-.16-.21-.29.04-.03.08-.07.12-.1.12.05.17.17.21.28-.04.04-.08.07-.13.11Z"/>
    <path class="cls-4" d="M85.91,31.31c-.14-.03-.26-.09-.32-.23.07-.06.13-.12.2-.18.1.05.21.09.24.22-.04.06-.08.13-.12.19Z"/>
    <path class="cls-4" d="M87.36,24.28c.11.05.23.09.28.21-.05.05-.1.09-.16.14-.1-.05-.21-.09-.25-.22.04-.04.08-.09.12-.13Z"/>
    <path class="cls-4" d="M82.02,29.95c.1.06.3.11.21.24-.12.17-.25.02-.34-.1.04-.05.09-.09.13-.14Z"/>
    <path class="cls-4" d="M106.83,40.22c-.19,0-.19-.15-.2-.29.05-.04.09-.08.14-.12.08.11.14.22.1.36,0,0-.04.04-.04.04Z"/>
    <path class="cls-4" d="M83.79,23.98c-.11-.04-.25-.05-.28-.2.04-.04.08-.09.13-.13.11.05.24.08.26.23-.04.03-.07.07-.1.1Z"/>
    <path class="cls-4" d="M84.95,25.57c.1.06.22.1.25.23-.04.04-.08.09-.13.13-.12-.04-.23-.08-.26-.22.05-.05.09-.09.14-.14Z"/>
    <path class="cls-4" d="M80.69,23.6s-.09-.03-.11.03c.04,0,.09-.02.13-.03,0,0-.02,0-.02,0Z"/>
    <path class="cls-4" d="M108.05,32.9s.04.09.05.13c0,.01-.03.04-.05.04-.02,0-.05-.03-.05-.05.01-.04.03-.09.05-.13Z"/>
    <path class="cls-4" d="M102.86,36.74c-.05-.11-.1-.22-.15-.33l.13-.13h.08s.05.06.05.06c0,0-.01-.02-.01-.02.02.09.04.19.05.28-.05.05-.09.09-.14.14Z"/>
    <path class="cls-4" d="M87.15,24.18c.07.03.14.07.21.1-.04.04-.08.09-.12.13-.09,0-.15-.05-.19-.14.03-.03.07-.07.1-.1Z"/>
    <path class="cls-4" d="M101.67,34.79c-.05-.02-.08-.06-.09-.12.05-.05.09-.11.14-.16.1.03.13.1.13.19l-.17.09Z"/>
    <path class="cls-4" d="M102.25,35.58c-.09-.04-.13-.11-.12-.2.04-.04.08-.07.13-.11.04.07.07.13.11.2-.04.04-.07.07-.11.11Z"/>
    <path class="cls-4" d="M91.82,26c-.04-.08-.03-.16.07-.16.09,0,.11.07.07.16,0,0,.02-.02.02-.02-.06,0-.12,0-.18,0l.02.02Z"/>
    <path class="cls-4" d="M85.76,26.23c.07.06.19.13.08.23-.12.1-.16-.04-.21-.11.04-.04.09-.08.13-.12Z"/>
    <path class="cls-4" d="M86.04,26.72c-.06-.06-.18-.12-.07-.22.12-.1.15.04.19.11-.04.03-.08.07-.12.1Z"/>
    <path class="cls-4" d="M101.59,36.09c.04.08.17.16.05.24-.13.09-.14-.06-.17-.13.04-.04.08-.07.12-.11Z"/>
    <path class="cls-4" d="M102.71,36.42c-.07-.06-.1-.13-.09-.23.05-.04.09-.08.14-.11.03.07.06.14.08.22l-.13.13Z"/>
    <path class="cls-4" d="M86.68,27.07c.09.01.15.06.17.15-.03.03-.06.06-.09.09-.1,0-.16-.05-.17-.15.03-.03.06-.06.09-.09Z"/>
    <path class="cls-4" d="M101.79,36.7c-.04-.05-.08-.1-.13-.15.03-.03.07-.08.1-.07.08.02.09.1.08.17,0,0-.05.05-.05.05Z"/>
    <path class="cls-4" d="M86.94,27.47c-.1,0-.16-.05-.17-.15.03-.03.06-.06.09-.09.06.05.12.1.18.15-.04.03-.07.07-.11.1Z"/>
    <path class="cls-4" d="M87.04,27.36c.06.05.12.1.17.16-.04.03-.07.06-.11.1-.1,0-.16-.05-.17-.15.03-.04.07-.07.11-.1Z"/>
    <path class="cls-4" d="M100.29,37.92c-.08-.08-.24-.16-.1-.28.09-.08.16.04.21.12-.04.05-.07.11-.11.16Z"/>
    <path class="cls-4" d="M100.4,37.76c.09.01.15.07.16.16-.04.05-.07.11-.11.16-.05-.05-.11-.11-.16-.16.04-.05.07-.11.11-.16Z"/>
    <path class="cls-4" d="M100.56,37.93c.09.01.15.06.17.16-.04.05-.07.1-.11.15-.09,0-.14-.07-.17-.15.04-.05.07-.11.11-.16Z"/>
    <path class="cls-4" d="M87.27,27.77c-.1,0-.16-.05-.17-.16.03-.04.07-.07.11-.1.05.05.11.1.16.15-.03.04-.06.08-.1.11Z"/>
    <path class="cls-4" d="M107.14,40.33c-.13.04-.28.14-.3-.11,0,0,.04-.04.04-.04.09.05.18.1.27.15h0Z"/>
    <path class="cls-4" d="M107.14,40.33s-.09.07-.13.1c0-.02,0-.04,0-.05.04-.02.09-.04.14-.06,0,0,0,0,0,0Z"/>
    <path class="cls-4" d="M56.86,27.89c.02-.09.07-.15.16-.16.05.05.1.11.14.16-.05.05-.11.1-.16.15-.05-.05-.1-.1-.15-.15Z"/>
    <path class="cls-4" d="M56.69,28.05c.02-.09.08-.14.17-.16.05.05.1.1.15.15-.05.05-.11.1-.16.15-.05-.05-.1-.09-.16-.14Z"/>
    <path class="cls-4" d="M87.67,28.18c-.05-.05-.11-.1-.16-.14.03-.04.06-.08.1-.11.1,0,.16.05.17.15-.03.04-.07.07-.11.1Z"/>
    <path class="cls-4" d="M80.82,21.75c-.01.08-.06.12-.13.13-.12-.07-.2-.17-.05-.27.12-.08.16.04.18.14Z"/>
    <path class="cls-4" d="M88.47,28.68c.06.05.12.1.19.14-.04.04-.08.07-.11.11-.1,0-.16-.06-.17-.15.03-.03.07-.07.1-.1Z"/>
    <path class="cls-4" d="M88.65,28.82c.06.05.12.1.18.15-.04.03-.08.07-.12.11-.1,0-.16-.05-.17-.15.04-.04.07-.07.11-.11Z"/>
    <path class="cls-4" d="M88.84,28.98c.05.04.1.09.15.13-.03.04-.06.09-.1.12-.1,0-.16-.05-.17-.15.04-.04.08-.07.12-.11Z"/>
    <path class="cls-4" d="M81.89,30.09c-.1-.02-.21-.08-.15-.18.1-.17.19-.03.28.04-.04.05-.09.09-.13.14Z"/>
    <path class="cls-4" d="M84.95,22.69c0,.06-.02.12-.03.19-.16-.1,0-.13.04-.19,0,0-.01,0-.01,0Z"/>
    <path class="cls-4" d="M82.38,23.14c-.06-.02-.12-.05-.18-.07.06-.08.13-.16.19-.24.11.03.13.09.11.19-.04.04-.08.08-.12.12Z"/>
    <path class="cls-4" d="M84.12,23.17c-.04-.07-.19-.13-.05-.22.06-.04.13.02.15.1-.04.04-.07.07-.11.11Z"/>
    <path class="cls-4" d="M84.23,23.06c.1,0,.16.05.18.15-.04.04-.08.08-.12.12-.06-.05-.11-.1-.17-.15.03-.04.07-.08.11-.11Z"/>
    <path class="cls-4" d="M84.48,31.22c-.08-.05-.21-.09-.12-.22.09-.12.17,0,.25.04-.04.06-.09.12-.13.18Z"/>
    <path class="cls-4" d="M84.44,23.48c-.05-.05-.1-.11-.15-.16.04-.04.08-.08.12-.12.09,0,.15.06.18.15-.05.04-.1.09-.14.13Z"/>
    <path class="cls-4" d="M86.03,31.12c.09,0,.15.05.18.15-.05.05-.1.11-.14.16-.08,0-.12-.05-.15-.11.04-.06.08-.13.12-.19Z"/>
    <path class="cls-4" d="M86.25,31.54c-.09,0-.15-.03-.19-.11.05-.05.1-.11.14-.16.09.01.15.06.18.14-.05.04-.09.09-.14.13Z"/>
    <path class="cls-4" d="M86.45,31.67c-.1,0-.17-.03-.19-.13.05-.04.09-.09.14-.13.06.05.11.09.17.14-.04.04-.07.08-.11.12Z"/>
    <path class="cls-4" d="M83.52,23.78c-.09.02-.16-.01-.2-.09.04-.05.08-.1.12-.15.09,0,.16.04.2.11-.04.04-.08.09-.13.13Z"/>
    <path class="cls-4" d="M83.9,23.88c.1,0,.17.03.18.14-.02.02-.04.04-.07.07-.1.02-.17-.01-.21-.11.03-.04.07-.07.1-.1Z"/>
    <path class="cls-4" d="M86.63,23.8c.05.06.23.07.13.19-.1.11-.15-.05-.21-.11.02-.03.05-.06.08-.08Z"/>
    <path class="cls-4" d="M84.08,24.02c.1.01.2.03.16.17,0,0-.03.02-.03.02-.12.04-.19,0-.2-.13.02-.02.05-.04.07-.07Z"/>
    <path class="cls-4" d="M87.05,24.28c-.08-.03-.17-.1-.13-.16.09-.13.17-.03.23.06-.03.03-.07.07-.1.1Z"/>
    <path class="cls-4" d="M60.77,25.18c-.1,0-.17.02-.19.13-.1.02-.2.03-.3.05.02-.34.24-.37.51-.34,0,.06,0,.11-.01.17Z"/>
    <path class="cls-4" d="M61.26,24.86c-.1-.02-.18,0-.19.12-.1.02-.2.03-.3.05.09-.29.26-.44.58-.28h-.02c-.06.01-.07.05-.06.11Z"/>
    <path class="cls-4" d="M62.66,24.33c.04-.08.1-.12.18-.09.02,0,.05.04.05.06-.02.09-.09.1-.17.08,0,0-.06-.05-.06-.05Z"/>
    <path class="cls-4" d="M61.34,24.75c-.08-.03-.11-.09-.06-.16,0-.01.06-.02.07-.01.07.07.02.12-.03.16,0,0,.03.01.03.01Z"/>
    <path class="cls-4" d="M59.67,26.18c.1-.01.2-.03.3-.04-.03.32-.19.44-.51.34.07-.1.14-.2.2-.29Z"/>
    <path class="cls-4" d="M59.95,26.16c0-.13.06-.18.18-.18.13.25-.04.2-.18.18Z"/>
    <path class="cls-4" d="M59.31,26.65c-.01-.13.07-.17.18-.19.1.22-.07.17-.18.19Z"/>
    <path class="cls-4" d="M69.65,25.98c.17,0,.33,0,.5,0,.1.24.32.13.49.16,0,.06,0,.12,0,.18-.68.04-.77,0-.99-.34Z"/>
    <path class="cls-4" d="M69.33,25.82c.11-.08.23,0,.34,0,0,.06,0,.12,0,.17-.07.14-.17.14-.29.07-.12-.07-.09-.15-.04-.24Z"/>
    <path class="cls-4" d="M68.3,21.87s-.1,0-.15-.02c-.09-.03-.25-.04-.23-.15.02-.17.18-.09.29-.1.05,0,.1.01.15.02,0,0,.02.02.02.02.03.03.03.06.02.1-.03.04-.06.09-.1.13Z"/>
    <path class="cls-4" d="M68.4,21.74c.12.02.32.04.26.16-.08.18-.24.08-.36-.03.03-.04.06-.09.1-.13Z"/>
  </g>
  <path class="cls-3" d="M149.01,37.47c.06-.18.09-.4.35-.17-.05.18-.12.34-.35.17Z"/>
  <path class="cls-3" d="M148.85,37.63c-.01-.13.04-.2.18-.18,0,.06.11.11.02.2-.09.09-.13,0-.2-.02Z"/>
  <path class="cls-3" d="M148.69,37.8c-.01-.13.05-.19.18-.18,0,.06.11.11.02.2-.09.09-.13,0-.2-.02Z"/>
  <path class="cls-3" d="M148.53,37.96c-.01-.13.05-.19.18-.18,0,.06.11.11.02.2-.09.09-.13,0-.2-.02Z"/>
  <path class="cls-3" d="M148.36,38.12c-.02-.14.05-.19.18-.18,0,.06.11.11.02.2-.09.09-.13,0-.2-.02Z"/>
  <path class="cls-3" d="M148.2,38.28c-.03-.15.04-.2.18-.18,0,.06.11.1.02.19-.08.08-.13,0-.2,0Z"/>
  <path class="cls-3" d="M148.04,38.44c-.05-.17.04-.2.18-.18.11.23,0,.23-.18.18Z"/>
  <path class="cls-4" d="M147.27,36.69c0,.23-.11.39-.33.53-.06-.29.08-.45.28-.57l.05.05Z"/>
  <path class="cls-4" d="M147.02,35.3c-.11.16-.21.33-.32.49-.04-.04-.06-.04-.1-.08,0-.11-.08.19-.07.09,0,0,.06-.15.06-.15,0,0,.26-.41.31-.46.04.04.08.08.12.11Z"/>
  <path class="cls-4" d="M146.53,36.09c-.06.11-.11.21-.17.32-.04-.04-.09-.08-.13-.12.07-.12.13-.23.17-.31.04.04.09.07.13.11Z"/>
  <path class="cls-4" d="M147.23,36.64c-.02-.15,0-.27.16-.33.03.03.07.07.1.1-.05.1-.05.25-.21.27,0,0-.05-.04-.05-.04Z"/>
  <path class="cls-4" d="M146.7,35.79c-.06.1-.11.2-.17.3-.04-.04-.09-.07-.13-.11.07-.07-.02.09,0,0,0,0,0,0,0,0,.05-.01.14-.3.19-.31.04.04.08.08.12.12Z"/>
  <path class="cls-4" d="M146.36,36.41c-.05.11-.11.22-.16.33-.05-.05-.09-.09-.14-.14.02-.09-.22.01-.2-.08l.19.11s.07-.15.07-.15l.09-.19s.09.08.13.12Z"/>
  <path class="cls-4" d="M147.59,36.19c0,.09-.03.17-.1.22-.03-.03-.07-.07-.1-.1-.02-.09.02-.17.09-.23.04.03.08.07.12.11Z"/>
  <g>
    <path class="cls-4" d="M76.58,47.44c-.68-.42-1.13-1.06-1.57-1.7-1.2-1.77-1.85-3.75-2.11-5.86-.07-.56-.17-1.12-.11-1.83.33.88.43,1.68.6,2.46.34,1.58.78,3.13,1.61,4.54.22.37.41.75.75,1.04.03.09.1.24.16.2.13-.08.04-.21-.02-.32-.83-2.48-.42-4.81.79-7.06-.06.7-.23,1.38-.29,2.08-.23,2.71.83,4.82,2.93,6.46.04.03.1.03.16.05.16-.21-.05-.34-.13-.48-.75-1.32-1.31-2.71-1.55-4.22-.12-.75-.12-1.5.1-2.24.03-.1.06-.21.26-.22.1,1.32.27,2.64.89,3.84.63,1.22,1.52,2.2,2.72,3.15-.15-.65-.26-1.15-.38-1.65-.31-1.23-.55-2.47-.68-3.73-.12-1.14-.07-2.26.26-3.36.08-.27.15-.57.54-.86-.87,3.59.14,6.64,2.17,9.58-.06-.52-.26-.86-.4-1.21-.69-1.75-1.1-3.55-.87-5.44.02-.16.02-.32.06-.48.05-.23.12-.46.23-.69.05,2.46.55,4.81,1.57,7.05-.32-1.94-.57-3.89-.5-5.86.23,1.06.39,2.13.49,3.2.06.3.12.6.21,1.04v-1.32c.03-.64.16-1.27.31-1.9.04,1.75-.3,3.54.66,5.18.04-2.24.09-4.47.7-6.72.22.27.1.5.12.7.01.21-.01.43-.02.64-.08,1.61-.02,3.22.24,4.82.07.42.18.84.4,1.22.05.09.15.14.27.1.1-.04.09-.13.09-.2,0-.13,0-.27,0-.4-.14-1.77.27-3.41,1.13-4.95h-.03c.16.31.03.59-.03.88-.3,1.51-.28,3.05-.3,4.58,0,.1.05.2.07.3.27,0,.3-.22.39-.38.56-1.04.81-2.16.87-3.33.02-.4.05-.8.1-1.2.24,1.74.09,3.45-.49,5.17.4-.06.46-.32.56-.52.52-.98.79-2.05,1-3.13.11-.59.14-1.2.34-1.56.06,1.75-.43,3.57-1.39,5.26.9.5.92.29,1.29-.33.62-1.04.84-2.2,1.02-3.38.03-.21.06-.42.11-.81.39,1.9.08,3.53-.75,5.05.31.24.6.24.94.14,1.36-.4,2.63-.97,3.55-2.11.04-.05.13-.07.21-.11-.01.86-.18,1.08-2.3,3.03.26.28.57.34.93.29.73-.09,1.42-.27,2.05-.69.21-.14.41-.33.7-.37q-.1.47-1.85,1.7c.18.36.56.22.84.34l-.02-.02c.18.44.77.9,1.18.82,1.23-.24,2.36-.67,3.11-1.76h0c.27.66-.21.99-.63,1.31-.43.33-.95.49-1.48.6-.23.05-.48.07-.7.2.22.39.56.44.96.39,1.01-.12,1.94-.4,2.73-1.08.09-.08.18-.21.34-.14l-.02-.02c-.31.84-1.02,1.2-1.8,1.44-.35.11-.73.14-1.1.21.4.27.73.31,1.86.24.65-.04,1.27-.19,1.89-.38.64-.19,1.09-.68,1.74-1.13-.26.83-1.15,1.51-1.97,1.7-.85.2-1.71.3-2.7.34.53.51.97.92,1.41,1.35.19.19.43.2.67.22.86.08,1.61-.19,2.28-.71.12-.09.2-.26.4-.15.06.05.12.11.18.16-.82.74-1.76,1.07-2.88.91.42.78.52.81,1.3.67.71-.13,1.28-.56,1.9-.87.09-.04.14-.17.26-.12-.22.82-.78,1.16-2.51,1.47,1.8,1.95,3.52,3.91,5.34,5.78-.7-.21-1.18-.73-1.74-1.12-.58-.4-1.09-.9-1.64-1.33-1.78-1.37-3.61-2.67-5.6-3.71-.69-.36-1.33-.84-2.14-1.06-.1.74-.15,1.47-.31,2.16-.87,3.79-3.1,6.47-6.95,7.25-4.01.82-7.44-.51-10.01-3.78-1.41-1.8-2.12-3.91-2.56-6.12-.03-.13-.04-.27-.06-.4-.03-.3-.19-.35-.45-.26-1.71.61-3.37,1.35-4.61,2.72-.53.59-1.13.84-1.85.99-.98.2-1.98.22-2.97.21-2.13-.01-4.23-.29-6.33-.65-1.61-.28-3.19-.65-4.74-1.2-1.71-.61-3.31-1.42-4.78-2.47-.22-.15-.43-.32-.52-.59.08-.03.11-.08.05-.15,1,.55,2.1.75,3.35.94-1.23-1.15-2.59-2.09-2.53-3.94.31.46.63.91.92,1.38.92,1.47,2.33,2.22,3.93,2.69.32.09.69.01,1.09-.04-2.58-.67-4.39-2.22-5.49-4.61.07.02.12,0,.14-.08.66.78,1.36,1.53,2.14,2.18,1.69,1.42,3.42,1.86,5.75,1.87-3.59-1.08-5.51-3.4-6-6.91,1.81,4.16,5.11,6.09,9.27,6.34-2.29-.51-6.08-3.91-6.53-5.72,1.33,1.14,2.43,2.49,4.03,3.23-1.16-1.26-2.04-2.64-2.21-4.38.38.85.78,1.7,1.33,2.47.02.02.05.03.08.03,0,.11.06.19.15.24.05.03.1-.01.08-.05-.05-.08-.12-.14-.19-.21,0,0,0-.07,0-.07-.81-1.53-1.3-3.14-1.3-4.89.37,1.3.69,2.61,1.34,3.82-.45-1.41-.83-2.83-.7-4.35.2.05.17.23.22.35.05.12.04.27.07.4.56,2.42,1.4,4.69,3.31,6.42,1.02.93,2.12,1.43,3.5,1.55-.22-.29-.52-.44-.77-.62-1.24-.92-2.41-1.91-3.33-3.15-.84-1.14-1.48-2.37-1.45-3.74,1.36,3.63,4.37,5.42,7.91,6.58.13.04.26.08.38.12.07.03.14.02.15-.05,0-.02-.1-.06-.15-.09-1.27-.72-2.47-1.52-3.51-2.57-2.36-2.39-3.27-5.25-2.8-8.56.04-.26.07-.52.31-.86-.17,2.75.18,5.24,1.99,7.31,1.18,1.35,2.67,2.2,4.37,2.72-.85-.82-1.5-1.76-2.08-2.77-.29-.51-.75-.91-1.11-1.38-.54-.71-1.02-1.45-1.17-2.36-.05-.27-.06-.53,0-.96.41.97.7,1.86,1.41,2.56-.04-.72-.13-1.44-.12-2.17,0-.73.12-1.45.34-2.14.03.07.08.08.15.05-.2,2.14.2,4.17,1.19,6.08.28.53.64.98,1.1,1.37,1.17.96,2.48,1.66,3.96,2.04-.62-.41-1.22-.84-1.74-1.37-.55-.56-1.02-1.18-1.41-1.86-.38-.65-.69-1.34-.92-2.05-.24-.74-.43-1.49-.52-2.27-.09-.77-.25-1.54.14-2.41.24,1.43.66,2.68,1.17,3.9.43,1.01,1.06,1.86,1.76,2.68.06.06.12.1.21.06v-.02c-.05.15,0,.24.17.18,0,0-.02-.02-.02-.02-.04.16.02.23.18.18h-.02c-.03.07,0,.14.05.2.61.56,1.35.91,2.1,1.28-.28-.68-.77-1.2-1.08-1.83-.32-.65-.61-1.32-.85-2-.23-.66-.41-1.34-.52-2.03-.11-.7-.28-1.4-.11-2.15.19,1.02.3,2.04.58,3.02.38,1.34.99,2.56,1.86,3.64.48.6,1.04,1.09,1.74,1.42.17.08.37.27.57.02-.06.03-.21-.02-.12.14.04-.05.07-.09.11-.14ZM60.45,48.94s.03.02.05.03c-.01-.01-.03-.02-.04-.03-.02-.01-.03-.02-.05-.04.02.01.03.03.05.04ZM66.75,44.09h.02s-.01,0-.01,0l-.06-.28s-.09.03-.09.05c0,.11.06.18.15.23ZM74.63,47.52c.06-.07.06-.13-.02-.18-.02,0-.07,0-.07.02-.02.09.04.12.12.14.04,0,.07.14.13.02-.05,0-.1,0-.15,0ZM90.5,55.06c.12.05-.28.49.2.26.08-.04.2-.06.22-.18-.14,0-.32.13-.41-.09.57-.49,1.36-.5,2.07-.91-.91-.01-1.72.03-2.53.18.06.34.13.62.45.74ZM92.33,60.05c.21.05.42.1.62.15.24.06.47.14.62-.15.18-.34-.05-.53-.28-.65-.55-.28-1.12-.51-1.68-.77-.45-.21-.96-.29-1.42-.59.3-.09.53-.03.77.02.92.19,1.83.42,2.69.83.4.18.62.07.54-.3-.06-.29-.01-.43.2-.63.27-.27.16-.48-.24-.61-1.19-.38-2.42-.5-3.66-.52-.32,0-.44.14-.51.38-.07.24-.42.41-.25.7.04.07.04-.08,0-.07-.28.07-.42.32-.62.49-.03.03-.03.09-.06.18,1.04.65,1.93,1.49,2.66,2.49.12.16.34.26.52.37.12.07.25.07.36-.05.11-.12.1-.24.03-.36-.14-.26-.27-.52-.41-.78.04-.04.07-.07.11-.11ZM80.96,58.01c-.02-.22.18-.24.3-.32.92-.55,1.87-1.03,2.91-1.32.14-.04.34-.02.3-.3-.1,0-.2-.03-.29-.02-1.33.05-2.62.5-3.96.45-.15,0-.34.07-.34.27,0,.4.09.79.22,1.17.14.4.53-.01.73.21-.32.17.07.39-.06.62-.35.63-.15.98.57,1.17.14.03.32.06.4.23-.03.07-.08.14-.1.21-.2.52-.11.66.46.67.26,0,.53-.06.77.09q-.2.82.49,1.22c.42-1.56,1.31-2.83,2.41-3.97-.08-.1-.13-.16-.18-.22-.48-.51-.49-.53-1.11-.18-.82.45-1.62.94-2.44,1.41-.04-.05-.07-.1-.11-.14.77-.92,1.83-1.49,2.91-2.21-.36-.11-.58-.02-.8.04-.59.18-1.16.4-1.75.55-.44.11-.83.41-1.31.37ZM87.52,63.78c.72-.03,1.44-.11,2.13-.34.67-.22,1.28-.56,1.79-1.06.17-.17.24-.31.09-.55-.67-1.06-1.32-2.13-2.33-2.93-.28-.23-.5-.34-.85-.17-.31.15-.67.23-1.02.19-.42-.05-.92-.33-1.22-.18-.35.18-.51.72-.79,1.08-.31.41-.66.78-.96,1.19-.24.32-.46.66-.65,1.02-.26.49-.25.52.24.81,1.09.66,2.29.89,3.55.95ZM84.36,54.19c-.09.36.11.58.44.72.6.24,1.23.38,1.85.51.38.08.6-.1.74-.45.5-1.27.23-1.81-1.12-2.15-.03,0-.05-.01-.08-.02-1.26-.3-1.67-.01-1.82,1.27,0,.03,0,.05-.01.11ZM94.62,56.89c.16-1.1.16-1.11-.79-1.13-.86-.02-1.72.1-2.57.24-.26.04-.53.07-.79.14-.22.06-.29.26-.25.45.05.24.26.13.39.09,1.33-.34,2.65-.35,4.01.2ZM84.08,55.37c-.91-.13-1.82-.11-2.73-.03-.4.03-.8.07-1.2.1-.23.02-.36.13-.28.37.06.18.81.59.98.52,1.05-.41,2.15-.63,3.24-.96ZM83.67,53.46c.02-.2,0-.39-.18-.5-.22-.13-.41-.03-.58.11-.24.2-.35.47-.31.78.03.29.25.38.51.42.23.04.35-.1.42-.28.06-.17.1-.36.14-.53ZM94.63,54.96c-.57-.02-1,.16-1.44.23.44-.08.91.14,1.44-.23ZM91.1,55.63c-.27-.05-.52-.02-.74.19.31.15.49-.16.74-.19ZM84.44,47.05v-.07s.04,0,.04,0l-.04.06ZM60.21,47.35s-.04.03-.04.05.02.04.04.06c.02-.02.04-.03.05-.05,0-.02-.02-.04-.04-.06Z"/>
    <path class="cls-4" d="M96.19,50.91c-.03-.26.2-.19.32-.23,1.44-.49,2.64-1.28,3.41-2.63.05-.09.14-.15.26-.28-.06.94-.49,1.58-1.19,2.06-.85.58-1.8.93-2.82,1.06,0,0,.02.02.02.02Z"/>
  </g>
  <path class="cls-2" d="M96.61,57.05c-.27,3.74-4.15,8.07-9.21,7.71-5.36-.38-8.69-3.47-9.96-8.06-.42-1.53-1.1-2.49.19-3.38,1.77-1.21,6.03-2.08,8.7-2.08,3.68,0,8.62,1.28,10.18,3.62.06.09.06.11.11.2.29.53.04,1.37,0,1.98Z"/>
  <g>
    <path class="cls-2" d="M182.64,20.57s-.07-.04-.11-.05c-.01,0-.04.03-.05.05.04.02.07.04.11.06.02-.02.04-.04.06-.06Z"/>
    <path class="cls-2" d="M183.34,20.94s0-.01.01-.02c0,0-.02,0-.02,0,0,0,0,0,0,0,0,0,0,0,0,0Z"/>
    <path class="cls-2" d="M166.98,30.49c.27.05.56.1.86.16.28-.03.55-.14.82-.39.17-.16.42-.22.65-.31,1.41-.57,2.59-1.56,4.07-2.25-.24-.06-.34-.09-.45-.12.32-.46.98-.14,1.45-.68-1.06.14-1.95.3-2.73.82-.32.15-.64.31-.95.46-.32.12-.64.24-.83.56-.69.36-1.41.65-2.07,1.07-.14.09-.33.32-.52.05-.02-.13.08-.18.17-.24.63-.41,1.27-.81,1.9-1.23,1.28-.85,2.71-1.42,4.06-2.14l.02.03h.04c.17-.12.35-.23.52-.34.16.4.48.12.64.07,1.16-.36,2.34-.62,3.56-.69.92-.06,1.85-.12,2.77-.17.59.21,1.15.18,1.69-.16-.63-.12-1.25-.31-1.9-.26-.6.05-1.23-.12-1.8.19l-.7.02c-.82-.05-1.61.14-2.41.26-.36.08-.73.16-1.09.24-2.51.57-4.8,1.65-7.02,2.92-.9.52-1.76,1.11-2.75,1.74.08.02.14.04.22.06.35.06.73.13,1.12.2.22.04.45.08.68.12Z"/>
    <path class="cls-2" d="M183.35,21.08s.03,0,.05-.01c-.02-.04-.04-.08-.05-.13-.04.05-.06.09,0,.14Z"/>
    <path class="cls-2" d="M187.63,23.65c-.21-.46-.5-.07-.71-.17.22.08.4.29.71.17Z"/>
    <path class="cls-2" d="M171.77,22.67c.15.12.27.07.38-.05-.13-.07-.25-.07-.38.05Z"/>
    <path class="cls-2" d="M172.17,22.61c.18.01.34-.03.49-.11-.2-.09-.4-.23-.49.11Z"/>
    <path class="cls-2" d="M172.14,22.62s.01,0,.02,0c0,0,0-.01,0-.02,0,0-.01,0-.02,0,0,0,0,0,0,0Z"/>
    <path class="cls-2" d="M172.68,22.49c.12-.11.33-.04.43-.19-.18-.02-.44-.22-.43.19Z"/>
    <path class="cls-2" d="M180.71,21.63c.16-.05.35-.03.48-.17l.04-.04-.05.04c-.17.03-.37-.03-.48.17-.11.04-.25-.04-.35.08.15.1.24-.02.36-.07Z"/>
    <path class="cls-2" d="M179.46,22.07c.05-.01.1-.03.14-.04-.05-.01-.1-.04-.15-.04-.05,0-.1.01-.16.02.03.09.11.04.16.06Z"/>
    <path class="cls-2" d="M182.67,24.99s-.01,0-.02,0c0,0,0,0-.01,0,0,0,.02,0,.02,0,0,0,0,0,0-.01Z"/>
    <path class="cls-2" d="M172.66,22.5s0,0,.01,0c0,0,0,0,0-.01,0,0,0,0,0,0,0,0,0,0,0,0Z"/>
    <path class="cls-2" d="M183.8,25.15c.08,0,.17,0,.25,0,.52,0,1.03-.02,1.55-.02.09.02.17.05.26.07.02-.08.07-.2.04-.21-.3-.2-.58-.51-1-.25-.39,0-.78-.06-1.17.04h-.04s0,.05,0,.05c-.28-.03-.55-.04-.83-.09-.26-.04-.15.17-.21.26.39-.07.76.09,1.13.15Z"/>
    <path class="cls-2" d="M143.77,39.37h0s0,0,0,0Z"/>
    <path class="cls-2" d="M144.45,39.29s0,.05,0,.07c.24,0,.46-.03.67,0,.38.06.74.04,1.09-.04-.55-.05-1.13-.08-1.75-.04Z"/>
    <path class="cls-2" d="M155.52,40.54c-.16-.11-.32-.24-.48-.36.21.17.41.32.6.45.01-.08-.06-.09-.12-.1Z"/>
    <path class="cls-2" d="M153.13,38.13c.08.11.16.23.25.34-.08-.13-.16-.24-.25-.34Z"/>
    <path class="cls-2" d="M186.83,22.58s0-.01-.01-.02c0,.01,0,.02,0,.03,0,0,.01-.01.02-.02Z"/>
    <path class="cls-2" d="M155.52,40.67s.12-.01.12-.03c-.72-.11-1.43-.22-2.12-.33.67.11,1.34.23,2,.36Z"/>
    <path class="cls-2" d="M185.88,25.2s0,0,0-.01c0,0,0,0,0,0,0,0,0,0,0,.01,0,0,0,0,.01,0Z"/>
    <path class="cls-2" d="M185.53,25.48c.72-.1,1.42.18,2.25.18-.67-.42-1.31-.33-1.9-.46.04.28-.31.07-.35.28Z"/>
    <path class="cls-2" d="M187.07,22.9s-.02,0-.03-.01c0,0,0,0,0,0h.04Z"/>
    <path class="cls-2" d="M186.68,22.74c.05.16.18.12.3.13-.12-.05-.19-.12-.17-.28-.06.06-.15.12-.14.15Z"/>
    <path class="cls-2" d="M187.05,22.88s-.05,0-.07,0c.02,0,.03.01.05.02,0,0,.02-.02.02-.01Z"/>
    <path class="cls-2" d="M183.33,20.93c-.17-.07-.3-.26-.59-.22.2.2.35.33.59.22Z"/>
    <path class="cls-2" d="M188.28,25.01c.26-.11.41.22.65.17-.03-.48-.35-.68-.75-.82-.87-.32-1.8-.44-2.64-.86-.18-.09-.42-.08-.63-.11-.7-.1-1.41-.07-2.01-.07.84.16,1.79.35,2.64.87.18.11.42.25.59.21.6-.15,1.01.19,1.46.46.1.06.17.12.25-.01-.15.17.02.17.11.21.09.13.17.31.36.13,0,0,0,0,0,0,0-.06,0-.12-.01-.18Z"/>
    <path class="cls-2" d="M188.3,25.18s0,0,0,0c0,0,0,0,.01-.01,0,0,0,0-.02.01Z"/>
    <path class="cls-2" d="M183.58,25.96c.93.13,1.86.26,2.79.39.96.14,1.92.22,2.86.44.32.08.42-.03.35-.34.09.03.17.07.26.1.07.05.15.16.23.06.09-.12-.06-.13-.12-.17-.07-.2-.25-.29-.42-.39-.32-.29-.62-.59-1.03-.74-.02-.1-.09-.13-.19-.13-.14.11-.02.17.06.24.15.24.5.28.6.58-.07.12-.15.11-.25.04-.3-.21-.65-.23-1-.22-.73,0-1.45-.05-2.17-.1-.73-.05-1.46-.08-2.19-.02.01.25.14.24.23.26Z"/>
    <path class="cls-2" d="M189.03,25.44s0,0,0,0c0,0,0-.02,0-.03,0,.02-.01.04,0,.05,0,0,.01-.02.02-.02Z"/>
    <path class="cls-2" d="M177.1,26.07c-.21-.12-.41-.07-.68,0,.28.07.48.09.68,0Z"/>
    <path class="cls-2" d="M188.96,25.19s0-.01,0-.02c0,0-.01,0-.02,0,0,0,0,0,0,.01,0,0,.01,0,.02,0Z"/>
    <path class="cls-2" d="M180.11,26.67c.75.03,1.76-.33,2.22-.78-1.49.21-1.53.23-2.22.78Z"/>
    <path class="cls-2" d="M176.78,27.72c-.27.23-.54.13-.83.11-.43-.03-.86-.04-1.28-.06-.19,0-.37-.02-.54.09-.42.27-.85.53-1.28.8-.09.06-.19.12-.14.25.05.11.16.13.26.1,1.08-.25,2.19-.42,3.2-.92l-.02.02c.37-.1.78-.07,1.14-.3-.17-.13-.37-.22-.52-.09Z"/>
    <path class="cls-2" d="M187.42,26.94c1,.09,1.95.47,2.96.68-.09-.3-.29-.29-.47-.32-2.16-.38-4.33-.76-6.49-1.14-.21-.04-.42-.1-.62.04-.36.26-.73.52-1.18.83.92-.05,1.71-.16,2.51-.01,1.45.25,2.92.4,4.36.71.09.02.22.09.32-.07-1.45-.43-2.93-.65-4.43-.76,1.03-.29,2.04-.06,3.05.03Z"/>
    <path class="cls-2" d="M173.11,22.3s.02,0,.03,0c0,0,.01-.01.02-.02-.01,0-.02,0-.03,0,0,0,0,0-.01.01Z"/>
    <path class="cls-2" d="M180.05,25.84c-.08.06-.22.19-.32-.01-.09.03-.11-.05-.17-.08-.07-.05-.2-.09-.14.1-.2-.05-.41-.14-.49.16-.19-.02-.43-.22-.48.17-.19-.06-.36-.06-.61.07.26.03.44.05.62.07-.05.28-.29.19-.45.2-.81.05-1.63.09-2.44.13-.06.53-.68.51-1.02,1.03,2.28-.33,4.28-.99,6.36-1.91-.41-.14-.63-.07-.86.09Z"/>
    <path class="cls-2" d="M174.63,26.61c.26.2.52-.08.78-.04-.26-.14-.51-.31-.78.04Z"/>
    <path class="cls-2" d="M175.42,26.56s.09.05.13.06c0,0,.01,0,.02,0,0,0,0,0,0,0-.05-.04-.1-.05-.15-.06Z"/>
    <path class="cls-2" d="M188.96,25.19c.02.08.04.15.06.22.03-.09.14-.2-.06-.22Z"/>
    <path class="cls-2" d="M175.55,23.83s-.08-.01-.12-.02c.02.01.03.02.05.04.02,0,.04-.01.06-.02Z"/>
    <path class="cls-2" d="M179.12,23.85c-.63.12-1.26.4-1.88.37-.91-.04-1.73.19-2.58.45-.23.07-.47.29-.74.07-.01-.18.11-.2.24-.25.33-.12.65-.26,1.03-.62-1.73.36-3.19.99-4.67,1.57-.1.1-.31.05-.34.24-.16-.06-.32,0-.45.06-2.11,1.01-4.19,2.06-6.03,3.53-.16.12-.35.22-.45.47.63.25,1.13.32,1.72-.14,1.31-1.04,2.78-1.85,4.26-2.6.5-.24,1.01-.47,1.51-.73.15-.08.39-.08.37-.35.15-.03.35,0,.39-.22.07.02.15.05.21.03,1.33-.4,2.73-.51,4.03-1,.24-.09.5-.22.78-.12.3.11.6.04.87-.05.71-.22,1.45-.08,2.17-.26.36-.09.72-.22,1.11-.24.39-.02.79,0,1.22-.18-.96-.21-1.87-.17-2.77,0Z"/>
    <path class="cls-2" d="M170.16,24.59c-3.22,1.09-6.16,2.63-8.82,4.89.74.24,1.25.05,1.79-.36,1.9-1.46,3.95-2.68,6.13-3.69.4-.18.59-.57.9-.84Z"/>
    <path class="cls-2" d="M174.26,21.92c-.38.1-.82,0-1.11.37,1.53-.06,2.97-.52,4.42-.93-1.1.21-2.23.27-3.31.56Z"/>
    <path class="cls-2" d="M178.73,22.72c1.36-.18,2.69-.46,3.99-.86.28-.09.54-.11.82-.04-.05-.02-.09-.03-.12-.06-.4-.4-.78-.83-1.27-.1-.02.04-.15.02-.23,0-.31-.07-.59.08-.85.19-.92.4-1.88.63-2.87.77-1.17.17-2.32.54-3.51.49-.78-.04-1.37.28-2.13.76,1.02,0,1.81-.22,2.61-.41,1.17-.29,2.34-.59,3.54-.75Z"/>
    <path class="cls-2" d="M179.17,21.46c-.61.13-1.13.16-1.64.46.68-.03.95-.1,1.64-.46Z"/>
    <path class="cls-2" d="M184.81,23c.6.1,1.18.28,1.79.33-.38-.22-.75-.41-1.17-.51-.1-.02-.3.01-.26-.2.07-.35-.19-.34-.39-.34-.48,0-.99-.05-1.44.07-1.01.25-2.04.37-3.06.54-.78.13-1.58.16-2.34.45,1.37.06,2.71-.24,4.07-.36.94-.09,1.86-.13,2.81.03Z"/>
    <path class="cls-2" d="M189.35,25.53s-.02.02-.04.03c.03.02.04.02.04-.03Z"/>
    <path class="cls-2" d="M189.32,25.56s-.01,0-.03-.02c-.01-.01-.05-.02-.06-.02-.02,0-.03.03-.04.05,0,0,0,0,0,0,.06.05.1.02.14-.02Z"/>
    <path class="cls-2" d="M189.18,25.58s0,0,0,0c.02-.05.1-.1.03-.17-.09-.1-.14-.03-.18.03.1-.01.19-.01.15.14Z"/>
    <path class="cls-2" d="M169.9,31.03c.67.14,1.34.26,2.01.38-.73-.14-1.39-.27-2.01-.38Z"/>
    <path class="cls-2" d="M160.12,29.67c.09-.08.19-.15.28-.23-.08-.01-.17-.02-.26-.04-.03.07-.04.15-.02.27Z"/>
    <path class="cls-2" d="M159.73,29.35c-.26-.04-.54-.07-.85-.07-.11.09-.21.18-.33.26.49.14.85.02,1.18-.19Z"/>
    <path class="cls-2" d="M167.84,30.65c-.3-.05-.58-.11-.86-.16.29.12.57.18.86.16Z"/>
    <path class="cls-2" d="M165.18,30.18c.41.12.77.2,1.12.2-.39-.07-.77-.14-1.12-.2Z"/>
    <path class="cls-2" d="M142.77,39.59s.04-.02.07-.03c-.02,0-.04.01-.06.02,0,0,0,0,0,.01Z"/>
    <path class="cls-3" d="M166.98,30.49c-.24-.04-.46-.08-.68-.12-.35,0-.71-.08-1.12-.2-1.8-.31-3.13-.5-4.78-.74-.09.08.21.15.12.23-.02-.12-.09-.16-.06-.22-.11-.02-.53-.08-.65-.09-.03,0-.05,0-.08-.01-.33.21.43.48.05.06.12-.08-1.01-.04-.9-.13-.29,0-.59.01-.93.08-.03,0-.06.02-.1.02-.41.35-.85.65-1.43.75-.17.03-.34.15-.42.33.82.14,1.63.39,2.47.39.84-.28,1.71-.2,2.56-.11,2.17.22,4.32.58,6.46.97,6.19,1.14,12.33,2.49,18.53,3.59,1.04.18,2.07.37,3.11.55-3.25-1.17-6.56-2.07-9.88-2.95-2.24-.59-4.53-.97-6.81-1.38-.17-.03-.33-.06-.49-.09-.02,0-.03,0-.04,0-.67-.12-1.34-.25-2.01-.38-.75-.14-1.44-.27-2.06-.38-.28.03-.57-.04-.86-.16Z"/>
    <path class="cls-3" d="M189.22,47.8c-5.7-1.9-11.58-3.06-17.47-4.2-2.85-.55-5.73-.94-8.56-1.62-2.29-.56-4.47-1.38-6.46-2.66-.77-.49-1.51-1.04-2.03-1.82-.76-.29-1.54-.52-2.34-.66.19.39.44.83.76,1.29.09.1.17.22.25.34,0,0,0,0,0,0,.55.73,1.14,1.28,1.67,1.71.16.12.32.24.48.36.06,0,.13.01.12.1,0,.01-.08.02-.12.03-.67-.12-1.33-.24-2-.36-2.31-.35-4.45-.63-6.41-.88-.3-.04-.6-.07-.91-.1-.34.08-.7.1-1.09.04-.21-.03-.43,0-.67,0,0-.02,0-.05,0-.07-.22.02-.45.04-.69.08,0,0,0,0,0,0-.28.04-.57.09-.87.17-.02,0-.04.01-.06.02-.02,0-.04.02-.07.03,0,0,0,0,0-.01-1.17.32-1.47.68-2.16.85.02.03.04.06.06.09.12.05.23.14.35.16,1.09.17,2.19.34,3.28.5.12-.28.4-.25.62-.27.89-.08,1.78-.06,2.66.02,3.97.34,7.9,1.02,11.8,1.81,5.64,1.14,11.28,2.25,16.93,3.34,2.85.55,5.71,1.08,8.49,1.96,1.32.42,2.72.59,4.07.9,1.62.37,3.28.52,4.86,1.08.42-.17.76.46,1.18.1-.1-.06-.21-.13-.32-.19-1.74-.85-3.55-1.51-5.39-2.12Z"/>
    <path class="cls-3" d="M147.71,32.42c.16-.3.22-.63.26-.96-.08-.03-.16-.05-.22.02-.03.03-.05.06-.08.09-.06.35-.11.71-.17,1.06.07-.07.14-.14.21-.21Z"/>
    <path class="cls-4" d="M195.62,30.66c-.12-.11-.22-.25-.35-.34-1.03-.68-1.98-1.46-2.89-2.27-.05.05-.1.09-.15.14.11.16.22.33.35.51-.67-.09-1.14-.59-1.73-.8-.13-.04-.14-.17-.1-.26.05-.12.17-.09.27-.06.3.1.6.2.9.31l.14-.16c-.2-.22-.39-.44-.59-.65-1.14-1.14-2.09-2.45-3.3-3.53-.42-.37-.76-.84-1.34-1,0,0,0,0,0,0,0,0,0,.01.01.02,0,0-.01.01-.02.02-.03.15.05.23.17.28.03,0,.05,0,.07,0,0,0-.01,0-.02.01.01,0,.02,0,.03.01h-.04s0,0,0-.01c-.02,0-.04-.01-.05-.02-.12,0-.25.04-.3-.13-.01-.03.08-.1.14-.15,0-.01,0-.02,0-.03-.37-.5-.78-.93-1.42-1.07,0,.04.02.08.01.12.1,0,.16.04.18.14.08.02.18.08.14.14-.07.13-.18.05-.27,0-.06-.04-.11-.09-.17-.13-.15-.13-.45-.13-.41-.44-.06.02-.11.07-.18,0-.04-.04-.04-.06-.03-.09-.09.05-.17-.04-.24-.09-.47-.31-.92-.64-1.39-.95-1.34-.87-2.86-1.26-4.39-1.59-.15-.03-.35-.09-.41.12-.07.23.16.24.29.28.13.04.27.05.4.08,1.07.28,2.13.58,3.12,1.09.11.06.32.08.23.31-.24.02-.41-.13-.6-.22-2.24-1.1-4.6-1.27-7.01-.9-1.04.16-2.06.53-3.13.23.57-.27,1.21-.33,1.84-.46.6-.12,1.2-.21,1.8-.31-.23-.09-.44-.11-.66-.09-2.02.21-3.97.68-5.88,1.42-1.84.71-3.61,1.55-5.4,2.36-.13.06-.31.1-.23.31.63.06,1.04-.53,1.65-.56-.02.14-.14.19-.11.31.2.11.36-.02.48-.14.23-.24.54-.34.81-.5.75-.43,1.6-.63,2.37-1,.95-.45,2-.57,2.99-.92.09-.03.22-.06.35.06-.59.19-1.17.33-1.7.55-.54.23-1.06.51-1.51.89l.23.22c.84-.34,1.68-.7,2.53-1.03,2.06-.79,4.2-1.16,6.39-1.01,1.38.09,2.75.37,4,1.06-1.58-.41-3.19-.65-4.82-.7.08.11.09.32.32.25-.09.12-.22.05-.33.08-.65.15-1.3.29-1.95.44-.3.56-.3.59-.99.57-.6-.02-1.17.1-1.74.26-1.79.49-3.33,1.45-5.11,1.99-.87.27-6.5,4.5-7.04,5.68.05.05.51-.26.56-.21.23-.14,4.72-3.96,4.96-4.11.98-.58,1.82-.88,2.82-1.4.12-.06.49-.22.6-.26,1.32-.47,2.11-.15,3.16-.4.78-.18,1.56-.36,2.35-.51-4.91,1.7-9.73,3.57-13.86,6.97,1.65.24,2.97.43,4.78.74-.07-.02-.14-.04-.22-.06.99-.63,1.85-1.22,2.75-1.74,2.21-1.27,4.51-2.35,7.02-2.92.36-.08.73-.16,1.09-.24.8-.12,1.6-.31,2.41-.26l.7-.02c.57-.31,1.2-.14,1.8-.19.65-.06,1.27.14,1.9.26,0,0,0,0,.01,0,0,0,.01,0,.02,0,.06-.09-.04-.31.21-.26.27.05.55.06.83.09v-.04s.03,0,.03,0c.38-.1.78-.04,1.17-.04.42-.26.7.05,1,.25.02.02-.02.13-.04.21,0,0,0,0,0,0,0,0,0,0,0,.01.59.13,1.24.04,1.9.46-.83,0-1.53-.28-2.25-.18.03-.21.38,0,.35-.28,0,0,0,0-.01,0,0,0,0,0,0-.01-.09-.02-.17-.05-.26-.07-.52,0-1.03.02-1.55.02-.08,0-.17,0-.25,0-.38-.06-.74-.23-1.13-.15,0,0,0,0,0,.01,0,0-.02,0-.02,0-.53.35-1.1.37-1.69.16-.92.06-1.85.12-2.77.17-1.22.07-2.4.33-3.56.69-.16.05-.48.33-.64-.07l-.52.32h-.04s-.02-.02-.02-.02c-1.35.73-2.77,1.29-4.06,2.14-.63.42-1.27.82-1.9,1.23-.09.06-.98.61-.96.74.2.28,1.17-.45,1.31-.55.65-.43,1.38-.72,2.07-1.07.19-.32.51-.44.83-.56.32-.15.64-.31.95-.46.79-.52,1.67-.68,2.73-.82-.47.54-1.13.23-1.45.68.1.03.2.05.45.12-1.48.69-2.66,1.67-4.07,2.25-.22.09-.48.15-.65.31-.27.25-.54.36-.82.39.62.11,1.31.24,2.06.38-.27-.05-.54-.11-.8-.16,1.09-.69,2.18-1.3,3.27-1.91.1-.05.26-.07.28.03.05.42.35.26.54.23,2.1-.3,4.21-.6,6.23-1.29.82-.28,1.59-.65,2.51-.57.56.05,1.15-.07,1.86-.02-1.3.35-2.54.3-3.7.71,1.18-.07,2.36-.17,3.54-.29,1.14-.12,2.25-.1,3.31.39.17.08.39.21.53.08.28-.26.55-.11.82-.04.81.19,1.63.37,2.43.58.96.25,1.94.46,2.73,1.14.09.08.21.22.35.12.31-.23.46.01.66.17.31.24.65.45.96.69.12.09.2.04.27-.04.06-.07,0-.14-.06-.2ZM187.63,23.65c-.31.12-.5-.09-.71-.17.22.1.5-.29.71.17ZM183.33,20.93s.02,0,.02,0c0,0,0,.01-.01.02.02.04.04.08.05.13-.02,0-.04.02-.05.01-.07-.05-.05-.1,0-.14,0,0,0,0,0,0,0,0,0,0,0,0-.24.1-.39-.02-.59-.22.29-.04.41.16.59.22ZM182.53,20.52s.07.03.11.05c-.02.02-.04.04-.06.06-.03-.02-.07-.04-.11-.06.02-.02.04-.05.05-.05ZM180.7,21.62c.11-.19.31-.13.48-.17l.05-.04-.04.04c-.13.13-.32.12-.48.17-.11.04-.21.17-.36.07.1-.12.24-.04.35-.08ZM179.46,21.99s.1.03.15.04c-.05.01-.09.03-.14.04-.05-.02-.13.03-.16-.06.05,0,.11-.03.16-.02ZM173.15,22.29s-.01.01-.02.02c0,0-.02,0-.03,0-.1.15-.31.08-.43.19,0,0,0,0,0,.01,0,0,0,0-.01,0-.15.08-.32.13-.49.11,0,0,0,.01,0,.02,0,0-.01,0-.02,0-.11.12-.22.17-.38.05.12-.12.25-.11.38-.05,0,0,0,0,0,0,0,0,.01,0,.02,0,.09-.34.3-.2.49-.11,0,0,0,0,0,0,0,0,0,0,0,0,0-.41.25-.21.43-.19,0,0,.01,0,.01-.01.01,0,.02,0,.03,0,.29-.37.73-.27,1.11-.37,1.09-.3,2.21-.35,3.31-.56-1.45.42-2.9.88-4.42.93ZM179.17,21.46c-.69.36-.96.43-1.64.46.51-.3,1.03-.33,1.64-.46ZM174.71,23.12c1.19.06,2.34-.31,3.51-.49.99-.15,1.95-.37,2.87-.77.25-.11.53-.26.85-.19.08.02.2.04.23,0,.49-.73.87-.3,1.27.1.03.03.07.04.12.06.08.02.16.05.25.09-.09-.04-.17-.06-.25-.09-.29-.08-.54-.05-.82.04-1.3.4-2.64.67-3.99.86-1.2.16-2.37.46-3.54.75-.8.19-1.59.42-2.61.41.76-.48,1.34-.8,2.13-.76ZM175.55,23.83s-.04.01-.06.02c-.02-.01-.03-.02-.05-.04.04,0,.08.01.12.02ZM161.34,29.48c2.66-2.26,5.6-3.81,8.82-4.89-.31.28-.5.66-.9.84-2.18,1.01-4.23,2.23-6.13,3.69-.54.41-1.04.6-1.79.36ZM180.67,24.03c-.38.02-.75.15-1.11.24-.72.18-1.46.04-2.17.26-.27.08-.57.16-.87.05-.27-.1-.54.03-.78.12-1.31.49-2.71.6-4.03,1-.06.02-.14-.01-.21-.03-.04.22-.23.19-.39.22.03.27-.22.28-.37.35-.5.26-1.01.49-1.51.73-1.48.76-2.95,1.57-4.26,2.6-.59.47-1.09.4-1.72.14.09-.25.29-.34.45-.47,1.84-1.46,3.92-2.52,6.03-3.53.14-.07.29-.13.45-.06.03-.19.24-.14.34-.24,1.48-.58,2.94-1.21,4.67-1.57-.37.37-.7.5-1.03.62-.13.05-1.48.4-1.47.57,1.32.17,1.79-.25,2.01-.32.84-.25,1.62-.56,2.53-.52.62.03,1.25-.25,1.88-.37.9-.17,1.81-.21,2.77,0-.43.18-.83.16-1.22.18ZM182.01,22.97c-1.36.13-2.7.43-4.07.36.76-.29,1.56-.32,2.34-.45,1.02-.17,2.05-.29,3.06-.54.46-.11.96-.07,1.44-.07.2,0,.46-.01.39.34-.04.21.16.17.26.2.42.1.8.3,1.17.51-.61-.04-1.2-.22-1.79-.33-.94-.16-1.87-.11-2.81-.03ZM185.53,25.72c.72.05,1.45.11,2.17.1.35,0,.7.02,1,.22.1.07.79.76,1.09.62.1-.31-1.29-1-1.44-1.24-.08-.07-.19-.14-.06-.24,0,0,0,0,0,0-.19.18-.27,0-.36-.13-.1-.04-.26-.03-.11-.21-.08.13-.15.07-.25.01-.44-.28-.85-.62-1.46-.46-.17.04-.41-.1-.59-.21-.85-.52-1.8-.71-2.64-.87.6,0,1.31-.03,2.01.07.21.03.45.02.63.11.84.42,1.77.54,2.64.86.4.14.73.34.75.82,0,0,.01,0,.02,0,0,0,0,.01,0,.02.2.03.09.14.06.22,0,0,0,.02,0,.03,0,0,0,0,0,0,.05-.06.09-.13.18-.03.07.07-.02.11-.03.17.01-.02.03-.04.04-.05.02,0,.05,0,.06.02.01.01.02.01.03.02.01-.01.02-.02.04-.03,0,.06,0,.06-.04.03-.04.04-.07.07-.14.02,0,0,0,0,0,0,0,0,0,0,0,0,.04-.15-.05-.15-.15-.14,0,0-.01.02-.02.02,0-.02,0-.03,0-.05-.02-.07-.04-.15-.06-.22,0,0-.01,0-.02,0,0,0,0,0,0-.01-.24.05-.39-.28-.65-.17,0,.06,0,.12.01.18,0,0,0,0,0,0,0,0,0,0,.02-.01,0,0,0,0-.01.01.09,0,.16.02.19.13.41.16.72.46,1.03.74.16.11.35.19.42.39.07.04.22.04.12.17-.08.11-.16,0-.23-.06-.09-.03-.17-.07-.26-.1.07.31-.03.41-.35.34-.94-.23-1.91-.31-2.86-.44-.93-.13-1.86-.26-2.79-.39-.1-.01-.22,0-.23-.26.73-.06,1.46-.03,2.19.02ZM177.1,26.07c-.21.1-.4.08-.68,0,.27-.08.47-.13.68,0ZM176.16,28.1l.02-.02c-1.01.5-2.12.67-3.2.92-.11.02-.22.01-.26-.1-.05-.12.04-.19.14-.25.43-.27.86-.53,1.28-.8.17-.11.35-.1.54-.09.43.02.86.03,1.28.06.29.02.56.12.83-.11.15-.13.35-.04.52.09-.36.23-.77.2-1.14.3ZM174.55,27.66c.34-.52.96-.51,1.02-1.03,0,0-.01,0-.02,0-.04-.02-.09-.04-.13-.06-.26-.04-.52.24-.78.04.27-.36.53-.18.78-.04.05,0,.1.02.15.06,0,0,0,0,0,0,.82-.04,1.63-.07,2.44-.13.16-.01,1.86-.55,1.91-.82-.18-.02-1.82.59-2.08.56.25-.13.43-.13.61-.07.05-.38.29-.19.48-.17.09-.3.3-.2.49-.16-.06-.18.07-.14.14-.1.05.04-1.51.76-1.42.73.09.2,1.87-.49,1.9-.63.05-.27.45-.23.86-.09-2.08.92-4.08,1.58-6.36,1.91ZM180.11,26.67c.69-.55.73-.57,2.22-.78-.46.45-1.47.81-2.22.78ZM188.81,27.67c-.09.15-.22.09-.32.07-1.44-.31-2.91-.45-4.36-.71-.8-.14-1.6-.03-2.51.01.45-.32.82-.57,1.18-.83.2-.15.41-.08.62-.04,2.16.38,4.33.76,6.49,1.14.18.03.39.02.47.32-1.01-.21-1.96-.59-2.96-.68-1.01-.09-2.02-.32-3.05-.03,1.5.1,2.98.32,4.43.76Z"/>
    <path class="cls-4" d="M158.89,29.27c.51-.42.92-.91,1.38-1.35,1.56-1.48,3.12-2.96,4.51-4.61-.04-.04-.08-.08-.11-.11-.75.6-1.55,1.13-2.17,1.87-.37.44-.97.62-1.31,1.03-.69.85-1.47,1.62-2.3,2.32-.35.3-.67.64-1.02.95.03,0,.06-.02.1-.02.34-.07.65-.09.93-.08Z"/>
    <path class="cls-4" d="M143.88,39.13c-.02.1-.02.21-.11.24.23-.04.46-.06.69-.08-.03-.36.13-.67.22-1,.38-1.48.86-2.92,1.71-4.21.16-.24.3-.52.52-.74.18-.25.61-.73.84-.95.18-.29.23-.95.28-1.3-1.75,1.96-3.46,4.62-4.01,7.24-.05.26-.09.53-.13.8Z"/>
    <path class="cls-4" d="M143.15,38.47c-.07.35.31.85-.31,1.09.02,0,.04-.01.06-.02.3-.08.59-.13.87-.17-.03.01-.06.01-.11,0-.16-.03-.22-.13-.19-.29.06-.4.08-.8.17-1.2.45-2.14,1.45-4.03,2.72-5.79.28-.39.56-.79.84-1.18.07-.1.1-.19,0-.29-.14-.14-.23-.03-.32.07-.14.16-.29.32-.41.5-.57.87-1.13,1.75-1.71,2.62-.09.13-.11.39-.39.34-.01-.59.2-1.17.14-1.76,0-.1.02-.23-.14-.24-.15-.01-.17.09-.19.2-.36,2.26-1.28,4.38-1.63,6.63-.08.53-.32.89-.96.81.02-2.42,1.14-4.68,1.09-7.1-.21-.04-.37.05-.39.15-.09.75-.45,1.43-.62,2.16-.42,1.78-.45,3.63-1.07,5.36,0,.01,0,.03.02.05.69-.17.99-.53,2.16-.85.01-.47.24-.78.37-1.11ZM143.27,37.63c.1.13.06.24.03.37-.11-.12-.04-.24-.03-.37Z"/>
    <path class="cls-4" d="M152.54,37.41c-1.25.62-2.58.97-3.94,1.27.82.11,1.59-.13,2.36-.32.6-.15,1.21-.57,1.76-.49.16.02.29.12.4.25-.32-.46-.57-.9-.76-1.29-.08.23.22.35.18.58Z"/>
    <path class="cls-4" d="M148.07,38.43c-.19-.09-.29.08-.41.17-.45.35-.93.61-1.45.73.31.03.61.07.91.1.23-.48.88-.46.95-1Z"/>
    <path class="cls-3" d="M153.52,40.31c-2.12-.36-4.25-.68-6.41-.88,1.96.25,4.1.54,6.41.88Z"/>
    <path class="cls-3" d="M155.04,40.19c-.53-.43-1.11-.98-1.67-1.71,0,0,0,0,0,0,.15.24.29.5.47.69.37.38.78.71,1.2,1.02Z"/>
  </g>
  <polygon class="cls-4" points="147.88 38.78 147.81 38.46 149.09 37.19 149.49 36.78 149.73 37.08 149.25 37.51 148.55 38.18 148.35 38.36 148.15 38.55 147.88 38.78"/>
</svg>