<?xml version="1.0" encoding="UTF-8"?>
<svg id="Calque_1" xmlns="http://www.w3.org/2000/svg" viewBox="0 0 253.44 435.38">
  <path stroke="currentColor" stroke-width="8" fill="currentColor" d="M95.11,64.98c.24,4.92.53,9.06.61,13.19.09,5.07.14,10.15-.04,15.21-.2,5.63-3.82,8.69-8.87,9.62-3.52.65-7.37.69-10.87-.04-6.51-1.35-9.41-5.55-9.37-13.41.04-7.31.72-14.61,1.12-21.92.05-.95.12-1.89-.09-2.9-2.98,3.4-5,7.16-5.16,11.72-.51,13.97-1.01,27.93-1.53,41.9-.49,13.13-.97,26.27-1.48,39.4-.65,16.54-1.32,33.08-2.02,49.62-.64,15.21-.91,30.45-2.09,45.61-1.49,19.14-3.61,38.25-5.73,57.34-1.19,10.69-3.5,21.18-7.06,31.36-.55,1.57-.99,3.21-1.8,4.64-.44.77-1.56,1.15-2.38,1.7-.18-.97-.73-2.06-.47-2.89.9-2.85,2.08-5.61,3.15-8.4,4.04-10.52,5.38-21.63,6.89-32.66,1.41-10.3,2.45-20.65,3.39-31,.75-8.28,1.21-16.59,1.63-24.9.72-14.04,1.32-28.08,1.94-42.13.38-8.73.76-17.45,1.05-26.18.4-11.97.72-23.95,1.07-35.93.12-3.99-1.28-7.42-4.3-10.39,0,2.75.02,5.5,0,8.25-.06,6.48,0,12.97-.25,19.44-.15,3.64-2.61,5.66-5.88,7.01-4.87,2-9.65,2.47-14.47,0-2.35-1.2-4.15-2.8-4.86-5.55-1.39-5.42-1.46-10.81-.66-16.33.61-4.24.61-8.56.88-12.85-.25-.12-.5-.23-.75-.35-1.08,2.12-2.72,4.15-3.13,6.39-1,5.54-1.63,11.17-2.05,16.79-.94,12.6-1.68,25.21-2.48,37.82-.56,8.88-.98,17.77-1.62,26.64-.51,7.05-1.29,14.07-1.87,21.11-.74,8.94-1.33,17.9-2.1,26.84-1.06,12.26-2.26,24.5-3.35,36.75-.76,8.53-1.41,17.07-2.17,25.6-.9,10.1-1.93,20.19-2.79,30.29-.51,5.96-.88,11.94-1.16,17.92-.41,8.8-.9,17.62-.92,26.43-.03,8.56.48,17.12.75,25.68,0,.08.05.18.03.25-.51,1.29-1.02,3.66-1.55,3.66-2.06.01-1.8-1.98-1.82-3.4-.2-13.23-.61-26.47-.42-39.7.13-8.88,1.13-17.75,1.78-26.62.69-9.45,1.36-18.91,2.16-28.35.8-9.36,1.78-18.71,2.64-28.06.64-6.95,1.2-13.91,1.82-20.87.94-10.52,1.94-21.03,2.84-31.55.63-7.37,1.13-14.75,1.67-22.13.8-10.86,1.62-21.72,2.37-32.58.58-8.29,1.07-16.59,1.61-24.89.63-9.7,1.26-19.41,1.9-29.11.15-2.32.16-4.67.57-6.95.95-5.25,3.33-9.64,7.84-12.83,1.08-.77,1.75-2.39,2.16-3.76.99-3.25,1.6-6.62,2.62-9.86.29-.91,1.47-2.15,2.28-2.18,3.96-.13,7.95-.05,11.9.33.87.08,1.97,1.56,2.33,2.61.98,2.91,2.03,5.9,2.29,8.92.37,4.27,3.61,6,6.38,9.08.27-2.95.59-5.23.67-7.53.56-15.63,1.05-31.26,1.6-46.9.24-6.81,2.26-12.86,7.3-17.78,1.13-1.11,1.65-3.01,2.07-4.65,1.22-4.66,2.26-9.38,3.34-14.08.48-2.09,1.82-3.18,3.87-3.26,3.57-.14,7.16-.27,10.73-.1.92.04,2.28,1.04,2.61,1.92,1.52,4.1,3.32,8.23,3.91,12.51.64,4.69,2.44,8.31,6.39,11.51.09-1.03.18-1.85.23-2.67.51-8.96.95-17.93,1.55-26.89.34-5.03,2.65-9.26,6.14-12.79,1.6-1.62,2.45-3.4,2.9-5.62.84-4.16,1.9-8.28,3.01-12.37C114.63.73,115.66.05,119.92.03c2.58-.01,5.17.02,7.75-.03,1.61-.03,2.74.53,3.24,2.14,1.65,5.31,3.3,10.62,4.97,15.92.29.93.46,2.07,1.1,2.7,5.78,5.69,7.13,12.91,7.47,20.57.43,9.63.98,19.26,1.49,28.89.02.38.16.74-.61.03,2.28-1.66,4.91-3.02,6.72-5.1,1.09-1.25.88-3.62,1.33-5.46.99-4.12,1.9-8.26,3.12-12.32.29-.95,1.64-2.16,2.57-2.22,4.38-.29,8.79-.33,13.17-.18.85.03,2.15,1.19,2.4,2.07,1.26,4.46,2.4,8.98,3.27,13.53.53,2.78,1.42,5.09,3.44,7.23,4.17,4.42,5.77,9.96,6.12,15.98.71,12.04,1.54,24.07,2.38,36.09.67,9.62,1.37,19.25,2.15,28.86.7,8.62,1.54,17.23,2.31,25.84.89,9.94,1.74,19.88,2.68,29.82,1.23,13,2.49,26,3.82,38.99,1.36,13.32,2.75,26.64,4.23,39.95,1.31,11.82,2.76,23.63,4.15,35.45.43,3.63.85,7.27,1.3,10.9.1.79.29,1.56.44,2.34.24,0,.47,0,.71,0,.26-2.76.66-5.51.74-8.27.26-8.57.1-17.16.65-25.7.8-12.53,2.81-24.86,9.56-35.82,2.97-4.82,6.74-8.86,12.2-11.04.73-.29,1.5-1.34,1.62-2.14.35-2.29.2-4.67.59-6.95.33-1.92.84-3.95,1.86-5.56.58-.91,2.38-1.5,3.58-1.42.91.06,2.29,1.28,2.51,2.21,1.15,4.77,1.95,9.61,2.94,14.42,2.22,10.82,3.05,21.76,2.56,32.78-.17,3.73-.82,7.44-1.13,11.16-.09,1.12-.06,2.38.35,3.4,3.81,9.4,3.39,19.23,3.19,29.06-.1,4.81.08,9.63.18,14.44.13,6.15.45,12.31.41,18.46-.06,11.24-.14,22.48-.55,33.7-.46,12.63-1.27,25.25-2.02,37.87-.05.79-.88,1.54-1.35,2.31-.36-.82-1.07-1.66-1.04-2.47.31-7.23.75-14.45,1.14-21.68.26-4.82.67-9.63.74-14.45.25-16.15.45-32.3.5-48.44.01-4.65-.77-9.29-.83-13.94-.07-5.23.65-10.5.3-15.7-.37-5.52-1.5-11-2.51-16.46-.2-1.07-1.13-2.3-2.08-2.89-5.87-3.7-8.63-9.03-8.77-15.85-.18-8.82-.35-17.64-.54-26.46-.06-2.79-.91-3.25-3.37-1.72-5.48,3.4-8.69,8.64-11.27,14.3-4.17,9.16-5.61,18.99-6.24,28.89-.56,8.8-.33,17.64-.68,26.45-.22,5.64-.97,11.27-1.25,16.91-.13,2.63.08,5.32.49,7.93,3.35,21.38,6.79,42.74,10.18,64.11.14.9.23,1.85.1,2.73-.08.53-.65.98-1,1.47-.44-.42-1.13-.77-1.26-1.27-.29-1.11-.27-2.31-.44-3.46-2.78-17.93-5.48-35.87-8.4-53.77-1.47-9.03-3.64-17.96-4.98-27.01-1.59-10.77-2.63-21.63-3.89-32.45-1.42-12.23-2.84-24.46-4.2-36.69-.65-5.87-1.16-11.75-1.76-17.63-.9-8.93-1.85-17.86-2.73-26.8-.96-9.85-1.89-19.7-2.78-29.56-.98-10.85-1.93-21.7-2.83-32.56-.79-9.53-1.47-19.07-2.21-28.61-.76-9.78-1.58-19.56-2.3-29.35-.45-6.14-.61-12.3-1.21-18.42-.35-3.55-1.78-6.83-4.73-9.42.15,1.92.42,3.85.43,5.77.03,7.23.05,14.46-.07,21.69-.09,5.55-3.23,8.85-8.48,9.9-5.1,1.02-10.45,1.63-14.92-1.7-1.98-1.47-3.97-4.01-4.36-6.32-.87-5.29-.85-10.74-1.02-16.13-.14-4.36-.03-8.72-.33-13.19-1.92,2.48-3.92,4.92-3.9,8.25.08,14.47.19,28.93.37,43.4.07,5.41.37,10.81.5,16.22.22,9.73.42,19.47.58,29.21.21,12.98.32,25.97.57,38.95.26,13.23.38,26.47,1.04,39.68.58,11.79,1.59,23.57,2.8,35.31,1.26,12.24,3.01,24.43,4.44,36.65.14,1.16-.46,2.41-.72,3.62-.58-1.05-1.54-2.06-1.68-3.17-1.75-13.78-3.68-27.54-4.95-41.37-1.23-13.49-1.81-27.04-2.53-40.57-.35-6.48-.41-12.97-.52-19.46-.21-12.9-.30-25.8-.55-38.70-.25-12.73-.61-25.45-.96-38.18-.30-10.90-.65-21.79-.98-32.68-.50-16.38-.92-32.77-1.53-49.14-.29-7.72-.83-15.45-1.52-23.15-.31-3.53-1.34-6.97-4.33-10.25,0,2.52-.03,4.38,0,6.25.13,6.57.42,13.14.38,19.71-.04,7.37-4.15,11.94-11.47,12.66-2.85.28-5.85.06-8.67-.5-5.36-1.07-9.21-6.5-9.24-13.33-.03-7.48.46-14.96.72-22.43.01-.32-.05-.64-.12-1.44-2.28,1.46-3.18,3.53-3.6,5.57-.76,3.64-1.11,7.36-1.53,11.06-.27,2.31-.48,4.64-.53,6.96-.22,11.23-.31,22.47-.57,33.7-.47,20.13-1,40.26-1.54,60.39-.26,9.65-.69,19.29-.86,28.94-.28,16.48-.12,32.97-.69,49.44-.6,17.37-1.44,34.74-2.92,52.05-1.26,14.74-3.54,29.39-5.5,44.06-.17,1.27-1.27,2.42-1.94,3.63-.17-1.34-.63-2.71-.46-4.01,1.24-9.49,2.97-18.92,3.86-28.44,1.48-15.89,2.63-31.82,3.58-47.76.64-10.78.77-21.59.98-32.39.27-14.32.33-28.63.6-42.95.25-13.56.63-27.12.99-40.68.30-11.48.66-22.95.99-34.43.14-4.74.71-9.52.27-14.20-.33-3.53-1.94-6.95-3.05-10.40-.15-.47-.72-.81-1.61-1.76ZM134.41,42.44h.22c-.25-5.57-.11-11.18-.84-16.68-.9-6.82-2.49-13.54-3.82-20.30-.42-2.11-1.69-3.07-3.94-2.84-1.65.17-3.33.06-4.99.08-3.92.04-4.83.74-5.43,4.62-1.51,9.75-3.21,19.49-4.30,29.29-.66,5.90-1,11.95.85,17.82,1.17,3.72,3.66,5.98,7.47,6.42,2.36.27,4.85.23,7.18-.20,5.11-.95,7.39-3.77,7.59-8.97.11-3.07.02-6.15.02-9.23ZM154.51,86.06c0,3.66-.11,7.24.03,10.81.17,4.42,2.33,7.37,6.65,8.17,3.04.56,6.34.60,9.38.06,4.62-.82,5.94-2.64,6.47-7.26.24-2.06.36-4.14.44-6.21.51-12.45-1.24-24.72-3.27-36.94-1.18-7.09-1.26-7.15-8.43-7.08-6.61.06-5.84-1.50-7.82,6.17-2.74,10.59-3.99,21.40-3.45,32.29ZM69.19,84.39c.11,0,.21.02.32.03,0,1.17-.01,2.33,0,3.50.10,9.84,3.44,13.02,13.24,12.64.42-.02.83-.03,1.25-.09,5.94-.77,7.55-2.28,8.64-8.17.21-1.14.34-2.32.30-3.47-.33-7.89-.47-15.80-1.17-23.66-.47-5.20-1.64-10.34-2.77-15.45-.57-2.56-1.06-5.93-2.83-7.22-1.75-1.27-5.08-.39-7.71-.45-.08,0-.17.01-.25,0-2.65-.32-3.97.79-4.33,3.50-.84,6.34-2,12.64-2.77,18.99-.80,6.60-1.29,13.23-1.91,19.85ZM49.82,152.31c-.14,0-.29,0-.43,0,0-5.24.32-10.50-.09-15.70-.43-5.37-1.26-10.75-2.49-15.99-1.22-5.20-1.54-5.12-7-5.07-.42,0-.84.06-1.25,0-2.77-.39-4.26.88-4.69,3.55-.14.90-.29,1.80-.40,2.71-.60,4.70-1.31,9.39-1.74,14.10-.68,7.51-1.33,15.04-1.65,22.57-.14,3.32,1.67,5.98,5.06,6.93,2.06.58,4.26.98,6.38.94,5.10-.10,7.82-2.74,8.26-7.80.18-2.06.03-4.16.03-6.24ZM245.63,294.94c4.12-8.09.52-52.42-4.79-57.03-.31,1.47-.76,2.71-.79,3.96-.23,10.15-.56,20.30-.47,30.45.05,5.30.76,10.61,1.44,15.88.37,2.87,2.12,5.05,4.60,6.74Z"/>
</svg>
