<?xml version="1.0" encoding="UTF-8"?>
<svg id="Calque_1" xmlns="http://www.w3.org/2000/svg" viewBox="0 0 242.67 155.69">
  <defs>
    <style>
      .cls-1 {
        fill: #8b565f;
      }

      .cls-2 {
        fill: #603b41;
      }
    </style>
  </defs>
  <g>
    <path class="cls-1" d="M89.01,84.91c7.95,12.51,19.39,20.67,32.87,26.23,9.78,4.04,20.02,6.13,30.55,6.98,17.49,1.42,34.64-.6,51.42-5.49,7.42-2.17,14.6-3.09,22-.06,2.58,1.06,5.44,1.42,8.5,2.19-3.08.49-5.75-.24-8.45-.28-1.24-.02-2.67-.91-4.1-1.23-5.1-1.14-9.95.06-14.62,1.78-5.13,1.89-10.32,3.53-15.59,4.86-13.01,3.29-26.25,4.47-39.66,3.75-4.68-.25-9.29-1-13.91-1.72-4-.63-8.01-1.24-11.85-2.51-7.69-2.54-15.01-5.88-21.33-11.02-3.56-2.9-6.86-6.14-9.7-9.76-2.61-3.32-4.67-6.98-6.33-10.87-.44-1.02-.19-1.92.22-2.84h0Z"/>
    <g>
      <path class="cls-2" d="M72.03,134.94c-4.1-4.79-4.73-10.3-3.58-16.15.14-.72.52-1.6,1.07-2.01,2.03-1.5,2.04-3.63,2.1-5.78.12-4.96,2.42-8.65,6.48-11.35,1.73-1.15,3.77-1.4,5.71-1.89,1.27-.32,1.7.61,1.4,1.63-.43,1.44-1.38,2.59-2.95,2.9-.81.16-1.44.66-2.18.88-4.17,1.2-5.48,4.19-5.31,8.41,4.61-3.49,9.16-6.8,15.63-7.15-1.74,3.3-4.36,4.85-6.97,6.01-2.36,1.05-4.43,2.76-7.06,3.26-.61.12-1.24.63-1.67,1.12-1.55,1.78-1.94,4.2-3.52,6.08-1.04,1.24-.81,3.46-.53,5.32.43,2.91.65,5.85,1.41,8.71Z"/>
      <path class="cls-2" d="M47.77,103.18c-1.21-2.38-.49-3.81,1.1-5.55,1.89-2.08,4.38-2.98,6.61-4.5-1.41-.73-2.65.63-4.11.07.69-1.44,2.22-1.92,3.33-2.2,5.61-1.44,11.28-2.69,17.01-.39.52.21,1.16.2,1.27.9.16.98.79.95,1.51.77,1.42-.35,2.67.33,3.95.72.44.13.79.54.7,1.03-.09.51-.56.63-1.04.69-1.24.14-2.52.18-3.72.49-7.98,2.03-14.43,6.11-18.22,13.73-.17.34-.21.91-.79.96-.78-7.2,2.17-10.51,14.91-16.75-5.07-2.05-17.84,3.53-22.53,10.02Z"/>
      <path class="cls-2" d="M99.48,112.09c-.23,1.47-1.6,1.87-2.11,3.23,2.76-.4,4.79-2.59,7.77-2.47.05,1.89-.72,3.34-2.21,4.2-2.02,1.16-4.14,2.19-6.31,3.04-1.4.55-2.6,1.26-3.7,2.25-4.19,3.79-6.87,8.64-9.34,13.6-.95,1.91-1.06,4.12-1.05,6.28-1.15-.18-1.24-.74-1.23-1.52.18-8.25,3.21-15.36,8.54-21.55.52-.6.86-1.31,1.27-1.98,1.83-2.98,4.65-4.65,8.37-5.07ZM95.96,115.87c.2.29.46.39.76.17.07-.05.11-.27.09-.29-.3-.21-.54-.05-.73.18-.19.18-.41.35-.19.63.03.04.24.01.28-.04.2-.29.09-.51-.21-.66Z"/>
      <path class="cls-2" d="M205.41,133.43c.58-4.98-2.78-8.33-4.05-12.82,3.37,1.29,4.34,3.73,5.08,6.21,1.42,4.77,1.23,9.65.61,14.53-.16,1.24-.18,2.55-.61,3.7-.57,1.55-1.47,2.97-2.51,4.99-.01-2.38.17-4.01.88-5.78,1.32-3.28-.02-6.34-1.84-9.09-2.28-3.46-5.72-5.59-9.2-7.64-.48-.28-.98-.55-1.49-.77-.97-.42-1.99-1-1.64-2.16.4-1.29,1.53-1.88,2.95-1.61,2.52.47,4.6,1.76,6.46,3.49,2.08,1.94,3.87,4.12,5.35,6.96Z"/>
      <path class="cls-2" d="M66.9,126.75c-1.61-1.58-2.38-3.66-2.74-5.74-.72-4.14-1.12-8.29-.61-12.55.49-4.07,2.53-7.1,5.38-9.65,1.39-1.24,3.34-1.84,4.97-2.85.86-.53,1.7-.69,2.59-.38.51.17,1.1.52,1.33.96.34.64-.38.88-.78,1.26-1.65,1.56-3.19,3.26-4.89,4.77-5.47,4.87-6.81,11.05-5.77,17.97.22,1.44.36,2.93.97,4.32.25.57.49,1.3-.45,1.89Z"/>
      <path class="cls-2" d="M195.66,154.59c-.2-2.26-.55-4.39-.52-6.51.04-3.36-1.61-6.23-2.45-9.32-.44-1.61-1.8-3.11-3.05-4.34-2.26-2.24-3.79-5.1-6.31-7.11-.51-.41-.74-1.14-.37-1.86,8.58,2.32,19.22,18.01,12.7,29.15Z"/>
      <path class="cls-2" d="M106.54,154.34c-1.94-6.04-1.95-11.96-1.11-17.69.57-3.91,2.75-7.61,5.45-10.72,1.11-1.27,2.45-2.33,3.65-3.53.3-.3.42-.82.97-.8.62.03,1.31-.73,1.85.02.35.49.17,1.12-.13,1.6-.59.95-1.22,1.89-1.89,2.79-.68.91-1.33,1.87-2.17,2.61-4.19,3.72-5.57,8.61-5.93,13.94-.2,2.95-.42,5.89-.22,8.86.06.84.3,1.75-.47,2.91Z"/>
      <path class="cls-2" d="M147.07,126.6c-7.01,7.79-8.68,16.93-6.89,27.69-1.95-1.98-2.53-3.95-2.65-5.46-.31-3.82-1.06-7.6-1.01-11.5.05-4.19,2.68-6.45,5.33-8.67,1.28-1.07,3-2.08,5.22-2.06Z"/>
      <path class="cls-2" d="M134.21,154.07c-4.51-6.84-7.15-14.09-5.61-22.36.51-2.72,2.64-4.91,5.74-5.4-3.08,9.3-3.51,18.51-.14,27.76Z"/>
      <path class="cls-2" d="M155.15,153.97c-3.04-2.54-4.29-6.16-6.21-9.36-.9-1.5-.49-3.07-.71-4.6-.44-2.92.09-5.77.89-8.61.36-1.27,1.2-2.06,2-2.96.4-.45.78-.87,1.42-.54.59.3.69.92.62,1.47-.22,1.92-.46,3.84-.8,5.74-.97,5.4-.54,10.61,1.98,15.56.35.69.53,1.48.74,2.24.09.31.05.66.07,1.05Z"/>
      <path class="cls-2" d="M109.33,148.29c-.06-2.84,1.66-4.81,2.86-6.79,3.26-5.36,6.94-10.46,10.45-15.66.25-.37.39-.93.73-1.11.58-.3,1.3-.64,1.96-.3.55.28.54.95.54,1.52.01,1.19-.53,2.14-1.15,3.14-1.86,3-4.3,5.54-6.51,8.25-2.66,3.24-5.35,6.44-7.74,9.89-.25.36-.64.61-1.13,1.07Z"/>
      <path class="cls-2" d="M180.2,152.84c-.64-1-.52-2.17-.66-3.24-.73-5.77-3.14-11.04-4.8-16.53-.53-1.78-.84-3.62-1.21-5.44-.11-.54-.2-1.18.58-1.34.53-.11.79.31,1.05.68,2.46,3.41,4.33,7.15,5.12,11.25.77,4,1.16,8.11.83,12.22-.07.86.12,1.87-.93,2.41Z"/>
      <path class="cls-2" d="M97.33,141.02c-.49-4.8-.33-9.49,1.92-13.79,2.66-5.07,8.42-8.46,13.93-8.19-2,2.84-4.87,4.52-7.54,6.26-4.5,2.93-6.68,7.06-7.56,12.13-.21,1.2-.5,2.39-.75,3.59Z"/>
      <path class="cls-2" d="M164.48,129.37c2.43,7.99,7.56,14.82,9.3,23.01.23,1.06.76,2.08.28,3.32-.85-.83-1.7-1.57-1.93-2.65-1.26-5.88-4.72-10.84-6.88-16.34-.93-2.37-1.32-4.78-.76-7.34Z"/>
      <path class="cls-2" d="M168.41,147.5c-3.03-2.62-5-5.92-7.63-8.66-2.24-2.33-3.04-5.31-2.87-8.56.05-1,.58-1.71,1.16-2.31.38-.38,1.46-.68,1.51.38.31,6.67,4.07,11.8,7.44,17.12.3.47.47,1.02.68,1.54.02.06-.1.18-.29.49Z"/>
      <path class="cls-2" d="M77.32,123.27c-.27-1.46-.18-2.6.5-3.69,3.88-6.19,9.39-10.1,16.49-11.76.3-.07.65.04,1.19.09-1.09,1.67-2.29,3.07-4.1,3.54-6.51,1.7-10.71,6.14-14.08,11.83Z"/>
      <path class="cls-2" d="M218.21,130.53c-1.32-3.74-4.08-5.99-7.27-7.8-.75-.43-1.27-1.13-2.1-1.54-.61-.31-1.43-1.24-.92-2.28.53-1.08,1.55-.7,2.31-.49,1.62.46,3.19,1.09,4.4,2.38,2.13,2.28,3.42,4.98,4.17,7.98.13.51.2,1.09-.59,1.76Z"/>
    </g>
  </g>
  <g>
    <path class="cls-2" d="M109.8,41.22c-2.9-1.77-4.81-4.48-6.65-7.2-5.09-7.51-7.86-15.89-8.92-24.84-.28-2.36-.7-4.73-.46-7.76,1.39,3.75,1.84,7.12,2.55,10.41,1.44,6.71,3.3,13.27,6.81,19.24.92,1.56,1.75,3.2,3.17,4.4.12.4.43,1,.7.84.55-.34.17-.91-.08-1.36-3.51-10.49-1.79-20.4,3.35-29.92-.24,2.96-.96,5.84-1.22,8.81-1,11.47,3.5,20.41,12.4,27.37.16.13.43.13.68.2.7-.91-.22-1.43-.55-2.02-3.17-5.6-5.55-11.49-6.55-17.88-.5-3.19-.49-6.36.43-9.49.13-.43.25-.88,1.1-.95.44,5.6,1.14,11.18,3.77,16.28,2.66,5.15,6.44,9.34,11.53,13.33-.64-2.75-1.09-4.89-1.63-7-1.33-5.2-2.33-10.45-2.89-15.79-.5-4.81-.3-9.57,1.12-14.23.35-1.16.62-2.43,2.29-3.66-3.7,15.21.6,28.13,9.18,40.61-.26-2.2-1.1-3.63-1.69-5.12-2.91-7.42-4.65-15.02-3.71-23.06.08-.68.1-1.37.24-2.04.21-.98.51-1.94.96-2.92.2,10.43,2.32,20.39,6.67,29.86-1.35-8.23-2.41-16.47-2.11-24.83.96,4.49,1.66,9.01,2.1,13.57.25,1.26.51,2.53.89,4.42v-5.58c.13-2.72.66-5.38,1.33-8.04.16,7.41-1.25,15,2.79,21.94.17-9.49.38-18.95,2.98-28.47.91,1.15.44,2.1.49,2.98.06.9-.06,1.82-.1,2.73-.32,6.84-.1,13.66,1.04,20.42.3,1.8.76,3.57,1.68,5.17.22.38.63.61,1.16.42.43-.16.37-.53.39-.84.03-.57.02-1.14-.02-1.71-.61-7.5,1.13-14.45,4.81-20.97l-.11.06c.67,1.24.11,2.44-.13,3.65-1.26,6.42-1.2,12.92-1.27,19.41,0,.43.2.86.3,1.26,1.16-.02,1.29-.94,1.64-1.59,2.36-4.4,3.42-9.14,3.71-14.09.1-1.7.19-3.41.41-5.1,1.02,7.37.37,14.61-2.08,21.89,1.7-.25,1.94-1.37,2.37-2.19,2.22-4.16,3.35-8.68,4.22-13.28.47-2.51.59-5.11,1.44-6.62.25,7.4-1.83,15.13-5.88,22.28,3.82,2.1,3.91,1.24,5.48-1.42,2.61-4.39,3.56-9.33,4.32-14.3.14-.9.24-1.8.45-3.44,1.67,8.07.33,14.94-3.19,21.4,1.32,1.03,2.53,1.04,3.97.61,5.78-1.72,11.12-4.09,15.03-8.93.19-.23.56-.3.88-.47-.05,3.66-.76,4.59-9.74,12.83,1.1,1.17,2.41,1.43,3.94,1.24,3.09-.38,6.03-1.16,8.67-2.9.9-.59,1.72-1.41,2.96-1.56q-.43,1.98-7.82,7.21c.76,1.53,2.38.94,3.55,1.44l-.08-.09c.75,1.88,3.25,3.81,5,3.47,5.2-1.01,10-2.84,13.17-7.47h0c1.14,2.81-.9,4.21-2.66,5.54-1.82,1.39-4.04,2.06-6.28,2.56-.99.22-2.03.28-2.96.85.93,1.64,2.36,1.87,4.06,1.65,4.26-.53,8.23-1.71,11.56-4.59.4-.34.76-.89,1.44-.58l-.08-.07c-1.31,3.58-4.32,5.08-7.64,6.1-1.5.46-3.1.61-4.68.91,1.7,1.13,3.1,1.32,7.9,1.04,2.74-.16,5.37-.82,8-1.59,2.72-.8,4.63-2.89,7.36-4.78-1.1,3.53-4.89,6.38-8.34,7.19-3.6.85-7.24,1.28-11.43,1.44,2.24,2.14,4.12,3.91,5.96,5.71.81.79,1.81.85,2.83.95,3.65.35,6.81-.82,9.67-3.01.51-.39.87-1.11,1.69-.64.25.22.5.45.75.67-3.45,3.12-7.46,4.55-12.19,3.87,1.76,3.29,2.2,3.45,5.51,2.83,3.01-.56,5.42-2.37,8.06-3.7.37-.19.57-.7,1.12-.52-.93,3.49-3.3,4.92-10.65,6.24,7.62,8.25,14.9,16.56,22.63,24.49-2.96-.89-5.01-3.09-7.39-4.76-2.44-1.71-4.6-3.81-6.96-5.64-7.53-5.81-15.28-11.32-23.72-15.73-2.92-1.53-5.63-3.54-9.06-4.5-.44,3.14-.65,6.21-1.33,9.17-3.7,16.07-13.14,27.41-29.43,30.74-16.97,3.47-31.54-2.16-42.42-16-5.98-7.61-8.97-16.57-10.86-25.94-.11-.56-.19-1.13-.25-1.69-.13-1.25-.8-1.49-1.89-1.09-7.25,2.6-14.28,5.7-19.53,11.52-2.24,2.49-4.81,3.56-7.83,4.18-4.16.85-8.39.92-12.6.9-9.03-.04-17.94-1.21-26.84-2.74-6.84-1.17-13.53-2.74-20.06-5.07-7.24-2.59-14.01-6.03-20.27-10.48-.92-.65-1.81-1.37-2.21-2.49.36-.12.46-.33.23-.65,4.26,2.31,8.91,3.18,14.19,3.97-5.2-4.89-10.98-8.86-10.73-16.68,1.31,1.94,2.68,3.85,3.91,5.84,3.88,6.24,9.89,9.41,16.64,11.4,1.36.4,2.94.06,4.6-.17-10.92-2.82-18.61-9.42-23.27-19.54.3.07.5-.04.6-.33,2.81,3.29,5.76,6.46,9.07,9.25,7.16,6.03,14.49,7.89,24.37,7.93-15.21-4.59-23.33-14.39-25.42-29.3,7.69,17.64,21.66,25.82,39.27,26.87-9.69-2.16-25.78-16.57-27.68-24.22,5.65,4.85,10.28,10.55,17.08,13.66-4.92-5.32-8.66-11.18-9.36-18.55,1.63,3.62,3.32,7.21,5.62,10.45.09.07.21.11.34.11.01.46.25.79.63,1,.21.12.44-.04.34-.2-.21-.34-.52-.61-.79-.91,0,0-.02-.32-.02-.32-3.44-6.48-5.5-13.32-5.5-20.72,1.58,5.5,2.92,11.08,5.7,16.17-1.89-5.98-3.51-11.98-2.98-18.44.86.22.74.98.92,1.49.19.53.19,1.12.31,1.68,2.39,10.25,5.94,19.89,14.02,27.21,4.34,3.93,9,6.05,14.82,6.58-.94-1.24-2.18-1.85-3.25-2.64-5.24-3.89-10.21-8.08-14.12-13.37-3.57-4.84-6.27-10.04-6.14-15.85,5.78,15.38,18.53,22.95,33.51,27.89.54.18,1.09.34,1.62.5.28.12.58.09.64-.23.02-.08-.41-.26-.63-.4-5.36-3.06-10.48-6.45-14.85-10.87-10.01-10.12-13.85-22.24-11.85-36.27.15-1.09.28-2.21,1.33-3.64-.71,11.67.78,22.21,8.41,30.97,4.98,5.72,11.32,9.3,18.52,11.53-3.62-3.45-6.37-7.46-8.83-11.74-1.23-2.14-3.18-3.86-4.7-5.85-2.3-3-4.32-6.16-4.97-10-.19-1.14-.27-2.25-.04-4.05,1.75,4.11,2.95,7.87,5.98,10.83-.19-3.06-.54-6.12-.51-9.17.03-3.07.51-6.13,1.45-9.08.14.28.35.36.63.23-.84,9.08.84,17.66,5.04,25.76,1.17,2.26,2.69,4.17,4.67,5.79,4.98,4.07,10.51,7.04,16.8,8.64-2.62-1.75-5.17-3.58-7.39-5.81-2.34-2.36-4.31-4.99-5.97-7.87-1.59-2.77-2.9-5.66-3.9-8.7-1.03-3.14-1.83-6.33-2.19-9.63-.36-3.26-1.04-6.53.61-10.23,1.01,6.05,2.78,11.34,4.97,16.53,1.81,4.26,4.48,7.9,7.48,11.35.23.27.52.4.88.26l-.06-.1c-.14.66.02,1.01.77.76,0,0-.09-.08-.09-.08-.19.7.07.96.77.77l-.09-.05c-.14.36-.03.65.23.9,2.59,2.39,5.73,3.86,8.91,5.43-1.18-2.89-3.26-5.09-4.57-7.76-1.35-2.77-2.59-5.58-3.6-8.49-.97-2.8-1.73-5.67-2.2-8.6-.48-2.97-1.17-5.95-.45-9.12.79,4.34,1.28,8.63,2.45,12.79,1.6,5.67,4.19,10.83,7.87,15.43,2.02,2.52,4.41,4.63,7.36,6,.74.34,1.58,1.13,2.41.08-.26.11-.9-.1-.51.58.16-.2.32-.4.47-.6ZM41.47,47.6c.07.04.14.07.21.11-.06-.05-.12-.09-.18-.14-.07-.05-.15-.1-.22-.16.06.06.13.12.19.18ZM68.18,27.05l.08.05s-.06-.07-.06-.07c-.08-.4-.16-.8-.23-1.21-.14.07-.39.14-.4.23-.02.46.24.77.62.99ZM101.56,41.57c.23-.29.24-.57-.1-.77-.06-.04-.29.04-.3.1-.09.39.17.53.49.6.19-.01.3.6.55.06-.21,0-.43,0-.63,0ZM168.78,73.52c.51.21-1.17,2.09.84,1.11.34-.17.86-.26.95-.78-.61-.04-1.34.57-1.75-.37,2.43-2.09,5.78-2.11,8.79-3.87-3.85-.05-7.29.12-10.72.78.25,1.46.57,2.62,1.9,3.14ZM176.57,94.65c.88.22,1.76.42,2.64.65,1,.26,1.98.61,2.65-.66.76-1.44-.21-2.25-1.17-2.75-2.32-1.19-4.77-2.16-7.14-3.26-1.91-.89-4.07-1.23-6.01-2.52,1.27-.38,2.27-.13,3.27.08,3.91.8,7.76,1.8,11.4,3.5,1.68.78,2.63.31,2.29-1.25-.27-1.24-.05-1.8.83-2.68,1.15-1.15.68-2.04-1.01-2.57-5.05-1.6-10.23-2.11-15.5-2.21-1.36-.02-1.86.58-2.18,1.62-.31,1.03-1.78,1.72-1.06,2.96.18.31.15-.33.01-.3-1.17.3-1.78,1.34-2.64,2.06-.13.11-.14.37-.27.75,4.42,2.75,8.16,6.32,11.27,10.56.51.69,1.43,1.1,2.21,1.55.51.3,1.06.29,1.54-.21.48-.5.41-1,.13-1.54-.57-1.11-1.15-2.21-1.73-3.32.16-.15.31-.31.47-.47ZM128.4,86c-.11-.93.74-1.04,1.25-1.34,3.9-2.32,7.94-4.35,12.33-5.59.6-.17,1.46-.08,1.28-1.26-.4-.03-.83-.11-1.25-.1-5.64.21-11.09,2.11-16.78,1.9-.62-.02-1.45.31-1.44,1.16.02,1.7.38,3.37.94,4.97.6,1.7,2.24-.05,3.08.89-1.34.72.29,1.66-.26,2.64-1.5,2.68-.64,4.17,2.41,4.95.58.15,1.35.24,1.7.97-.14.29-.32.58-.44.9-.85,2.2-.45,2.78,1.93,2.83,1.11.03,2.26-.27,3.28.4q-.86,3.48,2.06,5.17c1.76-6.63,5.57-12.01,10.2-16.83-.35-.42-.55-.7-.78-.94-2.03-2.16-2.07-2.23-4.72-.77-3.48,1.92-6.88,3.97-10.32,5.96-.15-.2-.31-.41-.46-.61,3.27-3.9,7.74-6.3,12.32-9.35-1.54-.46-2.48-.1-3.37.16-2.48.74-4.91,1.69-7.42,2.32-1.87.47-3.52,1.75-5.57,1.55ZM156.18,110.47c3.04-.11,6.09-.47,9.02-1.46,2.83-.95,5.41-2.37,7.57-4.49.74-.72,1.03-1.32.39-2.34-2.83-4.5-5.61-9.02-9.86-12.43-1.21-.97-2.11-1.46-3.59-.73-1.32.65-2.83.98-4.32.81-1.76-.21-3.89-1.4-5.15-.77-1.5.75-2.18,3.04-3.33,4.58-1.29,1.73-2.78,3.32-4.06,5.06-1.01,1.37-1.94,2.81-2.74,4.31-1.12,2.08-1.06,2.19,1.01,3.44,4.61,2.78,9.71,3.78,15.06,4.02ZM142.79,69.83c-.39,1.53.45,2.48,1.86,3.05,2.53,1.03,5.19,1.61,7.85,2.17,1.6.34,2.54-.42,3.12-1.9,2.13-5.37.96-7.65-4.74-9.1-.11-.03-.22-.04-.33-.07-5.33-1.28-7.08-.04-7.69,5.39-.01.11-.03.22-.06.46ZM186.27,81.28c.69-4.67.69-4.69-3.34-4.78-3.66-.09-7.27.44-10.87,1.03-1.12.19-2.26.3-3.36.59-.91.24-1.23,1.08-1.06,1.9.22,1.03,1.08.54,1.65.4,5.65-1.43,11.24-1.47,16.98.87ZM141.6,74.82c-3.86-.57-7.72-.47-11.57-.14-1.7.15-3.4.29-5.1.44-.96.09-1.53.55-1.18,1.56.27.78,3.45,2.49,4.14,2.22,4.44-1.76,9.12-2.66,13.71-4.09ZM139.85,66.74c.1-.86.04-1.63-.76-2.12-.95-.57-1.76-.13-2.46.47-1.01.85-1.47,1.99-1.32,3.32.15,1.23,1.08,1.61,2.14,1.78.97.16,1.49-.42,1.77-1.21.27-.74.42-1.52.61-2.24ZM186.28,73.07c-2.44-.09-4.23.66-6.09.99,1.85-.35,3.87.6,6.09-.99ZM171.33,75.94c-1.12-.2-2.19-.09-3.13.8,1.29.62,2.07-.68,3.13-.8ZM143.12,39.57l-.06-.3.21.04-.16.26ZM40.45,40.84c-.07.07-.18.14-.18.22s.1.16.15.23c.07-.07.19-.13.19-.2,0-.07-.1-.15-.17-.25Z"/>
    <path class="cls-2" d="M192.92,55.93c-.14-1.11.85-.83,1.34-.99,6.08-2.09,11.17-5.44,14.47-11.14.21-.36.58-.64,1.08-1.18-.27,3.97-2.09,6.71-5.03,8.72-3.6,2.47-7.61,3.95-11.95,4.51,0,0,.08.09.08.09Z"/>
  </g>
</svg>