<?xml version="1.0" encoding="UTF-8"?>
<svg id="Calque_1" xmlns="http://www.w3.org/2000/svg" xmlns:xlink="http://www.w3.org/1999/xlink" viewBox="0 0 299.56 341.58">
  <defs>
    <style>
      .cls-1 {
        fill: none;
      }

      .cls-2 {
        clip-path: url(#clippath);
      }
      
      .cls-3 {
        fill: currentColor;
        stroke: currentColor;
        stroke-width: 6;
        stroke-linejoin: round;
      }
    </style>
    <clipPath id="clippath">
      <rect class="cls-1" width="299.56" height="319.11"/>
    </clipPath>
  </defs>
  <g class="cls-2">
    <g>
      <path class="cls-3" d="M281.16,12.3c-4.13,7.62-8.32,15.21-12.39,22.87-5.41,10.16-10.82,20.31-16.06,30.56-7.8,15.26-15.82,30.43-22.4,46.27-2.83,6.81-5.24,13.82-7.5,20.85-2.7,8.41-2.65,17.05-.78,25.6,1.72,7.88,3.86,15.66,5.82,23.49,1.68,6.72,3.02,13.48,3.15,20.44.13,6.34-1.64,11.93-5.85,16.78-1.8,2.07-3.84,3.79-5.98,5.44-3.44,2.64-6.81,5.37-10.38,7.83-5.07,3.49-10.27,6.77-15.44,10.11-5.12,3.30-9.42,7.54-13.59,11.89-7.41,7.73-13.79,16.27-19.56,25.27-1.96,3.06-4.26,5.89-6.25,8.92-3.62,5.49-7.71,10.60-12.27,15.32-2.29,2.38-4.81,4.56-7.33,6.70-2.55,2.17-5.66,3.04-8.95,3.38-2.90.30-5.71.93-8.52,1.82-2.71.86-5.63,1.08-8.48,1.47-3.05.42-6.10.82-9.17.99-1.64.09-3.36-.14-4.93-.60-.98-.28-1.75-1.27-2.74-2.04-2.04,1.79-4.65,3.06-7.57,3.45-2.15.28-4.37.30-6.54.17-1.97-.11-3.69-1.01-4.99-2.56-.43-.52-.77-.48-1.32-.16-2.07,1.19-4.14,2.29-6.05,3.34,0,0,.28.05.60.05,71.27,0,142.54,0,213.80,0,.56,0,1.12.02,1.68.03v21.60H27.96v-21.60h32.22c.02-.10,5.35.13,5.38-.03-2.18-.18-9.19-1.73-10.91-2.93-.57-.40-1.56-.32-2.34-.27-.69.05-1.35.48-2.05.55-2.02.20-3.77-.58-5.55-1.45-1.11-.54-2.49-.57-3.76-.74-.66-.09-1.35.06-2.01-.01-3.14-.33-5.45-2.06-7.40-4.41-1.77-2.14-2.66-4.70-3.57-7.25v-2.88c1.32-2.76,3.60-4.47,6.38-5.46,4.28-1.53,7.94-3.86,11.29-6.99,3.67-3.43,7.87-6.27,11.77-9.45,6.02-4.90,11.83-10.03,16.82-15.99,3.68-4.41,6.19-9.59,8.88-14.64,5.32-9.97,10.38-20.10,16.03-29.88,3.91-6.76,8.55-13.11,13.03-19.53,5.73-8.21,10.22-16.95,12.60-26.73,2.65-10.88,7.54-20.81,13.41-30.24,6.14-9.87,12.66-19.50,19.07-29.19,3.43-5.18,5.72-10.89,7.81-16.68,5.20-14.41,9.30-29.15,12.98-44.01,3.43-13.89,6.62-27.84,9.91-41.76.16-.66.23-1.33.35-2h2.16c-.56,2.89-1.03,5.79-1.70,8.65-2.41,10.35-4.82,20.71-7.36,31.02-3.58,14.51-7.48,28.94-12.24,43.11-2.36,7.05-4.68,14.14-8.68,20.48-3.30,5.24-6.91,10.28-10.25,15.50-4.20,6.56-8.41,13.12-12.37,19.83-5.19,8.78-9.12,18.11-11.55,28.06-1.44,5.90-3.74,11.51-6.93,16.67-3.37,5.46-6.99,10.77-10.68,16.03-6.24,8.89-11.58,18.29-16.53,27.94-3.76,7.32-7.57,14.62-11.47,21.87-2.56,4.75-5.95,8.93-9.92,12.56-5.07,4.64-10.27,9.13-15.48,13.61-3.45,2.96-7.04,5.77-10.56,8.65-.31.25-.59.53-.89.79,1.01.77,2.07,1.36,2.82,2.22.90,1.03.35,2.17-.22,3.29,1.05-.92,2.01-1.96,3.15-2.72,5.31-3.56,10.67-7.04,16.02-10.55.70-.46,1.43-.87,2.16-1.29.68-.39,1.44-.81,1.95.16.49.93-.24,1.37-.91,1.78-2.92,1.81-5.84,3.63-8.78,5.41-5.10,3.10-9.98,6.48-14.17,10.99.68.26,1.40.46,2.05.79,1.21.62,2.87.98,2.85,2.70-.02,1.90-.90,3.62-2.68,4.35-1.35.55-2.93.51-4.42.70-.37.05-.76-.05-1.37-.09,1.27,1.92,2.82,3.16,4.75,3.94,1.34.54,2.68.97,4.16.48.78-.26,1.25-.53.99-1.51-.68-2.57.23-4.61,2.25-6.24,7.33-5.94,14.65-11.88,21.98-17.82.40-.33.79-.75,1.25-.90.42-.13,1.19-.12,1.35.13.23.36.22,1.07.01,1.47-.23.46-.78.78-1.22,1.12-5.35,4.19-10.70,8.38-16.05,12.57-.16.12-.35.20-.70.39,1.18.57,2.09.96,2.94,1.44,1.51.87,1.80,1.85,1.08,3.40-.03.07-.10.13-.12.21-.67,2.92-1.81,3.78-6.18,2.93-1.38-.27-2.68-.97-4.06-1.49-.76.99-.76,1.89.04,3.13,2.62,4.08,8.38,5.35,12.27,2.66,1.02-.70,2.12-1.29,3.11-2.02.40-.30.85-.88.83-1.31-.09-2.21.93-3.90,2.24-5.52,3.09-3.80,7.05-6.60,10.86-9.57,1.82-1.42,3.77-2.70,5.67-4.02.73-.51,1.59-1.16,2.28-.13.68,1.02-.32,1.44-.99,1.94-3.96,2.98-7.91,5.97-11.86,8.95-.28.21-.60.38-1.02.64,1.65.93,2.98,1.63,4.27,2.41,1.75,1.06,1.95,2.26.71,3.86-1.62,2.10-4.39,2.50-7.42,1.05-.74-.35-1.46-.76-2.20-1.15-.55,1.76.08,3.50,1.56,4.45,1.72,1.11,3.63,1.41,5.63,1.31,4.96-.24,9.23-1.88,11.71-6.46,2.43-4.48,6.14-7.61,10.21-10.43,1.18-.82,2.36-1.65,3.57-2.43.66-.42,1.45-.78,1.99.09.54.87,0,1.39-.76,1.92-2.85,1.98-5.64,4.05-8.46,6.08-.29.21-.63.36-1.10.63,1.46.85,2.57,1.41,3.57,2.10,1.94,1.34,2.16,2.65.95,4.98-1.03,1.98-2.03,2.39-4.23,1.65-1.36-.46-2.69-1-4.11-1.54-.04,1.14.68,1.77,1.64,1.91,1.45.21,2.96.40,4.40.23,4.64-.55,9.25-1.31,13.89-1.90,2.61-.33,4.46-1.67,5.67-3.92.68-1.26,1.24-2.59,1.84-3.90.10-.22.17-.45.24-.68.25-.77.61-1.54,1.58-1.20.98.34.77,1.21.50,1.94-.48,1.27-1.02,2.52-1.57,3.75-.29.64-.67,1.25-1.15,2.11,1.43-.13,2.63-.21,3.83-.35,5.19-.60,9.14-3.35,12.78-6.95,5.25-5.21,9.87-10.91,14.11-16.93,4.32-6.14,8.38-12.46,12.73-18.57,6.59-9.24,13.96-17.83,22.76-25.05,3.47-2.85,7.41-5.14,11.14-7.69,4.43-3.02,8.87-6,13.28-9.05,2.28-1.58,4.64-3.09,6.71-4.93,4.71-4.17,9.06-8.66,10.05-15.28.62-4.14.35-8.29-.21-12.42-1.02-7.55-3.16-14.84-5.16-22.17-1.91-7.02-3.64-14.10-4.32-21.36-.73-7.80.45-15.37,2.88-22.79,3.90-11.91,8.82-23.40,14.37-34.63,4.94-9.99,9.89-19.99,15.01-29.90,5.90-11.43,11.98-22.77,18.02-34.14,3.24-6.11,6.54-12.18,9.82-18.27.48-.90.96-1.87,2.28-1.18v1.68ZM43.38,301.03c-2.08.83-4.19,1.30-6.42.88-1.76-.33-3.51-.71-5.27-1.09-1.16-.25-1.47-.03-1.49,1.14,0,.35.01.74.16,1.05.92,2.02,1.64,4.19,2.88,6,1.80,2.63,4.41,4.16,8,3.97-3.74-4.87-1.11-8.43,2.13-11.95ZM56.50,334.31c0-1.67-.05-3.23.03-4.77.03-.54.39-1.06.60-1.59.18.52.48,1.04.50,1.57.07,1.58.02,3.17.02,4.74h1.50c0-1.96.06-3.83-.03-5.70-.03-.65-.26-1.60-.71-1.83-.48-.25-1.31.17-2.16.34-.74-.79-1.06-.82-2.05-.11-.74-.13-1.29-.23-1.89-.34v7.67h1.49c0-.45,0-.84,0-1.23,0-1.32-.04-2.64.03-3.95.02-.39.36-.76.56-1.14.17.39.40.77.50,1.18.08.34.02.71.02,1.07,0,1.35,0,2.70,0,4.09h1.59ZM32.68,298.52l.11.42c1.72.29,3.44.65,5.17.85,2.63.31,4.77-.67,6.36-2.77.20-.26.37-.78.25-1.02-.38-.73-3.02-1.51-3.80-1.18-1.92.79-3.84,1.57-5.73,2.41-.82.36-1.57.86-2.35,1.30ZM59.72,326.75c0,1.91-.04,3.74.01,5.57.06,2.17.86,2.62,2.75,1.62q.07,1.10-2.31,1.59v1.22c.82,0,1.57.02,2.32,0,.93-.04,1.57-.55,1.59-1.47.05-2.83.02-5.65.02-8.54h-1.52c0,.45,0,.84,0,1.22,0,1.12.04,2.24-.02,3.36-.03.60.38,1.63-.60,1.66-1.04.03-.56-1.01-.66-1.60-.05-.31,0-.64,0-.96,0-1.22,0-2.45,0-3.66h-1.58ZM51.67,334.44c0-2.07.04-3.94-.01-5.81-.05-1.52-.95-2.24-2.44-2.10-1.40.13-1.97.90-1.81,2.53h1.31c.05-.19.05-.45.17-.55.26-.21.59-.34.89-.50.04.39.22.84.08,1.14-.14.32-.60.49-.91.73-.44.34-.95.62-1.30,1.03-.69.80-.68,2.50,0,3.11.84.75,1.66.45,2.16-.01.73.17,1.24.28,1.87.43ZM40.27,329.03c.75.10,1.45.32,1.61-.73.02-.15.53-.40.62-.33.22.16.50.52.44.71-.10.34-.37.68-.66.92-.43.35-.97.57-1.39.93-.97.81-1.18,2.44-.46,3.37.58.75,1.41.72,2.27.09.72.17,1.26.30,1.84.43,0-2.05.03-3.88,0-5.72-.03-1.59-.80-2.27-2.33-2.18-1.40.08-2,.84-1.92,2.51ZM44.19,308.57c1.93-.10,3.22-.35,3.95-1.76.40-.77.36-1.36-.56-1.69-.79-.28-1.59-.53-2.34-.89-1.05-.50-1.76-.18-2.21.80-.39.83-1.20,1.99-.92,2.48.39.68,1.63.86,2.09,1.07ZM56.33,308.67c1.50,1.24,3.30,1.58,5.13,1.59,1.19,0,1.08-1.32,1.44-2.10.08-.17-.44-.72-.79-.93-.64-.39-1.35-.71-2.06-.95-.32-.11-.84-.11-1.08.08-.90.70-1.73,1.50-2.63,2.31ZM99.17,313.56c.44-.13.70-.14.87-.27,1-.75.92-2.16-.15-2.84-.47-.30-.95-.59-1.45-.83-2.11-1.01-2.22-.99-3.25,1.12-.14.29,0,1.01.23,1.13,1.26.65,2.58,1.18,3.76,1.69ZM81.59,309.81c-.18-.09-.32-.17-.47-.24-.96-.47-1.91-.97-2.89-1.41-1.92-.87-2.37-.70-3.45,1.24,1.90,2.20,5.42,2.54,6.80.41ZM45.27,324.85v9.51c.52-.02.90-.04,1.31-.06v-9.46h-1.31ZM257.08,334.52c.11,0,.23-.01.34-.02,0-.43.10-.88-.03-1.27-.09-.28-.46-.64-.73-.67-.74-.09-1.49-.03-2.32-.03.03.76.06,1.39.09,2.02.09,0,.18,0,.27,0l.43-1.67c.13,0,.25,0,.38,0,.12.55.24,1.11.40,1.88.25-.79.42-1.35.60-1.90.12.04.24.07.37.11.07.51.15,1.03.22,1.54ZM265.84,332.54c.04.79.07,1.39.10,2,.09,0,.17,0,.26.01.15-.55.30-1.10.46-1.65.12,0,.24,0,.35,0,.12.55.24,1.10.43,1.98.23-.89.38-1.45.52-2.01.12.02.25.04.37.06.10.53.19,1.06.33,1.79.60-1.70.41-2.01-.97-2.03-.57,0-1.13-.09-1.85-.15ZM240.85,334.62c.11,0,.23,0,.34,0,.17-.42.35-.84.58-1.40.22.57.38.98.54,1.40.12.01.24.02.36.03.20-.67.40-1.35.60-2.02-.09-.03-.18-.07-.28-.10-.19.37-.38.73-.58,1.12-.19-.45-.35-.82-.60-1.41-.32.59-.51.92-.72,1.31-.22-.42-.39-.73-.55-1.04-.09.04-.18.08-.27.11.20.67.39,1.34.59,2.01ZM243.95,332.52c-.11.03-.23.06-.34.09.20.67.40,1.34.60,2.01.11,0,.22,0,.32,0,.18-.42.36-.83.57-1.32.26.54.45.95.65,1.35.11-.02.21-.04.32-.06.18-.66.35-1.32.53-1.98-.10-.03-.20-.06-.31-.09-.16.38-.32.76-.50,1.18-.20-.46-.37-.86-.65-1.49-.32.61-.49.94-.71,1.37-.20-.45-.34-.75-.47-1.06ZM252.90,326.44c-.14,0-.29.01-.43.02-.19.42-.55.86-.51,1.25.04.34.54.63.84.94.31-.35.86-.69.87-1.05.01-.38-.49-.78-.76-1.16ZM238.36,333.28c.26.52.48.94.69,1.37l.31-.07c.17-.66.34-1.32.51-1.98-.10-.03-.20-.05-.30-.08-.16.37-.33.75-.51,1.17-.20-.47-.38-.86-.66-1.51-.30.64-.45.96-.66,1.40-.22-.44-.38-.76-.54-1.07-.09.03-.19.07-.28.10.19.67.37,1.34.56,2.02.12-.01.24-.02.36-.03.16-.41.33-.82.53-1.32ZM264.29,335.05c.49-.69.99-1.10.94-1.42-.07-.41-.58-.75-.90-1.12-.31.34-.83.65-.88,1.02-.04.36.40.78.83,1.52ZM249.12,332.95c-.27.36-.54.73-.82,1.10.52.19,1.04.37,1.61.58.13-2.13-.07-2.36-1.29-1.84.25.08.50.17.49.16ZM252.69,332.93c-.28.42-.53.80-.79,1.18.53.16,1.07.32,1.65.49.08-2.08-.16-2.37-1.28-1.78.23.06.44.12.42.11ZM259.91,332.64c-.09-.05-.19-.11-.28-.16-.21.40-.43.80-.67,1.26-.24-.48-.43-.87-.62-1.26-.04.02-.09.04-.13.06.10.97.21,1.93.32,2.98.96-.62.93-1.88,1.38-2.87ZM259.75,328.59h.71c0-.59,0-1.17-.03-1.74,0-.02-.44-.01-.68-.02v1.76ZM251.15,331.86c-.09,0-.18.02-.27.03v2.64c.09,0,.18,0,.27,0v-2.67ZM262.74,332.65c0-.07-.02-.14-.03-.20-.37.17-.92.25-1.05.53-.16.36-.10.93.09,1.30.11.21.66.20,1.20.34-.48-.50-.97-.80-.94-1.03.04-.33.46-.62.72-.93ZM265.23,326.98v1.20c.32-.17.66-.53.94-.48.30.05.54.48.74.68v-1.38c-.26.14-.54.42-.81.42-.29,0-.58-.28-.88-.44Z"/>
      <path class="cls-3" d="M209.02,155.17c-.11,11.54-3.71,21.79-10.80,30.82-2.22,2.82-4.72,5.44-6.82,8.34-2.98,4.12-5.39,8.57-6.93,13.46-.18.57-.37,1.14-.53,1.72-.22.77-.60,1.39-1.51,1.13-.97-.28-.85-1.09-.59-1.78,1.05-2.80,1.92-5.71,3.30-8.34,1.47-2.80,3.38-5.38,5.22-7.97,3.48-4.92,7.68-9.31,10.58-14.65,3.60-6.62,5.51-13.68,5.53-21.24,0-3.76.06-7.52-.76-11.22-.17-.78-.07-1.55.82-1.71.92-.16,1.25.60,1.34,1.35.40,3.37.76,6.74,1.13,10.11Z"/>
    </g>
  </g>
</svg>
