<?xml version="1.0" encoding="UTF-8"?>
<svg id="Calque_1" xmlns="http://www.w3.org/2000/svg" viewBox="0 0 287.25 116.01">
  <defs>
    <style>
      .cls-1 {
        fill: #603b41;
      }
    </style>
  </defs>
  <path class="cls-1" d="M177.65,56.94c-.88,1.65.88,1.88,1.53,2.47,6.5,5.85,13.29,11.35,20.22,16.69,4.23,3.27,8.47,6.54,12.42,10.16,3.39,3.1,7.26,5.39,12.69,6.41-2.68.9-4.34.39-6.01-.2-3.63-1.28-6.71-3.47-9.66-5.84-7.52-6.06-15.05-12.1-22.49-18.26-10.74-8.89-21.56-17.67-33.12-25.49-5.41-3.66-11.26-6.56-17.23-9.18-3.46-1.51-6.96-2.92-10.46-4.33-.91-.37-1.82-1.14-2.89-.38.34-.21.4-.46.08-.72-.07-.05-.29-.04-.32,0-.2.37.06.52.34.65,2.36,3.53,6.33,4.6,9.83,6.34,16.98,8.43,31.73,19.94,45.45,32.87,2.28,2.14,4.64,4.19,6.94,6.32.42.39,1.18.67.73,1.72-1.29-.16-2.23-1.07-3.25-1.75-5.57-3.68-10.68-7.95-15.47-12.57-13.5-13.02-29.15-22.71-46.59-29.33-5.52-2.09-10.94-4.68-16.8-5.88-.8-.16-1.67-.35-1.36-1.41.23-.78,1.04-.58,1.66-.47,2.31.38,4.59.99,7.36.88-1.84-2.09-4.11-3.34-6.38-3.49-3.58-.23-7.19-.44-10.93.03,2.29.63,4.58,1.27,6.87,1.89.6.16,1.46.14,1.36,1.01-.13,1.13-1.19.65-2.1.88,1.47,1.64,4.12,1.35,5.23,3.28-.9,1.39-1.98.58-2.84.38-1.9-.44-3.74-1.11-5.61-1.67-.62-.19-1.35-.62-1.87-.46-4.42,1.36-8.3-1.11-12.43-1.63-.64-.13-1.29-.27-1.94-.4-1.34-.15-2.67-.3-4-.44-2.46-1.4-5.19-1.2-7.91-1.22.82.06,1.38.59,1.99,1.02-.58.2-1.29-.04-1.78.58.17.85.94.79,1.48.8,3.79.06,7.35,2.25,11.01,1.87,4.03-.42,7.61,1.76,11.63,1.1,2.43-.4,4.67,1.39,7.13,1.82,5.07.87,9.97,2.59,15.08,3.39,2.1.33,3.72,1.78,5.55,2.71,9.14,4.62,18.11,9.57,26.65,15.23,2.31,1.53,4.47,3.32,6.81,4.85.48.31.77.83.55,1.33-.35.78-1.04.64-1.63.26-3.26-2.11-6.52-4.23-9.77-6.37-11.76-7.74-24.22-14.04-37.77-18.01-6.53-2.05-13.25-3.04-20.08-3.43-1.67-.05-3.34-.11-5.02-.16-.3-.23-.6-.65-.9-.65-5.11-.04-10.33-1.44-15.26,1.13-.27.14-.73-.09-1.11-.15-.38-.46.07-1.41-1.22-1.37-3.75.11-7.52-.18-11.26.39-.78.12-1.54.38-2.3.58,1.68,1.16,3.34.97,4.98,1.07,3.33.2,6.55-.8,9.85-.71,2.6,1.72,5.36,1.81,8.22.82,4.73.28,9.46.57,14.2.85,2.8.72,5.67.51,8.52.68,1.12.07,2.05.01,3.06,1.05,1.23,1.27,3.44,1.73,5.03,1.53,1.87-.24,3.16.77,4.76.97,3.85,1.82,7.69,3.65,11.54,5.47,6.4,3.01,12.07,7.22,18.06,10.92.48.3.74.71.68,1.33-.9.86-1.64.11-2.35-.34-4.83-3.04-10.24-4.98-15.01-8.15-3.7-2.46-7.86-3.94-12.15-5-1.64-.4-3.09-.92-4.43-2.01-1.51-1.23-1.61-1.1-4.66-.7,4.34.4,6.96,4.72,11.09,4.22.83,1.48-2.32.8-.38,1.89,5.88,3.32,11.28,7.51,17.56,10.04,2.7,1.09,4.87,2.91,7.39,4.18,5.92,2.98,11.92,5.81,17.85,8.75,4.06,2.02,8.28,3.64,12.62,4.93.68.2,1.42.81,2.12.02-.45.27-.36.55.02.74.19.09.45.01.69.01-.27-.23-.54-.45-.81-.68-5.1-3.07-10.48-5.72-14.8-9.94-.45-.44-.86-.94-1.28-1.41.21-.29.42-.57.63-.86,2.77,1.53,5.54,3.06,8.32,4.58.51.28,1.04.84,1.59.04l-.12-.12c-.52,1.89,1.29,1.91,2.17,2.43,7.05,4.13,14.23,8.04,21.25,12.23,5.71,3.41,11.7,6.26,17.66,9.14,6.77,3.28,13.87,5.89,21.26,7.52,1.5.33,3,.64,4.49,1.6-1.37-.1-2.75-.09-4.1-.32-10.38-1.75-20.01-5.68-29.32-10.45-6.37-3.27-12.69-6.64-19.04-9.96-1.27-.67-2.54-1.25-4.01-1.43-8.1-1.02-15.65-3.84-22.98-7.28-4.36-2.04-8.73-4.09-13.04-6.23-2.53-1.26-5.52-1.4-7.82-3.15-4.65-3.54-10.08-5.76-14.96-8.91-2.46-1.59-5.24-2.66-7.49-4.62-.91-.79-2.02-1.05-3.27-.94-2.21.19-4.43.15-6.63.36-1.3.13-2.48.43-3.67-.57-.76-.64-1.71-.2-2.51.42,1.71,1.2,3.73.9,5.52,1.44l-.08-.08c3.93,2.06,8.27,2.82,12.52,3.84,1.46.35,2.93.68,5.2,1.21-1.72.78-2.72.55-3.64.41-12.35-1.91-24.76-3.59-36.32-8.76-.36-.16-.78-.52-1.06-.43-4.24,1.36-8.5-.91-12.86.28,5.68,1.54,11.6,1.35,17.15,3.38-3.71-.3-7.43-.58-11.14-.89-2.34-.2-4.67-.39-7-.68-4.99-.62-9.85-.38-14.52,1.79-1.22.57-2.55,1.36-3.92-.05-.29-.3-1.26-.1-1.86.07-7.23,2-14.75,2.96-21.72,5.96-.69.3-1.38.55-2.05.94-1.67.99-3.11,1.99-5.42,2.11-2.84.15-5.24,2.57-7.6,4.35-.89-.89-.28-1.41.19-2.05.87-1.17,2.12-1.86,3.31-2.52,4.49-2.49,7.68-6.71,12.2-9.15.25.22.5.45.76.67-.54.8-1.07,1.59-1.63,2.42,4.28-1.23,7.21-3.02,8.7-5.39-2.07-.09-3.74.9-5.52,1.52-.23-.26-.46-.51-.7-.77,6.06-6.04,10.68-13.37,17.01-19.17,6.05-5.55,12.33-10.82,19.24-15.31.39-.25.69-.23,1.06-.25,1.58-.09-.1.82.33,1.08-.36.11-.8.14-1.07.36-.36.29-.91.68-.5,1.24.46.6.91,0,1.3-.21.33-.18.58-.51.87-.77C63.55,4.32,73.02,1.96,82.67.04c.49-.1,1.03-.02,1.53.07.19.03.37.31.5.51.29.46-.07.81-.37.94-.71.3-1.47.49-2.22.67-4.94,1.19-9.82,2.55-14.43,4.74-1.26.6-2.68.98-3.58,2.19-.39,0-.91.24-.77.53.33.69.82.19,1.23-.05,6.07-2.7,12.17-5.22,18.84-6.23,6.55-1,12.99-.25,19.45.54,2.7.33,5.37.97,8.03,1.6,2.08.49,3.9-1.13,5.99-.45-4.33-2.11-9.05-2.3-13.57-3.32.72-.53.17-.71-.26-.91,11.97.91,23.13,4.84,34.09,9.33,6.87,2.82,13.57,6.08,20.34,9.15.45.2,1.05.23,1.19,1.17-2.17.38-3.77-1.02-5.56-1.68-.31-.28-.64-.47-1.07-.33-.38-.63-1.03-.97-1.48-.36-.22.29.58.63,1.07.74.11.53.49.66.96.64.07.33.26.45.59.35l.08-.02c-1.53.88-2.85.09-3.97-.74-6.15-4.59-13.53-6.45-20.45-9.29-1.84-.75-4.01-.44-5.86-1.61-.08.26-.15.52-.23.78,2.07,1.03,4.15,2.07,6.22,3.1,1.22.6,3.51,1.03,2.92,2.41-.7,1.65-2.38-.07-3.54-.51-4.37-1.65-8.59-3.83-13.07-5.06-9.5-2.62-19.22-4.71-29.12-3.29-5.83.84-11.86,1.56-17.1,4.94,9.24-2.12,18.5-3.81,28.02-2.88-1.65,1.3-3.5,1.45-5.53,1.46.34-.83.79-1.03,1.34-.87,2.47.74,4.92,1.56,7.41,2.24,1.29.35,2.5.49,2.51,2.31,0,1.03.99.98,1.79.95,9.52-.34,18.06,3.21,26.5,6.91,7.28,3.19,14.23,7.04,20.6,11.84.52.39.98.85,1.47,1.27-.23.23-.45.46-.68.68-2.12-.72-3.74-2.27-5.52-3.52-4.05-2.83-8.68-4.52-12.98-6.86-.46-.25-.99-.24-1.45.12h.1c-.17-.81-.95-1.06-1.47-.94-5.09,1.1-9.81-.88-14.66-1.64,1.62-1.7,1.11-4.05-1.07-4.76-1.89-.61-3.75-.44-5.53.47-6.49-1.58-13.04-2.8-19.68-3.63-.75-.45-1.5-.76-2.44-.19.91.37,1.72.33,2.54.1.04.92.78.8,1.36.96,5.91,1.62,11.92,2.79,17.99,3.63,1.07.59,2.55.5,3.12,1.91-3.05.42-5.76-1.38-8.86-1.4.27.79.96.74,1.43.86,9.48,2.6,18.45,6.56,27.51,10.25,13.81,5.64,26.59,13.07,38.18,22.51.55.45.99,1.71,2.11.75l-.12-.12c-.04.3-.55.5-.1.94.42.41.65-.01.97-.06l-.09-.09c-.6,1.17.07,1.08.86.88l-.08-.08c.78,2,1.53,2.56,3.22,2.4l-.12-.09ZM49.66,15.93c.44-.34,1.1-.72.38-1.27-.42-.33-.76.22-1,.6-.38.12-.84.43-.68.72.35.62.86.24,1.29-.05ZM37.65,31.29c.45-.16,1.25-.1.61-.95,2.48-.31,4.21-2.66,6.85-2.54l.28.25c1.08.48,2.05-.12,2.87-.56,4.48-2.45,9.24-3.97,14.93-4.78-1.02.2-1.39.35-1.76.34-5.72-.27-11.44-.55-16.59,2.69-.68.43-1.43.41-2.22.48-5.2.46-9.41,2.65-12.08,7.38,1.24.35,1.74-1.9,3.14-.95.1.77-.88.88-.93,1.55-1.18.25-1.94,1.11-2.72,1.92-1.13.85-2.26,1.7-3.44,2.58.95.74,1.68.05,2.4.23.17.6-.19,1.92,1,1.4,1.94-.84,3.95-1.15,5.98-1.44,7.46-1.08,14.92-2.11,22.38-3.17.69-.1,1.69.17,1.54-1.28-3.87-.25-7.75-.07-11.63.18-2.6.17-5.22.58-7.78.34-2.7-.25-5.09,1.03-7.69.94.17-.37.34-.73.51-1.1,1-.26,1.65-1,2.33-1.7.28-.26.56-.51.85-.77.4-.36.8-.71,1.2-1.07ZM78.96,35.14c-.42-1.82-1.03.6-1.5-.07-.8,1.18-1.74.28-2.24-.13-.93-.75-1.74-.79-3.33-.19,9.89,4.45,19.62,7.57,29.98,8.69-2.97-2.57-5.69-5.45-10.16-4.94-2.04.23-4.15-.06-6.22-.19-.69-.04-1.64.18-1.83-.94.78-.52,1.84.29,2.66-.51-.92-.45-1.77-.41-2.64-.16-.25-1.81-1.43-.9-2.33-.8-.45-1.35-1.44-.98-2.39-.76ZM59.96,11.33c1.25.54,1.96-.16,2.98-1.12-1.51-.18-2.09.73-2.86,1.22-.13.18-.27.36-.4.54.07.04.16.12.21.1.41-.2.3-.46.07-.73ZM50.93,40.99c-.18.17-.54.38-.51.51.09.46.52.21.82.26,1.44-.25,2.88-.5,4.32-.74,3.78-1.1,7.73-.02,12.15-.52-1.63-1.15-2.78-1.76-3.69-2.64-1.63-1.57-3.47-1.52-5.42-1.04-6.4,1.6-12.98,2.15-19.43,3.5,1.61-.02,3.21-.2,4.81-.28,3.86-.2,7.73-1.06,11.57.17-1.54.26-3.08.51-4.62.77ZM61.33,13.4c-1.07.82-2.15,1.64-3.29,2.51,1.06.31,1.83-.09,2.57-.56.74.13,1.47.26,2.21.39.09.59.46.83,1.02.98,8.91,2.4,18.1,3.31,27.14,5,.58.11,1.24.32,2.21-.68-3.94-.77-7.54-1.54-11.17-2.14-1.54-.25-3.11-.39-4.56-.97-.92-.37-.56-.95-.02-1.45.68.44,1.42.46,2.19.26-.69-.49-1.46-.2-2.18-.31-1.18-1.54-2.89-1.62-4.6-1.69l-.09-.07c-.85-.87-2.06-1.65-2.99-.82-1.47,1.33-3.17.7-4.7,1.14-.44-2.43-2.07-2.05-3.74-1.59ZM86.18,22.95c-2.6-1.2-5.36-1.08-7.98-1.66-4.78-1.04-9.72-1.06-14.49-2.34-3.25-.87-6.6-1.47-10.03-1.16-1.23.11-2.54-.05-3.31,1.19.12.92,1.6,0,1.49,1.32-2.92.06-5.47,1.11-8.09,2.79.58.06.86.17,1.08.1,7.58-2.45,15.25-2.77,23.15-1.79,6.05.76,12.06,2.11,18.18,1.55ZM75.99,39.6c-3.38-2.57-6.49-5.96-12.13-3.76,4.38,1.74,7.95,3.68,12.13,3.76ZM33.54,44.25c4.87-1.13,9.98-.93,14.7-2.83-5.07,0-9.91,1.33-14.7,2.83ZM39.01,33.97c3.33.26,6.54-.97,10.39-.63-3.95-1.58-7.21-.98-10.39.63ZM25.6,43.04c.12.27.24.55.36.82,3.65-.99,7.31-1.99,10.96-2.98-3.9.22-7.66.97-11.32,2.16ZM91.33,16.87c-3.73-.92-7.21-2.72-11.81-2.73,4.32,1.53,7.99,2.6,11.81,2.73ZM87.81,35.24c1.52,1.24,3.51,1.62,6.11,1.04-2.34-.4-4.23-.72-6.11-1.04ZM42.53,23.75c-1.01.39-2.75-1.7-3.21.8,1.28.62,2.16-.45,3.21-.8ZM50.46,14.44q1.88-.33,2.91-2.46c-1.43.67-2.5,1.12-2.91,2.46ZM43.95,20.07c-.03-.32-.21-.44-.48-.27-.2.12-.31.37-.49.54-.21.21-.14.43.17.34.31-.08.55-.41.8-.61ZM97.81,25.32v-.05s.36.04.36.04h-.36ZM88.42,23.84c-.07-.06-.15-.11-.22-.17.09-.03.18-.09.26-.08.08.01.15.1.22.16-.09.03-.17.06-.26.09ZM120.96,27.8l.13-.17-.23-.02.1.19Z"/>
  <path class="cls-1" d="M151.35,23.07c3.29,2.7,6.88,5.04,9.7,8.31,1.34,1.56,2.93,2.86,4.78,3.91,2.6,1.48,4.06,4.23,6.15,6.3,6.46,6.41,13.43,12.23,20.01,18.5,3.46,3.3,6.7,6.89,10.77,9.51,0,0,.02-.05.02-.05.07.45.37.66.78.75.33.8.89,1.31,2.11,1.87-.72-1.16-1.09-1.87-1.99-1.96-.06-.47-.32-.74-.79-.79l.03.1c0-.74-.87-1.55-.24-2.14.78-.75,1.47.13,1.93.66,5.47,6.27,11.57,11.93,17.36,17.88.36.37.72.77.99,1.2.32.51.91,1.11.19,1.66-.65.5-1.16-.08-1.65-.49-.4-.34-.88-.6-1.2-.99-5.26-6.33-12.46-10.34-18.66-15.53-6.19-5.18-12.47-10.26-18.62-15.47-4.9-4.15-9.24-9.03-13.88-13.54-6.34-6.17-12.8-12.23-18.48-19.05.23-.21.46-.43.7-.64Z"/>
  <path class="cls-1" d="M202.09,42.9c-3.43-3.15-7.84-5.02-11.19-8.28.78-1.25,1.47-.29,2.02-.01,9.99,5,19.74,10.48,28.41,17.51,12.86,10.41,23.18,22.81,28.08,39.05,1.36,4.52,1.73,9.19,2.33,13.82.05.42-.08,1.05-1.08,1.17-1.01-1.23-1.14-2.95-1.61-4.48-1.05-3.49-2-7.01-2.96-10.53-2.78-10.15-8-18.85-15.32-26.41-8.5-8.76-18.06-16.07-28.75-21.92,0,0,.08.08.08.08Z"/>
  <path class="cls-1" d="M168.02,29.76c6.16,3.89,12.25,7.86,17.69,12.78,2.4,2.18,4.92,4.24,7.66,6.03,3.05,1.99,5.38,4.85,8.08,7.27,8.15,7.33,15.21,15.67,22.21,24.05.89,1.07,1.7,2.22,2.94,3.85-1.82-.27-2.48-1.28-3.23-2-5.65-5.4-11.24-10.86-16.92-16.23-2.09-1.97-4.37-3.74-6.56-5.61-.39-.33-.83-.66-1.1-1.08-1.89-3-4.79-4.96-7.25-7.38-7.36-7.23-15.77-13.15-23.48-19.92-.29-.25-.52-.56-.77-.85.25-.3.49-.6.74-.9Z"/>
  <path class="cls-1" d="M233.67,77.95c-3.13-3.54-6.52-6.84-9.2-10.79-1.44-2.12-3.34-3.97-5.18-5.79-7.47-7.36-15.37-14.18-24.25-19.82-.53-.34-.98-.82-1.46-1.23.29-.27.58-.55.87-.82,1.79.52,3.07,1.93,4.7,2.69.9.42,1.68,1.66,2.94.72,0,0-.08-.08-.08-.08.11,2.04,1.89,2.7,3.2,3.6,8.66,6,16.89,12.52,24.67,19.63,4.28,3.91,7.66,8.42,10.25,13.6,2.08,4.16,3.46,8.46,2.78,13.1-.23,1.56,1.2,3.19-.54,5.23-.45-3.81-1.31-6.96-2.45-10.03.23-.22.45-.44.68-.66.21-.51.77-1.09-.26-1.35,0,0,.07.1.07.1-.22-1.24.28-2.86-1.65-3.23,0,0,.07.1.07.1.64-.34.39-.77.14-1.22-1.23-2.25-2.59-4.4-4.37-6.26-.32-.51-.5-1.17-1.28-1.19-.33-.8-.44-1.92-1.8-1.33-.02-.28.43-.56-.09-.86-.49-.28-.56.19-.82.31-.13-.22.04-.36.13-.2.27.44.21-.25-.11.15.49-.13.66.32.96.53.57.51.52,1.84,1.83,1.35-.81.94,0,1.27.64,1.66.09.44.19.87.28,1.31-.22.26-.45.53-.67.79Z"/>
  <path class="cls-1" d="M187.07,35.9c2.03-.41,3.16.82,4.32,2.08-.89,1.12-1.59-.26-2.3.4.08.18.13.63.39.82,8.76,6.61,16.67,14.22,25.01,21.31.2.17.43.3.61.49,5.09,5.71,10.67,11.01,14.81,17.51.25.39.73.8.26,1.39-.78.36-1.14-.21-1.51-.71-8.17-11.19-18.85-19.83-29.34-28.63-7.19-6.04-14.69-11.7-21.89-17.73-3.68-3.07-7.17-6.42-9.57-10.79,6.4,4.33,11.74,10.08,18.53,13.85l-.09-.08c-.1.58.38.67.73.87.23-.04.21.82.61.16l-.71-.06c.07-.32.15-.64.22-.96l-.08.07Z"/>
  <path class="cls-1" d="M268.24,107.01c2.33-3.21,3.3-6.92,3.36-10.81.1-6.11.48-12.25-.63-18.33-.18-1-.13-2.05.07-3.12,1.57,3.59,1.89,7.46,2.25,11.27.61,6.26-.53,12.44-1.3,18.63-.11.88-.65,1.7-.91,2.56-.47,1.58-1.3,3.15-2.92,3.36-1.73.23-1.86-1.86-2.74-2.89-2.83-3.3-3.53-7.34-3.85-11.46-.38-4.97-1.97-9.67-2.97-14.5-.89-4.3-1.78-8.61-1.58-13.37,1.9,1.23,2.25,3.08,2.86,4.67,2.19,5.76,3.08,11.83,4.01,17.88.77,5,1.36,10.04,3.31,14.78.19.47.26,1.02,1.04,1.33Z"/>
  <path class="cls-1" d="M258.18,103.4c-1.94-2-1.94-4.94-3.46-7.19-.74,1.89.31,4.07-1.51,6.62-.09-17.77-9.19-30.96-18.29-44.24,2.45.9,3.53,3.11,5,4.85,1.67,1.98,3.08,4.2,4.53,6.35,1.36,2.03,2.64,4.12,4.39,6.88.15-2.24-.1-3.64-.36-5.08-.32-1.79-.49-3.61-.19-5.43.08-.48.53-.43.9-.42.33,0,.47.17.48.49.2,5.14,2.24,9.87,3.53,14.75,1.32,5.02,2.88,9.97,3.8,15.1.41,2.29,1.24,4.51,1.88,6.75-.23.19-.46.38-.69.57Z"/>
  <path class="cls-1" d="M281.81,77.5c3,7.5,3.16,15.16,1.32,22.93-.24,1-.44,2.02-.65,3.02l.1-.11c-2.65,3.45-4.38,7.62-8.07,10.25-.44.31-.32,1.37-1.33.93-1.01-.43-.59-1.13-.58-1.9.02-2.88.51-5.72,1.49-8.35,3.24-8.69,3.77-17.47,1.63-26.45-.13-.54-.05-1.02.36-1.43,1.18-.14,1.1.81,1.32,1.52,2.33,7.68,2.41,15.35.23,23.09-.53,1.87-1.43,3.84-.31,6.4,3.54-4.9,5.09-9.96,5.43-15.5.31-5-.93-9.84-1.42-14.75.22.05-.01.75.5.34Z"/>
  <path class="cls-1" d="M133.31,15.24c1.76-.08,2.94.66,3.41,2.41-.15.24-.08.4.21.43.37.04.57-.16.6-.53.95,1.1,2.44,1.63,3.17,2.97-.32.39-.63.77-.94,1.16-11.38-5.33-23.75-7.55-36.47-11.09,2.7-.79,4.62-1.08,5.76-.72,2.34.74,4.7.99,7.13,1.28,2.43.29,4.85,1.57,7.34,2.27,3.23.91,6.33,2.26,9.48,3.43.43-.04.58-.22.26-.59-.31-.37-.58-.71.05-1.03Z"/>
  <path class="cls-1" d="M282.48,103.46c2.31-3.55,2.96-7.6,3.45-11.69.32-2.68.55-5.38.9-8.87,1.72,9.72-1.86,24.41-7.94,33.11.34-2.96,1.16-5.28,1.97-7.61.58-1.69,1.84-3.14,1.74-5.06,0,0-.11.12-.11.12Z"/>
  <path class="cls-1" d="M265.38,71.13c4.42,4.15,4.18,24.16,2.03,30.85-.72-2.5-.96-4.78-.79-7.04.31-4.02.14-8.04.32-12.06.18-3.91-.57-7.68-1.57-11.75Z"/>
  <path class="cls-1" d="M230.38,95.21c3.8,2.58,7.38,5.59,13.02,5.97-4.28,1.47-8.5-.4-13.71-5.39.23-.19.46-.39.7-.58Z"/>
  <path class="cls-1" d="M94.77,46.1c-.06-.24-.19-.68-.16-.69,2.09-.71,4.68-.35,7.23,1.01-2.51,1.18-4.8-.32-7.15-.41,0,0,.08.08.08.08Z"/>
  <path class="cls-1" d="M181.02,57.62c.9.5,1.79,1,2.69,1.49.56.3.73.69.33,1.21-.42.55-.98.36-1.37.04-.81-.65-1.53-1.4-2.29-2.1.21-.21.42-.43.63-.64Z"/>
  <path class="cls-1" d="M180.39,58.27c-1.01-.24-1.54-1.47-2.74-1.33,0,0,.12.09.12.09-.04-1.17-1.52-1.2-1.75-2.22.2-.22.41-.44.61-.67,1.5,1.11,3.51,1.58,4.39,3.48-.21.21-.42.43-.63.64Z"/>
  <path class="cls-1" d="M166.83,45.96c1.42.62,2.42,1.73,3.34,2.92-.16.16-.31.32-.47.48-1.43-.62-2.39-1.78-3.39-2.9.18-.16.36-.32.53-.49Z"/>
  <path class="cls-1" d="M106.35,8.03c-.63,1.1-1.83.49-2.3,1.58-.36.84-1.35.36-2-.08-.44-.29-.74-.78-.66-1.3.09-.59.65-.71,1.15-.69,1.26.05,2.57-.24,3.81.49Z"/>
  <path class="cls-1" d="M173.11,53.15c-.3-.53-.61-1.06-.91-1.59.18-.18.34-.38.48-.6,1.32,1.06,2.64,2.12,3.96,3.17-.2.22-.41.44-.61.67-.5-.02-.93-.54-1.47-.19,0,0,.08.08.08.08.21-.78-.25-.9-.86-.88l.09.09c.06-.64-.32-.85-.87-.88l.12.12Z"/>
  <path class="cls-1" d="M161.08,41.53c-1.15-.38-1.88-1.29-2.67-2.12.2-.17.4-.34.61-.5,1.1.43,1.9,1.19,2.5,2.19-.14.15-.29.3-.44.44Z"/>
  <path class="cls-1" d="M154.35,34.95c1.18.34,1.91,1.24,2.7,2.08-.21.19-.42.38-.64.56-1.11-.38-1.98-1.09-2.68-2.01.21-.21.41-.42.61-.63Z"/>
  <path class="cls-1" d="M234.96,87.49c1.05.43,1.25,1.39,1.56,2.43-1.55-.04-1.59-1.18-1.8-2.17l.25-.26Z"/>
  <path class="cls-1" d="M149.68,27.14c1.25-.13,1.51.94,2.03,1.71-1.14.02-1.93-.42-2.2-1.59,0,0,.17-.12.17-.12Z"/>
  <path class="cls-1" d="M238.73,85.28c-.89-.8-1.45-1.79-1.75-2.94.18-.18.35-.35.53-.53.44.37.88.73,1.32,1.1,0,0-.07-.1-.07-.1.21.64.42,1.27.63,1.91-.22.18-.44.37-.66.55Z"/>
  <path class="cls-1" d="M193.57,40.31c-.95-.42-2.8-.82-2.05-1.89.89-1.26,2,.42,2.92,1.07-.29.27-.58.55-.87.82Z"/>
  <path class="cls-1" d="M145.19,24.67c-1.02-.36-1.96-.86-2.76-1.6.31-.21.62-.43.94-.64,1.03.14,1.86.6,2.42,1.51-.2.25-.4.49-.59.74Z"/>
  <path class="cls-1" d="M233.2,85.34c-.86-.6-1.41-1.39-1.6-2.75,1.55.1,1.69,1.34,2.17,2.23-.19.17-.38.34-.57.52Z"/>
  <path class="cls-1" d="M156.23,60.52c-.24-.05-.53-.03-.72-.15-.63-.38-1.44-.86-.94-1.69.55-.89,1.28-.27,1.85.18.29.22.52.53.78.8-.32.29-.65.57-.97.86Z"/>
  <path class="cls-1" d="M231.85,81.81c-.19.17-.4.48-.52.45-.69-.19-1.09-.73-1.21-1.38-.04-.22.1-.78.69-.53.67.28.91.84,1.05,1.47Z"/>
  <path class="cls-1" d="M167.28,30.66c-.8-.21-1.35-.77-1.86-1.37.25-.23.5-.46.75-.69.79.1,1.33.6,1.84,1.16-.25.3-.49.6-.74.9Z"/>
  <path class="cls-1" d="M161.38,64.93c-.33-.51-.67-1.03-1-1.54.18-.2.36-.4.54-.6.41.31.85.58,1.21.94.31.3,1,.56.55,1.14-.4.5-.93-.2-1.42-.06,0,0,.12.12.12.12Z"/>
  <path class="cls-1" d="M112.68,20.17c1.25-.06,2.62-.47,3.22,1.21-1-.59-2.45,0-3.22-1.21Z"/>
  <path class="cls-1" d="M141.22,21.46c.8.14,2.01-.63,2.15.97-.31.21-.62.43-.94.64-.65-.25-1.49-.19-1.79-1.04.19-.19.38-.38.58-.58Z"/>
  <path class="cls-1" d="M108.23,30.08c-.22.86-.7.88-1.21.79-.62-.11-1.45-.37-1.47-.92-.02-.74.75-.75,1.41-.67.66.08,1.08.37,1.27.8Z"/>
  <path class="cls-1" d="M110.29,30.9c-.37.1-.69.23-1.01.23-.11,0-.23-.3-.35-.46.31-.11.61-.27.92-.3.1-.01.24.29.44.53Z"/>
  <path class="cls-1" d="M235.37,79.97c-.69-.26-1.05-.79-1.25-1.46l.85-.41c.67.22.86.79.99,1.39-.2.16-.39.33-.59.49Z"/>
  <path class="cls-1" d="M164.87,43.97c.48.33,1.06.56,1.15,1.25-.18.17-.34.35-.49.54-.48-.32-1.08-.55-1.15-1.25.18-.16.34-.34.49-.53Z"/>
  <path class="cls-1" d="M236.38,81.36c-.71-.19-.88-.78-1.01-1.39.2-.16.4-.32.59-.49.59.26.81.81,1.03,1.36-.2.17-.41.35-.61.52Z"/>
  <path class="cls-1" d="M157.77,61.66c-.68-.15-1.27-.43-1.54-1.14.32-.29.65-.57.97-.86.48.25,1,.44,1.14,1.06-.19.31-.38.62-.57.94Z"/>
  <path class="cls-1" d="M164.81,27.57c.53.25,1.11.42,1.36,1.03-.25.23-.5.46-.75.69-.48-.27-1.03-.45-1.2-1.07.2-.22.39-.43.59-.65Z"/>
  <path class="cls-1" d="M138.93,55.04c.47.3,1.44.54,1,1.17-.58.81-1.21.11-1.64-.49.22-.23.43-.45.65-.68Z"/>
  <path class="cls-1" d="M259.17,104.79c-.93-.04-.92-.75-.99-1.4.23-.19.46-.38.69-.57.37.53.67,1.08.48,1.77,0,0-.18.2-.18.2Z"/>
  <path class="cls-1" d="M147.52,26.12c-.55-.19-1.19-.26-1.35-.99.2-.21.41-.42.61-.64.52.26,1.15.4,1.24,1.13-.17.16-.34.32-.5.49Z"/>
  <path class="cls-1" d="M153.12,33.83c.5.27,1.07.47,1.22,1.12-.2.21-.41.42-.61.63-.58-.18-1.11-.41-1.28-1.07.22-.23.45-.46.67-.68Z"/>
  <path class="cls-1" d="M132.5,24.26c-.23-.16-.41-.14-.54.13.21-.05.42-.09.63-.13,0,0-.09,0-.09,0Z"/>
  <path class="cls-1" d="M265.04,69.37c.08.21.19.42.23.63.01.06-.16.21-.24.21-.08,0-.25-.17-.23-.23.05-.21.16-.41.25-.62Z"/>
  <path class="cls-1" d="M239.91,87.97c-.25-.53-.5-1.06-.74-1.59l.62-.61.37-.02.24.29s-.07-.1-.07-.1c.09.45.17.9.26,1.35-.23.22-.45.44-.68.66Z"/>
  <path class="cls-1" d="M163.8,27.07c.34.17.68.33,1.02.5-.2.22-.39.43-.59.65-.44-.03-.75-.24-.91-.66.16-.16.32-.32.48-.48Z"/>
  <path class="cls-1" d="M234.12,78.51c-.25-.11-.4-.3-.45-.56.22-.26.45-.53.67-.79.46.14.64.47.62.93l-.85.41Z"/>
  <path class="cls-1" d="M236.98,82.35c-.45-.17-.62-.52-.59-.98.2-.17.41-.35.61-.52.17.32.34.65.51.97-.18.18-.35.35-.53.53Z"/>
  <path class="cls-1" d="M186.4,35.9c-.21-.4-.12-.76.33-.76.44,0,.56.36.35.76,0,0,.08-.07.08-.07-.28,0-.57,0-.85,0l.09.08Z"/>
  <path class="cls-1" d="M157.05,37.03c.32.31.93.61.38,1.09-.57.5-.76-.17-1.01-.53.21-.19.42-.38.64-.56Z"/>
  <path class="cls-1" d="M158.41,39.4c-.31-.29-.87-.6-.33-1.05.57-.46.72.18.93.54-.2.17-.4.34-.61.5Z"/>
  <path class="cls-1" d="M233.76,84.82c.21.37.82.78.25,1.17-.65.46-.66-.28-.82-.65.18-.18.37-.35.57-.52Z"/>
  <path class="cls-1" d="M239.17,86.38c-.34-.29-.5-.65-.44-1.1.22-.18.44-.37.66-.55.13.35.27.7.4,1.05l-.62.61Z"/>
  <path class="cls-1" d="M161.52,41.08c.43.06.71.31.85.72-.15.16-.3.31-.45.46-.48-.02-.77-.25-.84-.74.15-.14.3-.29.44-.44Z"/>
  <path class="cls-1" d="M234.71,87.75c-.2-.25-.41-.49-.61-.74.16-.12.35-.38.46-.34.37.11.42.47.4.82,0,0-.25.26-.25.26Z"/>
  <path class="cls-1" d="M162.74,43.01c-.49,0-.78-.24-.83-.75.15-.15.3-.3.45-.46.3.23.59.47.89.7-.17.16-.35.33-.51.5Z"/>
  <path class="cls-1" d="M163.26,42.51c.28.25.56.51.84.76-.18.15-.36.31-.52.48-.49,0-.78-.23-.83-.74.17-.17.34-.34.51-.5Z"/>
  <path class="cls-1" d="M227.44,93.68c-.4-.38-1.15-.77-.46-1.37.44-.38.79.17,1,.6-.18.26-.36.51-.53.77Z"/>
  <path class="cls-1" d="M227.97,92.91c.46.06.72.32.78.79-.18.26-.36.52-.54.77-.26-.26-.51-.53-.77-.79.18-.26.36-.51.53-.77Z"/>
  <path class="cls-1" d="M228.75,93.7c.46.05.73.3.8.77-.18.24-.36.48-.54.71-.44-.04-.66-.33-.8-.71.18-.26.36-.52.54-.77Z"/>
  <path class="cls-1" d="M164.38,44.5c-.49-.01-.77-.25-.81-.76.17-.17.34-.33.52-.48.26.24.52.47.77.71-.15.19-.31.37-.49.53Z"/>
  <path class="cls-1" d="M260.64,105.33c-.62.17-1.36.66-1.48-.54,0,0,.18-.2.18-.2.43.24.86.49,1.29.74h.01Z"/>
  <path class="cls-1" d="M260.63,105.33c-.21.17-.42.33-.64.5,0-.08-.04-.21-.01-.22.21-.1.44-.19.66-.28,0,0,0,0,0,0Z"/>
  <path class="cls-1" d="M16.98,45.07c.08-.44.35-.7.79-.79.23.26.46.51.7.77-.26.24-.51.48-.77.72-.24-.24-.47-.47-.71-.71Z"/>
  <path class="cls-1" d="M16.16,45.83c.1-.44.38-.69.82-.76.24.24.47.47.71.71-.26.24-.52.49-.78.73-.25-.22-.5-.45-.76-.67Z"/>
  <path class="cls-1" d="M166.31,46.46c-.26-.23-.52-.47-.78-.7.15-.19.31-.37.49-.54.49,0,.77.25.82.74-.17.17-.35.34-.53.49Z"/>
  <path class="cls-1" d="M133.09,15.31c-.06.37-.27.58-.64.62-.59-.35-.95-.84-.23-1.3.58-.37.78.19.87.68Z"/>
  <path class="cls-1" d="M170.17,48.88c.3.23.6.46.9.69-.18.17-.37.35-.55.53-.47-.03-.76-.27-.83-.74.16-.16.32-.32.47-.48Z"/>
  <path class="cls-1" d="M171.07,49.57c.29.25.59.5.88.75-.2.16-.4.33-.59.51-.48-.02-.77-.25-.84-.73.18-.18.36-.35.55-.53Z"/>
  <path class="cls-1" d="M171.95,50.32c.24.21.49.43.73.64-.14.22-.3.42-.48.6-.48-.01-.77-.24-.84-.73.19-.18.38-.35.59-.51Z"/>
  <path class="cls-1" d="M138.29,55.72c-.5-.08-1.02-.37-.73-.87.47-.82.94-.14,1.38.19-.22.23-.43.45-.65.68Z"/>
  <path class="cls-1" d="M153.14,19.88c-.04.3-.09.6-.13.9-.79-.47-.04-.64.19-.91.01,0-.06.01-.06.01Z"/>
  <path class="cls-1" d="M140.64,22.03c-.29-.12-.59-.24-.88-.36.31-.39.63-.77.94-1.16.52.12.65.46.52.94-.19.19-.38.38-.58.58Z"/>
  <path class="cls-1" d="M149.11,22.21c-.22-.33-.93-.61-.22-1.05.31-.19.63.12.74.5-.18.18-.35.36-.52.55Z"/>
  <path class="cls-1" d="M149.63,21.66c.48,0,.77.23.86.71-.19.19-.37.38-.56.57-.27-.24-.54-.48-.82-.73.17-.19.34-.37.52-.55Z"/>
  <path class="cls-1" d="M150.84,61.18c-.37-.26-1.02-.45-.59-1.05.42-.59.83-.02,1.21.19-.21.29-.42.57-.63.86Z"/>
  <path class="cls-1" d="M150.66,23.71c-.24-.26-.48-.52-.73-.78.19-.19.37-.38.56-.57.46.03.74.27.86.71-.23.21-.46.43-.7.64Z"/>
  <path class="cls-1" d="M158.34,60.72c.44.04.75.26.86.7-.23.26-.46.52-.69.78-.39.02-.6-.22-.74-.55.19-.31.38-.62.57-.94Z"/>
  <path class="cls-1" d="M159.43,62.76c-.43.03-.74-.15-.92-.56.23-.26.46-.52.69-.78.43.07.72.3.88.7-.22.21-.44.42-.66.63Z"/>
  <path class="cls-1" d="M160.37,63.39c-.47.03-.82-.14-.94-.63.22-.21.44-.42.66-.63.27.22.55.44.82.67-.18.2-.36.4-.54.6Z"/>
  <path class="cls-1" d="M146.17,25.13c-.43.08-.76-.07-.98-.46.2-.24.4-.49.59-.74.44-.01.77.17.99.55-.2.21-.41.42-.61.64Z"/>
  <path class="cls-1" d="M148.02,25.62c.49-.02.84.13.87.69-.11.11-.21.21-.32.32-.49.11-.84-.05-1.04-.51.16-.17.33-.34.5-.49Z"/>
  <path class="cls-1" d="M161.25,25.26c.23.3,1.12.35.63.9-.47.53-.71-.25-1.02-.51.1-.16.23-.29.39-.39Z"/>
  <path class="cls-1" d="M148.88,26.32c.49.06.96.13.8.82,0,0-.17.12-.17.12-.57.18-.9-.02-.96-.63.11-.1.22-.21.32-.32Z"/>
  <path class="cls-1" d="M163.32,27.55c-.36-.15-.81-.51-.62-.77.45-.64.82-.17,1.1.29-.16.16-.32.32-.48.48Z"/>
  <path class="cls-1" d="M35.95,31.93c-.47-.05-.83.1-.94.61-.48.08-.96.16-1.44.24.09-1.62,1.17-1.79,2.45-1.66-.02.27-.05.54-.07.81Z"/>
  <path class="cls-1" d="M38.31,30.38c-.5-.09-.87.03-.94.6-.49.08-.97.16-1.46.24.45-1.43,1.27-2.12,2.79-1.37l-.11-.06c-.27.12-.36.31-.27.59Z"/>
  <path class="cls-1" d="M45.11,27.8c.17-.38.46-.56.87-.42.11.03.26.21.24.28-.12.43-.44.51-.83.4,0,0-.28-.25-.28-.25Z"/>
  <path class="cls-1" d="M38.7,29.85c-.37-.16-.53-.42-.31-.79.04-.07.29-.11.34-.06.32.33.07.56-.15.79.01,0,.13.07.13.07Z"/>
  <path class="cls-1" d="M30.62,36.8c.49-.07.98-.14,1.47-.22-.13,1.57-.93,2.16-2.46,1.64.33-.47.66-.95.99-1.42Z"/>
  <path class="cls-1" d="M31.99,36.69c-.03-.61.3-.88.87-.89.63,1.21-.18.99-.87.89Z"/>
  <path class="cls-1" d="M28.86,39.05c-.06-.64.33-.84.87-.9.5,1.07-.35.82-.87.9Z"/>
  <path class="cls-1" d="M79,35.82c.8,0,1.61,0,2.41,0,.49,1.17,1.53.64,2.36.77,0,.29,0,.57,0,.86-3.29.18-3.73.03-4.78-1.64Z"/>
  <path class="cls-1" d="M77.44,35.04c.54-.39,1.09-.04,1.64,0,0,.28,0,.56,0,.84-.34.7-.82.68-1.42.34-.56-.32-.43-.73-.21-1.17Z"/>
  <path class="cls-1" d="M72.46,15.89c-.24-.03-.5-.01-.72-.09-.45-.14-1.19-.2-1.13-.72.09-.82.9-.46,1.42-.49.24-.02.48.05.73.08,0,0,.09.07.09.07.14.15.16.31.08.5-.16.21-.31.43-.47.64Z"/>
  <path class="cls-1" d="M72.93,15.24c.57.08,1.53.19,1.27.78-.37.85-1.18.4-1.74-.14.16-.21.31-.43.47-.64Z"/>
</svg>